<?xml version="1.0" encoding="utf-8" standalone="no"?>
<!DOCTYPE svg PUBLIC "-//W3C//DTD SVG 1.1//EN"
  "http://www.w3.org/Graphics/SVG/1.1/DTD/svg11.dtd">
<svg height="345.6pt" version="1.1" viewBox="0 0 460.8 345.6" width="460.8pt" xmlns="http://www.w3.org/2000/svg" xmlns:xlink="http://www.w3.org/1999/xlink">
 <metadata>
  <rdf:RDF xmlns:cc="http://creativecommons.org/ns#" xmlns:dc="http://purl.org/dc/elements/1.1/" xmlns:rdf="http://www.w3.org/1999/02/22-rdf-syntax-ns#">
   <cc:Work>
    <dc:type rdf:resource="http://purl.org/dc/dcmitype/StillImage"/>
    <dc:date>2022-08-27T11:54:08.396116</dc:date>
    <dc:format>image/svg+xml</dc:format>
    <dc:creator>
     <cc:Agent>
      <dc:title>Matplotlib v3.4.3, https://matplotlib.org/</dc:title>
     </cc:Agent>
    </dc:creator>
   </cc:Work>
  </rdf:RDF>
 </metadata>
 <defs>
  <style type="text/css">*{stroke-linecap:butt;stroke-linejoin:round;}</style>
 </defs>
 <g id="figure_1">
  <g id="patch_1">
   <path d="M 0 345.6 
L 460.8 345.6 
L 460.8 0 
L 0 0 
z
" style="fill:#ffffff;"/>
  </g>
  <g id="axes_1">
   <g id="patch_2">
    <path d="M 57.6 307.584 
L 414.72 307.584 
L 414.72 41.472 
L 57.6 41.472 
z
" style="fill:#ffffff;"/>
   </g>
   <g id="matplotlib.axis_1">
    <g id="xtick_1">
     <g id="line2d_1">
      <defs>
       <path d="M 0 0 
L 0 3.5 
" id="m8311ea9d40" style="stroke:#000000;stroke-width:0.8;"/>
      </defs>
      <g>
       <use style="stroke:#000000;stroke-width:0.8;" x="73.832727" xlink:href="#m8311ea9d40" y="307.584"/>
      </g>
     </g>
     <g id="text_1">
      <!-- 0.0 -->
      <g transform="translate(65.881165 322.182437)scale(0.1 -0.1)">
       <defs>
        <path d="M 2034 4250 
Q 1547 4250 1301 3770 
Q 1056 3291 1056 2328 
Q 1056 1369 1301 889 
Q 1547 409 2034 409 
Q 2525 409 2770 889 
Q 3016 1369 3016 2328 
Q 3016 3291 2770 3770 
Q 2525 4250 2034 4250 
z
M 2034 4750 
Q 2819 4750 3233 4129 
Q 3647 3509 3647 2328 
Q 3647 1150 3233 529 
Q 2819 -91 2034 -91 
Q 1250 -91 836 529 
Q 422 1150 422 2328 
Q 422 3509 836 4129 
Q 1250 4750 2034 4750 
z
" id="DejaVuSans-30" transform="scale(0.015625)"/>
        <path d="M 684 794 
L 1344 794 
L 1344 0 
L 684 0 
L 684 794 
z
" id="DejaVuSans-2e" transform="scale(0.015625)"/>
       </defs>
       <use xlink:href="#DejaVuSans-30"/>
       <use x="63.623047" xlink:href="#DejaVuSans-2e"/>
       <use x="95.410156" xlink:href="#DejaVuSans-30"/>
      </g>
     </g>
    </g>
    <g id="xtick_2">
     <g id="line2d_2">
      <g>
       <use style="stroke:#000000;stroke-width:0.8;" x="138.763636" xlink:href="#m8311ea9d40" y="307.584"/>
      </g>
     </g>
     <g id="text_2">
      <!-- 0.2 -->
      <g transform="translate(130.812074 322.182437)scale(0.1 -0.1)">
       <defs>
        <path d="M 1228 531 
L 3431 531 
L 3431 0 
L 469 0 
L 469 531 
Q 828 903 1448 1529 
Q 2069 2156 2228 2338 
Q 2531 2678 2651 2914 
Q 2772 3150 2772 3378 
Q 2772 3750 2511 3984 
Q 2250 4219 1831 4219 
Q 1534 4219 1204 4116 
Q 875 4013 500 3803 
L 500 4441 
Q 881 4594 1212 4672 
Q 1544 4750 1819 4750 
Q 2544 4750 2975 4387 
Q 3406 4025 3406 3419 
Q 3406 3131 3298 2873 
Q 3191 2616 2906 2266 
Q 2828 2175 2409 1742 
Q 1991 1309 1228 531 
z
" id="DejaVuSans-32" transform="scale(0.015625)"/>
       </defs>
       <use xlink:href="#DejaVuSans-30"/>
       <use x="63.623047" xlink:href="#DejaVuSans-2e"/>
       <use x="95.410156" xlink:href="#DejaVuSans-32"/>
      </g>
     </g>
    </g>
    <g id="xtick_3">
     <g id="line2d_3">
      <g>
       <use style="stroke:#000000;stroke-width:0.8;" x="203.694545" xlink:href="#m8311ea9d40" y="307.584"/>
      </g>
     </g>
     <g id="text_3">
      <!-- 0.4 -->
      <g transform="translate(195.742983 322.182437)scale(0.1 -0.1)">
       <defs>
        <path d="M 2419 4116 
L 825 1625 
L 2419 1625 
L 2419 4116 
z
M 2253 4666 
L 3047 4666 
L 3047 1625 
L 3713 1625 
L 3713 1100 
L 3047 1100 
L 3047 0 
L 2419 0 
L 2419 1100 
L 313 1100 
L 313 1709 
L 2253 4666 
z
" id="DejaVuSans-34" transform="scale(0.015625)"/>
       </defs>
       <use xlink:href="#DejaVuSans-30"/>
       <use x="63.623047" xlink:href="#DejaVuSans-2e"/>
       <use x="95.410156" xlink:href="#DejaVuSans-34"/>
      </g>
     </g>
    </g>
    <g id="xtick_4">
     <g id="line2d_4">
      <g>
       <use style="stroke:#000000;stroke-width:0.8;" x="268.625455" xlink:href="#m8311ea9d40" y="307.584"/>
      </g>
     </g>
     <g id="text_4">
      <!-- 0.6 -->
      <g transform="translate(260.673892 322.182437)scale(0.1 -0.1)">
       <defs>
        <path d="M 2113 2584 
Q 1688 2584 1439 2293 
Q 1191 2003 1191 1497 
Q 1191 994 1439 701 
Q 1688 409 2113 409 
Q 2538 409 2786 701 
Q 3034 994 3034 1497 
Q 3034 2003 2786 2293 
Q 2538 2584 2113 2584 
z
M 3366 4563 
L 3366 3988 
Q 3128 4100 2886 4159 
Q 2644 4219 2406 4219 
Q 1781 4219 1451 3797 
Q 1122 3375 1075 2522 
Q 1259 2794 1537 2939 
Q 1816 3084 2150 3084 
Q 2853 3084 3261 2657 
Q 3669 2231 3669 1497 
Q 3669 778 3244 343 
Q 2819 -91 2113 -91 
Q 1303 -91 875 529 
Q 447 1150 447 2328 
Q 447 3434 972 4092 
Q 1497 4750 2381 4750 
Q 2619 4750 2861 4703 
Q 3103 4656 3366 4563 
z
" id="DejaVuSans-36" transform="scale(0.015625)"/>
       </defs>
       <use xlink:href="#DejaVuSans-30"/>
       <use x="63.623047" xlink:href="#DejaVuSans-2e"/>
       <use x="95.410156" xlink:href="#DejaVuSans-36"/>
      </g>
     </g>
    </g>
    <g id="xtick_5">
     <g id="line2d_5">
      <g>
       <use style="stroke:#000000;stroke-width:0.8;" x="333.556364" xlink:href="#m8311ea9d40" y="307.584"/>
      </g>
     </g>
     <g id="text_5">
      <!-- 0.8 -->
      <g transform="translate(325.604801 322.182437)scale(0.1 -0.1)">
       <defs>
        <path d="M 2034 2216 
Q 1584 2216 1326 1975 
Q 1069 1734 1069 1313 
Q 1069 891 1326 650 
Q 1584 409 2034 409 
Q 2484 409 2743 651 
Q 3003 894 3003 1313 
Q 3003 1734 2745 1975 
Q 2488 2216 2034 2216 
z
M 1403 2484 
Q 997 2584 770 2862 
Q 544 3141 544 3541 
Q 544 4100 942 4425 
Q 1341 4750 2034 4750 
Q 2731 4750 3128 4425 
Q 3525 4100 3525 3541 
Q 3525 3141 3298 2862 
Q 3072 2584 2669 2484 
Q 3125 2378 3379 2068 
Q 3634 1759 3634 1313 
Q 3634 634 3220 271 
Q 2806 -91 2034 -91 
Q 1263 -91 848 271 
Q 434 634 434 1313 
Q 434 1759 690 2068 
Q 947 2378 1403 2484 
z
M 1172 3481 
Q 1172 3119 1398 2916 
Q 1625 2713 2034 2713 
Q 2441 2713 2670 2916 
Q 2900 3119 2900 3481 
Q 2900 3844 2670 4047 
Q 2441 4250 2034 4250 
Q 1625 4250 1398 4047 
Q 1172 3844 1172 3481 
z
" id="DejaVuSans-38" transform="scale(0.015625)"/>
       </defs>
       <use xlink:href="#DejaVuSans-30"/>
       <use x="63.623047" xlink:href="#DejaVuSans-2e"/>
       <use x="95.410156" xlink:href="#DejaVuSans-38"/>
      </g>
     </g>
    </g>
    <g id="xtick_6">
     <g id="line2d_6">
      <g>
       <use style="stroke:#000000;stroke-width:0.8;" x="398.487273" xlink:href="#m8311ea9d40" y="307.584"/>
      </g>
     </g>
     <g id="text_6">
      <!-- 1.0 -->
      <g transform="translate(390.53571 322.182437)scale(0.1 -0.1)">
       <defs>
        <path d="M 794 531 
L 1825 531 
L 1825 4091 
L 703 3866 
L 703 4441 
L 1819 4666 
L 2450 4666 
L 2450 531 
L 3481 531 
L 3481 0 
L 794 0 
L 794 531 
z
" id="DejaVuSans-31" transform="scale(0.015625)"/>
       </defs>
       <use xlink:href="#DejaVuSans-31"/>
       <use x="63.623047" xlink:href="#DejaVuSans-2e"/>
       <use x="95.410156" xlink:href="#DejaVuSans-30"/>
      </g>
     </g>
    </g>
   </g>
   <g id="matplotlib.axis_2">
    <g id="ytick_1">
     <g id="line2d_7">
      <defs>
       <path d="M 0 0 
L -3.5 0 
" id="m64335fd4d4" style="stroke:#000000;stroke-width:0.8;"/>
      </defs>
      <g>
       <use style="stroke:#000000;stroke-width:0.8;" x="57.6" xlink:href="#m64335fd4d4" y="295.488"/>
      </g>
     </g>
     <g id="text_7">
      <!-- 0.0 -->
      <g transform="translate(34.696875 299.287219)scale(0.1 -0.1)">
       <use xlink:href="#DejaVuSans-30"/>
       <use x="63.623047" xlink:href="#DejaVuSans-2e"/>
       <use x="95.410156" xlink:href="#DejaVuSans-30"/>
      </g>
     </g>
    </g>
    <g id="ytick_2">
     <g id="line2d_8">
      <g>
       <use style="stroke:#000000;stroke-width:0.8;" x="57.6" xlink:href="#m64335fd4d4" y="247.104"/>
      </g>
     </g>
     <g id="text_8">
      <!-- 0.2 -->
      <g transform="translate(34.696875 250.903219)scale(0.1 -0.1)">
       <use xlink:href="#DejaVuSans-30"/>
       <use x="63.623047" xlink:href="#DejaVuSans-2e"/>
       <use x="95.410156" xlink:href="#DejaVuSans-32"/>
      </g>
     </g>
    </g>
    <g id="ytick_3">
     <g id="line2d_9">
      <g>
       <use style="stroke:#000000;stroke-width:0.8;" x="57.6" xlink:href="#m64335fd4d4" y="198.72"/>
      </g>
     </g>
     <g id="text_9">
      <!-- 0.4 -->
      <g transform="translate(34.696875 202.519219)scale(0.1 -0.1)">
       <use xlink:href="#DejaVuSans-30"/>
       <use x="63.623047" xlink:href="#DejaVuSans-2e"/>
       <use x="95.410156" xlink:href="#DejaVuSans-34"/>
      </g>
     </g>
    </g>
    <g id="ytick_4">
     <g id="line2d_10">
      <g>
       <use style="stroke:#000000;stroke-width:0.8;" x="57.6" xlink:href="#m64335fd4d4" y="150.336"/>
      </g>
     </g>
     <g id="text_10">
      <!-- 0.6 -->
      <g transform="translate(34.696875 154.135219)scale(0.1 -0.1)">
       <use xlink:href="#DejaVuSans-30"/>
       <use x="63.623047" xlink:href="#DejaVuSans-2e"/>
       <use x="95.410156" xlink:href="#DejaVuSans-36"/>
      </g>
     </g>
    </g>
    <g id="ytick_5">
     <g id="line2d_11">
      <g>
       <use style="stroke:#000000;stroke-width:0.8;" x="57.6" xlink:href="#m64335fd4d4" y="101.952"/>
      </g>
     </g>
     <g id="text_11">
      <!-- 0.8 -->
      <g transform="translate(34.696875 105.751219)scale(0.1 -0.1)">
       <use xlink:href="#DejaVuSans-30"/>
       <use x="63.623047" xlink:href="#DejaVuSans-2e"/>
       <use x="95.410156" xlink:href="#DejaVuSans-38"/>
      </g>
     </g>
    </g>
    <g id="ytick_6">
     <g id="line2d_12">
      <g>
       <use style="stroke:#000000;stroke-width:0.8;" x="57.6" xlink:href="#m64335fd4d4" y="53.568"/>
      </g>
     </g>
     <g id="text_12">
      <!-- 1.0 -->
      <g transform="translate(34.696875 57.367219)scale(0.1 -0.1)">
       <use xlink:href="#DejaVuSans-31"/>
       <use x="63.623047" xlink:href="#DejaVuSans-2e"/>
       <use x="95.410156" xlink:href="#DejaVuSans-30"/>
      </g>
     </g>
    </g>
   </g>
   <g id="line2d_13">
    <path clip-path="url(#p539f20253d)" d="M 398.487273 53.568 
L 144.390982 53.64864 
L 144.390982 53.72928 
L 144.282764 53.72928 
L 127.725382 53.80992 
L 127.617164 53.89056 
L 117.12 53.9712 
L 117.011782 54.05184 
L 112.3584 54.13248 
L 112.3584 54.29376 
L 112.250182 54.29376 
L 106.731055 54.3744 
L 106.731055 54.45504 
L 106.622836 54.45504 
L 104.242036 54.53568 
L 104.133818 54.61632 
L 100.887273 54.69696 
L 100.779055 54.7776 
L 100.346182 54.7776 
L 100.346182 54.85824 
L 100.346182 54.93888 
L 100.237964 54.93888 
L 99.264 54.93888 
L 99.264 55.01952 
L 99.264 55.10016 
L 99.155782 55.10016 
L 97.640727 55.1808 
L 97.532509 55.26144 
L 96.125673 55.26144 
L 96.125673 55.34208 
L 96.125673 55.42272 
L 96.017455 55.42272 
L 92.879127 55.50336 
L 92.770909 55.66464 
L 92.229818 55.74528 
L 92.1216 55.9872 
L 91.364073 56.06784 
L 91.255855 56.22912 
L 88.875055 56.30976 
L 88.875055 56.3904 
L 88.766836 56.3904 
L 88.442182 56.47104 
L 88.333964 56.7936 
L 86.494255 56.87424 
L 86.386036 56.95488 
L 85.844945 57.03552 
L 85.736727 57.27744 
L 85.520291 57.35808 
L 85.412073 57.51936 
L 84.329891 57.6 
L 84.221673 57.68064 
L 84.113455 57.68064 
L 84.113455 57.76128 
L 84.113455 58.0032 
L 84.005236 58.0032 
L 83.897018 58.0032 
L 83.897018 58.08384 
L 83.7888 58.32576 
L 83.572364 58.32576 
L 83.572364 58.4064 
L 83.572364 58.56768 
L 83.464145 58.56768 
L 83.031273 58.64832 
L 82.923055 58.8096 
L 82.490182 58.89024 
L 82.381964 59.13216 
L 82.165527 59.13216 
L 82.165527 59.2128 
L 82.057309 59.29344 
L 81.949091 59.29344 
L 81.949091 59.37408 
L 81.840873 59.69664 
L 81.408 59.77728 
L 81.408 59.85792 
L 81.299782 59.85792 
L 80.758691 59.93856 
L 80.650473 60.18048 
L 80.434036 60.26112 
L 80.325818 60.90624 
L 80.2176 60.90624 
L 80.2176 60.98688 
L 80.2176 61.30944 
L 80.109382 61.30944 
L 79.568291 61.39008 
L 79.460073 62.11584 
L 79.351855 62.11584 
L 79.351855 62.19648 
L 79.351855 62.8416 
L 79.243636 62.8416 
L 79.0272 62.92224 
L 78.918982 64.13184 
L 78.810764 64.13184 
L 78.810764 64.21248 
L 78.702545 64.4544 
L 78.594327 64.4544 
L 78.594327 64.53504 
L 78.486109 64.77696 
L 78.269673 64.77696 
L 78.269673 64.8576 
L 78.161455 65.34144 
L 77.945018 65.42208 
L 77.8368 66.8736 
L 77.512145 66.8736 
L 77.512145 66.95424 
L 77.403927 67.11552 
L 77.295709 67.11552 
L 77.295709 67.19616 
L 77.187491 68.72832 
L 76.971055 68.80896 
L 76.971055 69.77664 
L 76.862836 69.77664 
L 76.538182 69.85728 
L 76.429964 70.5024 
L 76.321745 70.5024 
L 76.321745 70.58304 
L 76.321745 70.74432 
L 76.213527 70.74432 
L 76.105309 70.74432 
L 76.105309 70.82496 
L 75.997091 71.712 
L 75.888873 71.712 
L 75.888873 71.79264 
L 75.888873 73.56672 
L 75.780655 73.56672 
L 75.564218 73.64736 
L 75.456 76.9536 
L 75.347782 76.9536 
L 75.347782 77.03424 
L 75.347782 78.88896 
L 75.239564 78.88896 
L 75.131345 78.88896 
L 75.131345 78.9696 
L 75.131345 79.69536 
L 75.023127 79.69536 
L 74.914909 79.69536 
L 74.914909 79.776 
L 74.806691 90.82368 
L 74.698473 90.82368 
L 74.698473 90.90432 
L 74.590255 95.17824 
L 74.482036 95.17824 
L 74.482036 95.25888 
L 74.373818 103.08096 
L 74.2656 103.08096 
L 74.2656 103.1616 
L 74.157382 125.25696 
L 74.049164 125.25696 
L 74.049164 125.3376 
L 74.049164 128.9664 
L 73.940945 128.9664 
L 73.832727 128.9664 
L 73.832727 129.04704 
L 73.832727 295.488 
L 73.832727 295.488 
" style="fill:none;stroke:#1f77b4;stroke-linecap:square;stroke-width:1.5;"/>
   </g>
   <g id="line2d_14">
    <path clip-path="url(#p539f20253d)" d="M 398.487273 53.568 
L 165.493527 53.64864 
L 165.493527 53.72928 
L 165.385309 53.72928 
L 97.857164 53.80992 
L 97.748945 53.89056 
L 96.774982 53.9712 
L 96.666764 54.05184 
L 92.013382 54.13248 
L 92.013382 54.21312 
L 91.905164 54.21312 
L 89.957236 54.29376 
L 89.849018 54.3744 
L 89.091491 54.45504 
L 89.091491 54.61632 
L 88.983273 54.61632 
L 87.684655 54.69696 
L 87.576436 54.7776 
L 85.736727 54.85824 
L 85.628509 55.26144 
L 84.654545 55.34208 
L 84.654545 55.42272 
L 84.546327 55.42272 
L 82.706618 55.50336 
L 82.5984 55.584 
L 82.165527 55.584 
L 82.165527 55.66464 
L 82.057309 55.74528 
L 81.949091 55.74528 
L 81.949091 55.82592 
L 81.949091 55.9872 
L 81.840873 55.9872 
L 81.732655 55.9872 
L 81.732655 56.06784 
L 81.732655 56.30976 
L 81.624436 56.30976 
L 80.325818 56.30976 
L 80.325818 56.3904 
L 80.2176 56.47104 
L 79.892945 56.47104 
L 79.892945 56.55168 
L 79.892945 56.63232 
L 79.784727 56.63232 
L 79.460073 56.71296 
L 79.351855 57.03552 
L 78.918982 57.03552 
L 78.918982 57.11616 
L 78.810764 57.51936 
L 78.594327 57.51936 
L 78.594327 57.6 
L 78.486109 57.68064 
L 78.053236 57.68064 
L 78.053236 57.76128 
L 78.053236 57.84192 
L 77.945018 57.84192 
L 77.8368 57.84192 
L 77.8368 57.92256 
L 77.8368 58.08384 
L 77.728582 58.08384 
L 77.620364 58.08384 
L 77.620364 58.16448 
L 77.620364 58.4064 
L 77.512145 58.4064 
L 77.403927 58.4064 
L 77.403927 58.48704 
L 77.295709 58.8096 
L 77.187491 58.8096 
L 77.187491 58.89024 
L 77.187491 59.37408 
L 77.079273 59.37408 
L 76.971055 59.37408 
L 76.971055 59.45472 
L 76.862836 59.616 
L 76.754618 59.616 
L 76.754618 59.69664 
L 76.6464 60.74496 
L 76.429964 60.74496 
L 76.429964 60.8256 
L 76.429964 62.8416 
L 76.321745 62.8416 
L 76.213527 62.8416 
L 76.213527 62.92224 
L 76.105309 63.16416 
L 75.997091 63.16416 
L 75.997091 63.2448 
L 75.888873 63.88992 
L 75.780655 63.88992 
L 75.780655 63.97056 
L 75.672436 65.42208 
L 75.564218 65.42208 
L 75.564218 65.50272 
L 75.456 65.90592 
L 75.347782 65.90592 
L 75.347782 65.98656 
L 75.239564 67.2768 
L 75.131345 67.2768 
L 75.131345 67.35744 
L 75.023127 71.38944 
L 74.914909 71.38944 
L 74.914909 71.47008 
L 74.806691 74.21184 
L 74.698473 74.21184 
L 74.698473 74.29248 
L 74.590255 75.58272 
L 74.482036 75.58272 
L 74.482036 75.66336 
L 74.373818 83.08224 
L 74.2656 83.08224 
L 74.2656 83.16288 
L 74.157382 91.79136 
L 74.049164 91.79136 
L 74.049164 91.872 
L 73.940945 113.88672 
L 73.832727 113.88672 
L 73.832727 113.96736 
L 73.832727 295.488 
L 73.832727 295.488 
" style="fill:none;stroke:#ff7f0e;stroke-linecap:square;stroke-width:1.5;"/>
   </g>
   <g id="patch_3">
    <path d="M 57.6 307.584 
L 57.6 41.472 
" style="fill:none;stroke:#000000;stroke-linecap:square;stroke-linejoin:miter;stroke-width:0.8;"/>
   </g>
   <g id="patch_4">
    <path d="M 414.72 307.584 
L 414.72 41.472 
" style="fill:none;stroke:#000000;stroke-linecap:square;stroke-linejoin:miter;stroke-width:0.8;"/>
   </g>
   <g id="patch_5">
    <path d="M 57.6 307.584 
L 414.72 307.584 
" style="fill:none;stroke:#000000;stroke-linecap:square;stroke-linejoin:miter;stroke-width:0.8;"/>
   </g>
   <g id="patch_6">
    <path d="M 57.6 41.472 
L 414.72 41.472 
" style="fill:none;stroke:#000000;stroke-linecap:square;stroke-linejoin:miter;stroke-width:0.8;"/>
   </g>
   <g id="text_13">
    <!-- WLR_GMM -->
    <g transform="translate(204.7125 35.472)scale(0.12 -0.12)">
     <defs>
      <path d="M 213 4666 
L 850 4666 
L 1831 722 
L 2809 4666 
L 3519 4666 
L 4500 722 
L 5478 4666 
L 6119 4666 
L 4947 0 
L 4153 0 
L 3169 4050 
L 2175 0 
L 1381 0 
L 213 4666 
z
" id="DejaVuSans-57" transform="scale(0.015625)"/>
      <path d="M 628 4666 
L 1259 4666 
L 1259 531 
L 3531 531 
L 3531 0 
L 628 0 
L 628 4666 
z
" id="DejaVuSans-4c" transform="scale(0.015625)"/>
      <path d="M 2841 2188 
Q 3044 2119 3236 1894 
Q 3428 1669 3622 1275 
L 4263 0 
L 3584 0 
L 2988 1197 
Q 2756 1666 2539 1819 
Q 2322 1972 1947 1972 
L 1259 1972 
L 1259 0 
L 628 0 
L 628 4666 
L 2053 4666 
Q 2853 4666 3247 4331 
Q 3641 3997 3641 3322 
Q 3641 2881 3436 2590 
Q 3231 2300 2841 2188 
z
M 1259 4147 
L 1259 2491 
L 2053 2491 
Q 2509 2491 2742 2702 
Q 2975 2913 2975 3322 
Q 2975 3731 2742 3939 
Q 2509 4147 2053 4147 
L 1259 4147 
z
" id="DejaVuSans-52" transform="scale(0.015625)"/>
      <path d="M 3263 -1063 
L 3263 -1509 
L -63 -1509 
L -63 -1063 
L 3263 -1063 
z
" id="DejaVuSans-5f" transform="scale(0.015625)"/>
      <path d="M 3809 666 
L 3809 1919 
L 2778 1919 
L 2778 2438 
L 4434 2438 
L 4434 434 
Q 4069 175 3628 42 
Q 3188 -91 2688 -91 
Q 1594 -91 976 548 
Q 359 1188 359 2328 
Q 359 3472 976 4111 
Q 1594 4750 2688 4750 
Q 3144 4750 3555 4637 
Q 3966 4525 4313 4306 
L 4313 3634 
Q 3963 3931 3569 4081 
Q 3175 4231 2741 4231 
Q 1884 4231 1454 3753 
Q 1025 3275 1025 2328 
Q 1025 1384 1454 906 
Q 1884 428 2741 428 
Q 3075 428 3337 486 
Q 3600 544 3809 666 
z
" id="DejaVuSans-47" transform="scale(0.015625)"/>
      <path d="M 628 4666 
L 1569 4666 
L 2759 1491 
L 3956 4666 
L 4897 4666 
L 4897 0 
L 4281 0 
L 4281 4097 
L 3078 897 
L 2444 897 
L 1241 4097 
L 1241 0 
L 628 0 
L 628 4666 
z
" id="DejaVuSans-4d" transform="scale(0.015625)"/>
     </defs>
     <use xlink:href="#DejaVuSans-57"/>
     <use x="98.876953" xlink:href="#DejaVuSans-4c"/>
     <use x="154.589844" xlink:href="#DejaVuSans-52"/>
     <use x="224.072266" xlink:href="#DejaVuSans-5f"/>
     <use x="274.072266" xlink:href="#DejaVuSans-47"/>
     <use x="351.5625" xlink:href="#DejaVuSans-4d"/>
     <use x="437.841797" xlink:href="#DejaVuSans-4d"/>
    </g>
   </g>
   <g id="legend_1">
    <g id="patch_7">
     <path d="M 322.98875 302.584 
L 407.72 302.584 
Q 409.72 302.584 409.72 300.584 
L 409.72 271.6715 
Q 409.72 269.6715 407.72 269.6715 
L 322.98875 269.6715 
Q 320.98875 269.6715 320.98875 271.6715 
L 320.98875 300.584 
Q 320.98875 302.584 322.98875 302.584 
z
" style="fill:#ffffff;opacity:0.8;stroke:#cccccc;stroke-linejoin:miter;"/>
    </g>
    <g id="line2d_15">
     <path d="M 324.98875 277.769937 
L 344.98875 277.769937 
" style="fill:none;stroke:#1f77b4;stroke-linecap:square;stroke-width:1.5;"/>
    </g>
    <g id="line2d_16"/>
    <g id="text_14">
     <!-- WLR_RAW -->
     <g transform="translate(352.98875 281.269937)scale(0.1 -0.1)">
      <defs>
       <path d="M 2188 4044 
L 1331 1722 
L 3047 1722 
L 2188 4044 
z
M 1831 4666 
L 2547 4666 
L 4325 0 
L 3669 0 
L 3244 1197 
L 1141 1197 
L 716 0 
L 50 0 
L 1831 4666 
z
" id="DejaVuSans-41" transform="scale(0.015625)"/>
      </defs>
      <use xlink:href="#DejaVuSans-57"/>
      <use x="98.876953" xlink:href="#DejaVuSans-4c"/>
      <use x="154.589844" xlink:href="#DejaVuSans-52"/>
      <use x="224.072266" xlink:href="#DejaVuSans-5f"/>
      <use x="274.072266" xlink:href="#DejaVuSans-52"/>
      <use x="339.554688" xlink:href="#DejaVuSans-41"/>
      <use x="402.462891" xlink:href="#DejaVuSans-57"/>
     </g>
    </g>
    <g id="line2d_17">
     <path d="M 324.98875 292.726187 
L 344.98875 292.726187 
" style="fill:none;stroke:#ff7f0e;stroke-linecap:square;stroke-width:1.5;"/>
    </g>
    <g id="line2d_18"/>
    <g id="text_15">
     <!-- GMM_RAW -->
     <g transform="translate(352.98875 296.226187)scale(0.1 -0.1)">
      <use xlink:href="#DejaVuSans-47"/>
      <use x="77.490234" xlink:href="#DejaVuSans-4d"/>
      <use x="163.769531" xlink:href="#DejaVuSans-4d"/>
      <use x="250.048828" xlink:href="#DejaVuSans-5f"/>
      <use x="300.048828" xlink:href="#DejaVuSans-52"/>
      <use x="365.53125" xlink:href="#DejaVuSans-41"/>
      <use x="428.439453" xlink:href="#DejaVuSans-57"/>
     </g>
    </g>
   </g>
  </g>
 </g>
 <defs>
  <clipPath id="p539f20253d">
   <rect height="266.112" width="357.12" x="57.6" y="41.472"/>
  </clipPath>
 </defs>
</svg>
