<?xml version="1.0" encoding="utf-8" standalone="no"?>
<!DOCTYPE svg PUBLIC "-//W3C//DTD SVG 1.1//EN"
  "http://www.w3.org/Graphics/SVG/1.1/DTD/svg11.dtd">
<svg height="345.6pt" version="1.1" viewBox="0 0 460.8 345.6" width="460.8pt" xmlns="http://www.w3.org/2000/svg" xmlns:xlink="http://www.w3.org/1999/xlink">
 <metadata>
  <rdf:RDF xmlns:cc="http://creativecommons.org/ns#" xmlns:dc="http://purl.org/dc/elements/1.1/" xmlns:rdf="http://www.w3.org/1999/02/22-rdf-syntax-ns#">
   <cc:Work>
    <dc:type rdf:resource="http://purl.org/dc/dcmitype/StillImage"/>
    <dc:date>2022-09-01T23:26:06.891840</dc:date>
    <dc:format>image/svg+xml</dc:format>
    <dc:creator>
     <cc:Agent>
      <dc:title>Matplotlib v3.4.3, https://matplotlib.org/</dc:title>
     </cc:Agent>
    </dc:creator>
   </cc:Work>
  </rdf:RDF>
 </metadata>
 <defs>
  <style type="text/css">*{stroke-linecap:butt;stroke-linejoin:round;}</style>
 </defs>
 <g id="figure_1">
  <g id="patch_1">
   <path d="M 0 345.6 
L 460.8 345.6 
L 460.8 0 
L 0 0 
z
" style="fill:#ffffff;"/>
  </g>
  <g id="axes_1">
   <g id="patch_2">
    <path d="M 103.104 307.584 
L 369.216 307.584 
L 369.216 41.472 
L 103.104 41.472 
z
" style="fill:#eaeaf2;"/>
   </g>
   <g id="matplotlib.axis_1">
    <g id="xtick_1">
     <g id="text_1">
      <!-- 0 -->
      <g style="fill:#262626;" transform="translate(111.133484 324.957594)scale(0.11 -0.11)">
       <defs>
        <path d="M 266 2259 
Q 266 3072 433 3567 
Q 600 4063 929 4331 
Q 1259 4600 1759 4600 
Q 2128 4600 2406 4451 
Q 2684 4303 2865 4023 
Q 3047 3744 3150 3342 
Q 3253 2941 3253 2259 
Q 3253 1453 3087 958 
Q 2922 463 2592 192 
Q 2263 -78 1759 -78 
Q 1097 -78 719 397 
Q 266 969 266 2259 
z
M 844 2259 
Q 844 1131 1108 757 
Q 1372 384 1759 384 
Q 2147 384 2411 759 
Q 2675 1134 2675 2259 
Q 2675 3391 2411 3762 
Q 2147 4134 1753 4134 
Q 1366 4134 1134 3806 
Q 844 3388 844 2259 
z
" id="ArialMT-30" transform="scale(0.015625)"/>
       </defs>
       <use xlink:href="#ArialMT-30"/>
      </g>
     </g>
    </g>
    <g id="xtick_2">
     <g id="text_2">
      <!-- 1 -->
      <g style="fill:#262626;" transform="translate(133.309484 324.957594)scale(0.11 -0.11)">
       <defs>
        <path d="M 2384 0 
L 1822 0 
L 1822 3584 
Q 1619 3391 1289 3197 
Q 959 3003 697 2906 
L 697 3450 
Q 1169 3672 1522 3987 
Q 1875 4303 2022 4600 
L 2384 4600 
L 2384 0 
z
" id="ArialMT-31" transform="scale(0.015625)"/>
       </defs>
       <use xlink:href="#ArialMT-31"/>
      </g>
     </g>
    </g>
    <g id="xtick_3">
     <g id="text_3">
      <!-- 2 -->
      <g style="fill:#262626;" transform="translate(155.485484 324.957594)scale(0.11 -0.11)">
       <defs>
        <path d="M 3222 541 
L 3222 0 
L 194 0 
Q 188 203 259 391 
Q 375 700 629 1000 
Q 884 1300 1366 1694 
Q 2113 2306 2375 2664 
Q 2638 3022 2638 3341 
Q 2638 3675 2398 3904 
Q 2159 4134 1775 4134 
Q 1369 4134 1125 3890 
Q 881 3647 878 3216 
L 300 3275 
Q 359 3922 746 4261 
Q 1134 4600 1788 4600 
Q 2447 4600 2831 4234 
Q 3216 3869 3216 3328 
Q 3216 3053 3103 2787 
Q 2991 2522 2730 2228 
Q 2469 1934 1863 1422 
Q 1356 997 1212 845 
Q 1069 694 975 541 
L 3222 541 
z
" id="ArialMT-32" transform="scale(0.015625)"/>
       </defs>
       <use xlink:href="#ArialMT-32"/>
      </g>
     </g>
    </g>
    <g id="xtick_4">
     <g id="text_4">
      <!-- 3 -->
      <g style="fill:#262626;" transform="translate(177.661484 324.957594)scale(0.11 -0.11)">
       <defs>
        <path d="M 269 1209 
L 831 1284 
Q 928 806 1161 595 
Q 1394 384 1728 384 
Q 2125 384 2398 659 
Q 2672 934 2672 1341 
Q 2672 1728 2419 1979 
Q 2166 2231 1775 2231 
Q 1616 2231 1378 2169 
L 1441 2663 
Q 1497 2656 1531 2656 
Q 1891 2656 2178 2843 
Q 2466 3031 2466 3422 
Q 2466 3731 2256 3934 
Q 2047 4138 1716 4138 
Q 1388 4138 1169 3931 
Q 950 3725 888 3313 
L 325 3413 
Q 428 3978 793 4289 
Q 1159 4600 1703 4600 
Q 2078 4600 2393 4439 
Q 2709 4278 2876 4000 
Q 3044 3722 3044 3409 
Q 3044 3113 2884 2869 
Q 2725 2625 2413 2481 
Q 2819 2388 3044 2092 
Q 3269 1797 3269 1353 
Q 3269 753 2831 336 
Q 2394 -81 1725 -81 
Q 1122 -81 723 278 
Q 325 638 269 1209 
z
" id="ArialMT-33" transform="scale(0.015625)"/>
       </defs>
       <use xlink:href="#ArialMT-33"/>
      </g>
     </g>
    </g>
    <g id="xtick_5">
     <g id="text_5">
      <!-- 4 -->
      <g style="fill:#262626;" transform="translate(199.837484 324.957594)scale(0.11 -0.11)">
       <defs>
        <path d="M 2069 0 
L 2069 1097 
L 81 1097 
L 81 1613 
L 2172 4581 
L 2631 4581 
L 2631 1613 
L 3250 1613 
L 3250 1097 
L 2631 1097 
L 2631 0 
L 2069 0 
z
M 2069 1613 
L 2069 3678 
L 634 1613 
L 2069 1613 
z
" id="ArialMT-34" transform="scale(0.015625)"/>
       </defs>
       <use xlink:href="#ArialMT-34"/>
      </g>
     </g>
    </g>
    <g id="xtick_6">
     <g id="text_6">
      <!-- 5 -->
      <g style="fill:#262626;" transform="translate(222.013484 324.957594)scale(0.11 -0.11)">
       <defs>
        <path d="M 266 1200 
L 856 1250 
Q 922 819 1161 601 
Q 1400 384 1738 384 
Q 2144 384 2425 690 
Q 2706 997 2706 1503 
Q 2706 1984 2436 2262 
Q 2166 2541 1728 2541 
Q 1456 2541 1237 2417 
Q 1019 2294 894 2097 
L 366 2166 
L 809 4519 
L 3088 4519 
L 3088 3981 
L 1259 3981 
L 1013 2750 
Q 1425 3038 1878 3038 
Q 2478 3038 2890 2622 
Q 3303 2206 3303 1553 
Q 3303 931 2941 478 
Q 2500 -78 1738 -78 
Q 1113 -78 717 272 
Q 322 622 266 1200 
z
" id="ArialMT-35" transform="scale(0.015625)"/>
       </defs>
       <use xlink:href="#ArialMT-35"/>
      </g>
     </g>
    </g>
    <g id="xtick_7">
     <g id="text_7">
      <!-- 6 -->
      <g style="fill:#262626;" transform="translate(244.189484 324.957594)scale(0.11 -0.11)">
       <defs>
        <path d="M 3184 3459 
L 2625 3416 
Q 2550 3747 2413 3897 
Q 2184 4138 1850 4138 
Q 1581 4138 1378 3988 
Q 1113 3794 959 3422 
Q 806 3050 800 2363 
Q 1003 2672 1297 2822 
Q 1591 2972 1913 2972 
Q 2475 2972 2870 2558 
Q 3266 2144 3266 1488 
Q 3266 1056 3080 686 
Q 2894 316 2569 119 
Q 2244 -78 1831 -78 
Q 1128 -78 684 439 
Q 241 956 241 2144 
Q 241 3472 731 4075 
Q 1159 4600 1884 4600 
Q 2425 4600 2770 4297 
Q 3116 3994 3184 3459 
z
M 888 1484 
Q 888 1194 1011 928 
Q 1134 663 1356 523 
Q 1578 384 1822 384 
Q 2178 384 2434 671 
Q 2691 959 2691 1453 
Q 2691 1928 2437 2201 
Q 2184 2475 1800 2475 
Q 1419 2475 1153 2201 
Q 888 1928 888 1484 
z
" id="ArialMT-36" transform="scale(0.015625)"/>
       </defs>
       <use xlink:href="#ArialMT-36"/>
      </g>
     </g>
    </g>
    <g id="xtick_8">
     <g id="text_8">
      <!-- 7 -->
      <g style="fill:#262626;" transform="translate(266.365484 324.957594)scale(0.11 -0.11)">
       <defs>
        <path d="M 303 3981 
L 303 4522 
L 3269 4522 
L 3269 4084 
Q 2831 3619 2401 2847 
Q 1972 2075 1738 1259 
Q 1569 684 1522 0 
L 944 0 
Q 953 541 1156 1306 
Q 1359 2072 1739 2783 
Q 2119 3494 2547 3981 
L 303 3981 
z
" id="ArialMT-37" transform="scale(0.015625)"/>
       </defs>
       <use xlink:href="#ArialMT-37"/>
      </g>
     </g>
    </g>
    <g id="xtick_9">
     <g id="text_9">
      <!-- 8 -->
      <g style="fill:#262626;" transform="translate(288.541484 324.957594)scale(0.11 -0.11)">
       <defs>
        <path d="M 1131 2484 
Q 781 2613 612 2850 
Q 444 3088 444 3419 
Q 444 3919 803 4259 
Q 1163 4600 1759 4600 
Q 2359 4600 2725 4251 
Q 3091 3903 3091 3403 
Q 3091 3084 2923 2848 
Q 2756 2613 2416 2484 
Q 2838 2347 3058 2040 
Q 3278 1734 3278 1309 
Q 3278 722 2862 322 
Q 2447 -78 1769 -78 
Q 1091 -78 675 323 
Q 259 725 259 1325 
Q 259 1772 486 2073 
Q 713 2375 1131 2484 
z
M 1019 3438 
Q 1019 3113 1228 2906 
Q 1438 2700 1772 2700 
Q 2097 2700 2305 2904 
Q 2513 3109 2513 3406 
Q 2513 3716 2298 3927 
Q 2084 4138 1766 4138 
Q 1444 4138 1231 3931 
Q 1019 3725 1019 3438 
z
M 838 1322 
Q 838 1081 952 856 
Q 1066 631 1291 507 
Q 1516 384 1775 384 
Q 2178 384 2440 643 
Q 2703 903 2703 1303 
Q 2703 1709 2433 1975 
Q 2163 2241 1756 2241 
Q 1359 2241 1098 1978 
Q 838 1716 838 1322 
z
" id="ArialMT-38" transform="scale(0.015625)"/>
       </defs>
       <use xlink:href="#ArialMT-38"/>
      </g>
     </g>
    </g>
    <g id="xtick_10">
     <g id="text_10">
      <!-- 9 -->
      <g style="fill:#262626;" transform="translate(310.717484 324.957594)scale(0.11 -0.11)">
       <defs>
        <path d="M 350 1059 
L 891 1109 
Q 959 728 1153 556 
Q 1347 384 1650 384 
Q 1909 384 2104 503 
Q 2300 622 2425 820 
Q 2550 1019 2634 1356 
Q 2719 1694 2719 2044 
Q 2719 2081 2716 2156 
Q 2547 1888 2255 1720 
Q 1963 1553 1622 1553 
Q 1053 1553 659 1965 
Q 266 2378 266 3053 
Q 266 3750 677 4175 
Q 1088 4600 1706 4600 
Q 2153 4600 2523 4359 
Q 2894 4119 3086 3673 
Q 3278 3228 3278 2384 
Q 3278 1506 3087 986 
Q 2897 466 2520 194 
Q 2144 -78 1638 -78 
Q 1100 -78 759 220 
Q 419 519 350 1059 
z
M 2653 3081 
Q 2653 3566 2395 3850 
Q 2138 4134 1775 4134 
Q 1400 4134 1122 3828 
Q 844 3522 844 3034 
Q 844 2597 1108 2323 
Q 1372 2050 1759 2050 
Q 2150 2050 2401 2323 
Q 2653 2597 2653 3081 
z
" id="ArialMT-39" transform="scale(0.015625)"/>
       </defs>
       <use xlink:href="#ArialMT-39"/>
      </g>
     </g>
    </g>
    <g id="xtick_11">
     <g id="text_11">
      <!-- 10 -->
      <g style="fill:#262626;" transform="translate(329.834969 324.957594)scale(0.11 -0.11)">
       <use xlink:href="#ArialMT-31"/>
       <use x="55.615234" xlink:href="#ArialMT-30"/>
      </g>
     </g>
    </g>
    <g id="xtick_12">
     <g id="text_12">
      <!-- 11 -->
      <g style="fill:#262626;" transform="translate(352.416594 324.957594)scale(0.11 -0.11)">
       <use xlink:href="#ArialMT-31"/>
       <use x="48.240234" xlink:href="#ArialMT-31"/>
      </g>
     </g>
    </g>
   </g>
   <g id="matplotlib.axis_2">
    <g id="ytick_1">
     <g id="text_13">
      <!-- 0 -->
      <g style="fill:#262626;" transform="translate(91.41775 55.618516)rotate(-90)scale(0.11 -0.11)">
       <use xlink:href="#ArialMT-30"/>
      </g>
     </g>
    </g>
    <g id="ytick_2">
     <g id="text_14">
      <!-- 1 -->
      <g style="fill:#262626;" transform="translate(91.41775 77.794516)rotate(-90)scale(0.11 -0.11)">
       <use xlink:href="#ArialMT-31"/>
      </g>
     </g>
    </g>
    <g id="ytick_3">
     <g id="text_15">
      <!-- 2 -->
      <g style="fill:#262626;" transform="translate(91.41775 99.970516)rotate(-90)scale(0.11 -0.11)">
       <use xlink:href="#ArialMT-32"/>
      </g>
     </g>
    </g>
    <g id="ytick_4">
     <g id="text_16">
      <!-- 3 -->
      <g style="fill:#262626;" transform="translate(91.41775 122.146516)rotate(-90)scale(0.11 -0.11)">
       <use xlink:href="#ArialMT-33"/>
      </g>
     </g>
    </g>
    <g id="ytick_5">
     <g id="text_17">
      <!-- 4 -->
      <g style="fill:#262626;" transform="translate(91.41775 144.322516)rotate(-90)scale(0.11 -0.11)">
       <use xlink:href="#ArialMT-34"/>
      </g>
     </g>
    </g>
    <g id="ytick_6">
     <g id="text_18">
      <!-- 5 -->
      <g style="fill:#262626;" transform="translate(91.41775 166.498516)rotate(-90)scale(0.11 -0.11)">
       <use xlink:href="#ArialMT-35"/>
      </g>
     </g>
    </g>
    <g id="ytick_7">
     <g id="text_19">
      <!-- 6 -->
      <g style="fill:#262626;" transform="translate(91.41775 188.674516)rotate(-90)scale(0.11 -0.11)">
       <use xlink:href="#ArialMT-36"/>
      </g>
     </g>
    </g>
    <g id="ytick_8">
     <g id="text_20">
      <!-- 7 -->
      <g style="fill:#262626;" transform="translate(91.41775 210.850516)rotate(-90)scale(0.11 -0.11)">
       <use xlink:href="#ArialMT-37"/>
      </g>
     </g>
    </g>
    <g id="ytick_9">
     <g id="text_21">
      <!-- 8 -->
      <g style="fill:#262626;" transform="translate(91.41775 233.026516)rotate(-90)scale(0.11 -0.11)">
       <use xlink:href="#ArialMT-38"/>
      </g>
     </g>
    </g>
    <g id="ytick_10">
     <g id="text_22">
      <!-- 9 -->
      <g style="fill:#262626;" transform="translate(91.41775 255.202516)rotate(-90)scale(0.11 -0.11)">
       <use xlink:href="#ArialMT-39"/>
      </g>
     </g>
    </g>
    <g id="ytick_11">
     <g id="text_23">
      <!-- 10 -->
      <g style="fill:#262626;" transform="translate(91.41775 280.437031)rotate(-90)scale(0.11 -0.11)">
       <use xlink:href="#ArialMT-31"/>
       <use x="55.615234" xlink:href="#ArialMT-30"/>
      </g>
     </g>
    </g>
    <g id="ytick_12">
     <g id="text_24">
      <!-- 11 -->
      <g style="fill:#262626;" transform="translate(91.41775 302.207406)rotate(-90)scale(0.11 -0.11)">
       <use xlink:href="#ArialMT-31"/>
       <use x="48.240234" xlink:href="#ArialMT-31"/>
      </g>
     </g>
    </g>
   </g>
   <g id="QuadMesh_1">
    <path clip-path="url(#p1678aaa11d)" d="M 103.104 41.472 
L 125.28 41.472 
L 125.28 63.648 
L 103.104 63.648 
L 103.104 41.472 
" style="stroke:#ffffff;stroke-width:0.2;"/>
    <path clip-path="url(#p1678aaa11d)" d="M 125.28 41.472 
L 147.456 41.472 
L 147.456 63.648 
L 125.28 63.648 
L 125.28 41.472 
" style="fill:#fdfdfd;stroke:#ffffff;stroke-width:0.2;"/>
    <path clip-path="url(#p1678aaa11d)" d="M 147.456 41.472 
L 169.632 41.472 
L 169.632 63.648 
L 147.456 63.648 
L 147.456 41.472 
" style="fill:#3c3c3c;stroke:#ffffff;stroke-width:0.2;"/>
    <path clip-path="url(#p1678aaa11d)" d="M 169.632 41.472 
L 191.808 41.472 
L 191.808 63.648 
L 169.632 63.648 
L 169.632 41.472 
" style="fill:#1f1f1f;stroke:#ffffff;stroke-width:0.2;"/>
    <path clip-path="url(#p1678aaa11d)" d="M 191.808 41.472 
L 213.984 41.472 
L 213.984 63.648 
L 191.808 63.648 
L 191.808 41.472 
" style="fill:#a2a2a2;stroke:#ffffff;stroke-width:0.2;"/>
    <path clip-path="url(#p1678aaa11d)" d="M 213.984 41.472 
L 236.16 41.472 
L 236.16 63.648 
L 213.984 63.648 
L 213.984 41.472 
" style="fill:#949494;stroke:#ffffff;stroke-width:0.2;"/>
    <path clip-path="url(#p1678aaa11d)" d="M 236.16 41.472 
L 258.336 41.472 
L 258.336 63.648 
L 236.16 63.648 
L 236.16 41.472 
" style="fill:#686868;stroke:#ffffff;stroke-width:0.2;"/>
    <path clip-path="url(#p1678aaa11d)" d="M 258.336 41.472 
L 280.512 41.472 
L 280.512 63.648 
L 258.336 63.648 
L 258.336 41.472 
" style="fill:#2f2f2f;stroke:#ffffff;stroke-width:0.2;"/>
    <path clip-path="url(#p1678aaa11d)" d="M 280.512 41.472 
L 302.688 41.472 
L 302.688 63.648 
L 280.512 63.648 
L 280.512 41.472 
" style="fill:#828282;stroke:#ffffff;stroke-width:0.2;"/>
    <path clip-path="url(#p1678aaa11d)" d="M 302.688 41.472 
L 324.864 41.472 
L 324.864 63.648 
L 302.688 63.648 
L 302.688 41.472 
" style="fill:#292929;stroke:#ffffff;stroke-width:0.2;"/>
    <path clip-path="url(#p1678aaa11d)" d="M 324.864 41.472 
L 347.04 41.472 
L 347.04 63.648 
L 324.864 63.648 
L 324.864 41.472 
" style="fill:#414141;stroke:#ffffff;stroke-width:0.2;"/>
    <path clip-path="url(#p1678aaa11d)" d="M 347.04 41.472 
L 369.216 41.472 
L 369.216 63.648 
L 347.04 63.648 
L 347.04 41.472 
" style="fill:#383838;stroke:#ffffff;stroke-width:0.2;"/>
    <path clip-path="url(#p1678aaa11d)" d="M 103.104 63.648 
L 125.28 63.648 
L 125.28 85.824 
L 103.104 85.824 
L 103.104 63.648 
" style="fill:#fdfdfd;stroke:#ffffff;stroke-width:0.2;"/>
    <path clip-path="url(#p1678aaa11d)" d="M 125.28 63.648 
L 147.456 63.648 
L 147.456 85.824 
L 125.28 85.824 
L 125.28 63.648 
" style="stroke:#ffffff;stroke-width:0.2;"/>
    <path clip-path="url(#p1678aaa11d)" d="M 147.456 63.648 
L 169.632 63.648 
L 169.632 85.824 
L 147.456 85.824 
L 147.456 63.648 
" style="fill:#fbfbfb;stroke:#ffffff;stroke-width:0.2;"/>
    <path clip-path="url(#p1678aaa11d)" d="M 169.632 63.648 
L 191.808 63.648 
L 191.808 85.824 
L 169.632 85.824 
L 169.632 63.648 
" style="fill:#e7e7e7;stroke:#ffffff;stroke-width:0.2;"/>
    <path clip-path="url(#p1678aaa11d)" d="M 191.808 63.648 
L 213.984 63.648 
L 213.984 85.824 
L 191.808 85.824 
L 191.808 63.648 
" style="fill:#dadada;stroke:#ffffff;stroke-width:0.2;"/>
    <path clip-path="url(#p1678aaa11d)" d="M 213.984 63.648 
L 236.16 63.648 
L 236.16 85.824 
L 213.984 85.824 
L 213.984 63.648 
" style="fill:#e5e5e5;stroke:#ffffff;stroke-width:0.2;"/>
    <path clip-path="url(#p1678aaa11d)" d="M 236.16 63.648 
L 258.336 63.648 
L 258.336 85.824 
L 236.16 85.824 
L 236.16 63.648 
" style="fill:#ffffff;stroke:#ffffff;stroke-width:0.2;"/>
    <path clip-path="url(#p1678aaa11d)" d="M 258.336 63.648 
L 280.512 63.648 
L 280.512 85.824 
L 258.336 85.824 
L 258.336 63.648 
" style="fill:#f3f3f3;stroke:#ffffff;stroke-width:0.2;"/>
    <path clip-path="url(#p1678aaa11d)" d="M 280.512 63.648 
L 302.688 63.648 
L 302.688 85.824 
L 280.512 85.824 
L 280.512 63.648 
" style="fill:#f7f7f7;stroke:#ffffff;stroke-width:0.2;"/>
    <path clip-path="url(#p1678aaa11d)" d="M 302.688 63.648 
L 324.864 63.648 
L 324.864 85.824 
L 302.688 85.824 
L 302.688 63.648 
" style="fill:#eeeeee;stroke:#ffffff;stroke-width:0.2;"/>
    <path clip-path="url(#p1678aaa11d)" d="M 324.864 63.648 
L 347.04 63.648 
L 347.04 85.824 
L 324.864 85.824 
L 324.864 63.648 
" style="fill:#f7f7f7;stroke:#ffffff;stroke-width:0.2;"/>
    <path clip-path="url(#p1678aaa11d)" d="M 347.04 63.648 
L 369.216 63.648 
L 369.216 85.824 
L 347.04 85.824 
L 347.04 63.648 
" style="fill:#e6e6e6;stroke:#ffffff;stroke-width:0.2;"/>
    <path clip-path="url(#p1678aaa11d)" d="M 103.104 85.824 
L 125.28 85.824 
L 125.28 108 
L 103.104 108 
L 103.104 85.824 
" style="fill:#3c3c3c;stroke:#ffffff;stroke-width:0.2;"/>
    <path clip-path="url(#p1678aaa11d)" d="M 125.28 85.824 
L 147.456 85.824 
L 147.456 108 
L 125.28 108 
L 125.28 85.824 
" style="fill:#fbfbfb;stroke:#ffffff;stroke-width:0.2;"/>
    <path clip-path="url(#p1678aaa11d)" d="M 147.456 85.824 
L 169.632 85.824 
L 169.632 108 
L 147.456 108 
L 147.456 85.824 
" style="stroke:#ffffff;stroke-width:0.2;"/>
    <path clip-path="url(#p1678aaa11d)" d="M 169.632 85.824 
L 191.808 85.824 
L 191.808 108 
L 169.632 108 
L 169.632 85.824 
" style="fill:#1c1c1c;stroke:#ffffff;stroke-width:0.2;"/>
    <path clip-path="url(#p1678aaa11d)" d="M 191.808 85.824 
L 213.984 85.824 
L 213.984 108 
L 191.808 108 
L 191.808 85.824 
" style="fill:#afafaf;stroke:#ffffff;stroke-width:0.2;"/>
    <path clip-path="url(#p1678aaa11d)" d="M 213.984 85.824 
L 236.16 85.824 
L 236.16 108 
L 213.984 108 
L 213.984 85.824 
" style="fill:#979797;stroke:#ffffff;stroke-width:0.2;"/>
    <path clip-path="url(#p1678aaa11d)" d="M 236.16 85.824 
L 258.336 85.824 
L 258.336 108 
L 236.16 108 
L 236.16 85.824 
" style="fill:#434343;stroke:#ffffff;stroke-width:0.2;"/>
    <path clip-path="url(#p1678aaa11d)" d="M 258.336 85.824 
L 280.512 85.824 
L 280.512 108 
L 258.336 108 
L 258.336 85.824 
" style="fill:#292929;stroke:#ffffff;stroke-width:0.2;"/>
    <path clip-path="url(#p1678aaa11d)" d="M 280.512 85.824 
L 302.688 85.824 
L 302.688 108 
L 280.512 108 
L 280.512 85.824 
" style="fill:#5b5b5b;stroke:#ffffff;stroke-width:0.2;"/>
    <path clip-path="url(#p1678aaa11d)" d="M 302.688 85.824 
L 324.864 85.824 
L 324.864 108 
L 302.688 108 
L 302.688 85.824 
" style="fill:#282828;stroke:#ffffff;stroke-width:0.2;"/>
    <path clip-path="url(#p1678aaa11d)" d="M 324.864 85.824 
L 347.04 85.824 
L 347.04 108 
L 324.864 108 
L 324.864 85.824 
" style="fill:#363636;stroke:#ffffff;stroke-width:0.2;"/>
    <path clip-path="url(#p1678aaa11d)" d="M 347.04 85.824 
L 369.216 85.824 
L 369.216 108 
L 347.04 108 
L 347.04 85.824 
" style="fill:#525252;stroke:#ffffff;stroke-width:0.2;"/>
    <path clip-path="url(#p1678aaa11d)" d="M 103.104 108 
L 125.28 108 
L 125.28 130.176 
L 103.104 130.176 
L 103.104 108 
" style="fill:#1f1f1f;stroke:#ffffff;stroke-width:0.2;"/>
    <path clip-path="url(#p1678aaa11d)" d="M 125.28 108 
L 147.456 108 
L 147.456 130.176 
L 125.28 130.176 
L 125.28 108 
" style="fill:#e7e7e7;stroke:#ffffff;stroke-width:0.2;"/>
    <path clip-path="url(#p1678aaa11d)" d="M 147.456 108 
L 169.632 108 
L 169.632 130.176 
L 147.456 130.176 
L 147.456 108 
" style="fill:#1c1c1c;stroke:#ffffff;stroke-width:0.2;"/>
    <path clip-path="url(#p1678aaa11d)" d="M 169.632 108 
L 191.808 108 
L 191.808 130.176 
L 169.632 130.176 
L 169.632 108 
" style="stroke:#ffffff;stroke-width:0.2;"/>
    <path clip-path="url(#p1678aaa11d)" d="M 191.808 108 
L 213.984 108 
L 213.984 130.176 
L 191.808 130.176 
L 191.808 108 
" style="fill:#afafaf;stroke:#ffffff;stroke-width:0.2;"/>
    <path clip-path="url(#p1678aaa11d)" d="M 213.984 108 
L 236.16 108 
L 236.16 130.176 
L 213.984 130.176 
L 213.984 108 
" style="fill:#828282;stroke:#ffffff;stroke-width:0.2;"/>
    <path clip-path="url(#p1678aaa11d)" d="M 236.16 108 
L 258.336 108 
L 258.336 130.176 
L 236.16 130.176 
L 236.16 108 
" style="fill:#4b4b4b;stroke:#ffffff;stroke-width:0.2;"/>
    <path clip-path="url(#p1678aaa11d)" d="M 258.336 108 
L 280.512 108 
L 280.512 130.176 
L 258.336 130.176 
L 258.336 108 
" style="fill:#0f0f0f;stroke:#ffffff;stroke-width:0.2;"/>
    <path clip-path="url(#p1678aaa11d)" d="M 280.512 108 
L 302.688 108 
L 302.688 130.176 
L 280.512 130.176 
L 280.512 108 
" style="fill:#5d5d5d;stroke:#ffffff;stroke-width:0.2;"/>
    <path clip-path="url(#p1678aaa11d)" d="M 302.688 108 
L 324.864 108 
L 324.864 130.176 
L 302.688 130.176 
L 302.688 108 
" style="fill:#0d0d0d;stroke:#ffffff;stroke-width:0.2;"/>
    <path clip-path="url(#p1678aaa11d)" d="M 324.864 108 
L 347.04 108 
L 347.04 130.176 
L 324.864 130.176 
L 324.864 108 
" style="fill:#292929;stroke:#ffffff;stroke-width:0.2;"/>
    <path clip-path="url(#p1678aaa11d)" d="M 347.04 108 
L 369.216 108 
L 369.216 130.176 
L 347.04 130.176 
L 347.04 108 
" style="fill:#363636;stroke:#ffffff;stroke-width:0.2;"/>
    <path clip-path="url(#p1678aaa11d)" d="M 103.104 130.176 
L 125.28 130.176 
L 125.28 152.352 
L 103.104 152.352 
L 103.104 130.176 
" style="fill:#a2a2a2;stroke:#ffffff;stroke-width:0.2;"/>
    <path clip-path="url(#p1678aaa11d)" d="M 125.28 130.176 
L 147.456 130.176 
L 147.456 152.352 
L 125.28 152.352 
L 125.28 130.176 
" style="fill:#dadada;stroke:#ffffff;stroke-width:0.2;"/>
    <path clip-path="url(#p1678aaa11d)" d="M 147.456 130.176 
L 169.632 130.176 
L 169.632 152.352 
L 147.456 152.352 
L 147.456 130.176 
" style="fill:#afafaf;stroke:#ffffff;stroke-width:0.2;"/>
    <path clip-path="url(#p1678aaa11d)" d="M 169.632 130.176 
L 191.808 130.176 
L 191.808 152.352 
L 169.632 152.352 
L 169.632 130.176 
" style="fill:#afafaf;stroke:#ffffff;stroke-width:0.2;"/>
    <path clip-path="url(#p1678aaa11d)" d="M 191.808 130.176 
L 213.984 130.176 
L 213.984 152.352 
L 191.808 152.352 
L 191.808 130.176 
" style="stroke:#ffffff;stroke-width:0.2;"/>
    <path clip-path="url(#p1678aaa11d)" d="M 213.984 130.176 
L 236.16 130.176 
L 236.16 152.352 
L 213.984 152.352 
L 213.984 130.176 
" style="fill:#f6f6f6;stroke:#ffffff;stroke-width:0.2;"/>
    <path clip-path="url(#p1678aaa11d)" d="M 236.16 130.176 
L 258.336 130.176 
L 258.336 152.352 
L 236.16 152.352 
L 236.16 130.176 
" style="fill:#cccccc;stroke:#ffffff;stroke-width:0.2;"/>
    <path clip-path="url(#p1678aaa11d)" d="M 258.336 130.176 
L 280.512 130.176 
L 280.512 152.352 
L 258.336 152.352 
L 258.336 130.176 
" style="fill:#a7a7a7;stroke:#ffffff;stroke-width:0.2;"/>
    <path clip-path="url(#p1678aaa11d)" d="M 280.512 130.176 
L 302.688 130.176 
L 302.688 152.352 
L 280.512 152.352 
L 280.512 130.176 
" style="fill:#bebebe;stroke:#ffffff;stroke-width:0.2;"/>
    <path clip-path="url(#p1678aaa11d)" d="M 302.688 130.176 
L 324.864 130.176 
L 324.864 152.352 
L 302.688 152.352 
L 302.688 130.176 
" style="fill:#adadad;stroke:#ffffff;stroke-width:0.2;"/>
    <path clip-path="url(#p1678aaa11d)" d="M 324.864 130.176 
L 347.04 130.176 
L 347.04 152.352 
L 324.864 152.352 
L 324.864 130.176 
" style="fill:#b5b5b5;stroke:#ffffff;stroke-width:0.2;"/>
    <path clip-path="url(#p1678aaa11d)" d="M 347.04 130.176 
L 369.216 130.176 
L 369.216 152.352 
L 347.04 152.352 
L 347.04 130.176 
" style="fill:#a9a9a9;stroke:#ffffff;stroke-width:0.2;"/>
    <path clip-path="url(#p1678aaa11d)" d="M 103.104 152.352 
L 125.28 152.352 
L 125.28 174.528 
L 103.104 174.528 
L 103.104 152.352 
" style="fill:#949494;stroke:#ffffff;stroke-width:0.2;"/>
    <path clip-path="url(#p1678aaa11d)" d="M 125.28 152.352 
L 147.456 152.352 
L 147.456 174.528 
L 125.28 174.528 
L 125.28 152.352 
" style="fill:#e5e5e5;stroke:#ffffff;stroke-width:0.2;"/>
    <path clip-path="url(#p1678aaa11d)" d="M 147.456 152.352 
L 169.632 152.352 
L 169.632 174.528 
L 147.456 174.528 
L 147.456 152.352 
" style="fill:#979797;stroke:#ffffff;stroke-width:0.2;"/>
    <path clip-path="url(#p1678aaa11d)" d="M 169.632 152.352 
L 191.808 152.352 
L 191.808 174.528 
L 169.632 174.528 
L 169.632 152.352 
" style="fill:#828282;stroke:#ffffff;stroke-width:0.2;"/>
    <path clip-path="url(#p1678aaa11d)" d="M 191.808 152.352 
L 213.984 152.352 
L 213.984 174.528 
L 191.808 174.528 
L 191.808 152.352 
" style="fill:#f6f6f6;stroke:#ffffff;stroke-width:0.2;"/>
    <path clip-path="url(#p1678aaa11d)" d="M 213.984 152.352 
L 236.16 152.352 
L 236.16 174.528 
L 213.984 174.528 
L 213.984 152.352 
" style="stroke:#ffffff;stroke-width:0.2;"/>
    <path clip-path="url(#p1678aaa11d)" d="M 236.16 152.352 
L 258.336 152.352 
L 258.336 174.528 
L 236.16 174.528 
L 236.16 152.352 
" style="fill:#b5b5b5;stroke:#ffffff;stroke-width:0.2;"/>
    <path clip-path="url(#p1678aaa11d)" d="M 258.336 152.352 
L 280.512 152.352 
L 280.512 174.528 
L 258.336 174.528 
L 258.336 152.352 
" style="fill:#7e7e7e;stroke:#ffffff;stroke-width:0.2;"/>
    <path clip-path="url(#p1678aaa11d)" d="M 280.512 152.352 
L 302.688 152.352 
L 302.688 174.528 
L 280.512 174.528 
L 280.512 152.352 
" style="fill:#e2e2e2;stroke:#ffffff;stroke-width:0.2;"/>
    <path clip-path="url(#p1678aaa11d)" d="M 302.688 152.352 
L 324.864 152.352 
L 324.864 174.528 
L 302.688 174.528 
L 302.688 152.352 
" style="fill:#737373;stroke:#ffffff;stroke-width:0.2;"/>
    <path clip-path="url(#p1678aaa11d)" d="M 324.864 152.352 
L 347.04 152.352 
L 347.04 174.528 
L 324.864 174.528 
L 324.864 152.352 
" style="fill:#d2d2d2;stroke:#ffffff;stroke-width:0.2;"/>
    <path clip-path="url(#p1678aaa11d)" d="M 347.04 152.352 
L 369.216 152.352 
L 369.216 174.528 
L 347.04 174.528 
L 347.04 152.352 
" style="fill:#6c6c6c;stroke:#ffffff;stroke-width:0.2;"/>
    <path clip-path="url(#p1678aaa11d)" d="M 103.104 174.528 
L 125.28 174.528 
L 125.28 196.704 
L 103.104 196.704 
L 103.104 174.528 
" style="fill:#686868;stroke:#ffffff;stroke-width:0.2;"/>
    <path clip-path="url(#p1678aaa11d)" d="M 125.28 174.528 
L 147.456 174.528 
L 147.456 196.704 
L 125.28 196.704 
L 125.28 174.528 
" style="fill:#ffffff;stroke:#ffffff;stroke-width:0.2;"/>
    <path clip-path="url(#p1678aaa11d)" d="M 147.456 174.528 
L 169.632 174.528 
L 169.632 196.704 
L 147.456 196.704 
L 147.456 174.528 
" style="fill:#434343;stroke:#ffffff;stroke-width:0.2;"/>
    <path clip-path="url(#p1678aaa11d)" d="M 169.632 174.528 
L 191.808 174.528 
L 191.808 196.704 
L 169.632 196.704 
L 169.632 174.528 
" style="fill:#4b4b4b;stroke:#ffffff;stroke-width:0.2;"/>
    <path clip-path="url(#p1678aaa11d)" d="M 191.808 174.528 
L 213.984 174.528 
L 213.984 196.704 
L 191.808 196.704 
L 191.808 174.528 
" style="fill:#cccccc;stroke:#ffffff;stroke-width:0.2;"/>
    <path clip-path="url(#p1678aaa11d)" d="M 213.984 174.528 
L 236.16 174.528 
L 236.16 196.704 
L 213.984 196.704 
L 213.984 174.528 
" style="fill:#b5b5b5;stroke:#ffffff;stroke-width:0.2;"/>
    <path clip-path="url(#p1678aaa11d)" d="M 236.16 174.528 
L 258.336 174.528 
L 258.336 196.704 
L 236.16 196.704 
L 236.16 174.528 
" style="stroke:#ffffff;stroke-width:0.2;"/>
    <path clip-path="url(#p1678aaa11d)" d="M 258.336 174.528 
L 280.512 174.528 
L 280.512 196.704 
L 258.336 196.704 
L 258.336 174.528 
" style="fill:#434343;stroke:#ffffff;stroke-width:0.2;"/>
    <path clip-path="url(#p1678aaa11d)" d="M 280.512 174.528 
L 302.688 174.528 
L 302.688 196.704 
L 280.512 196.704 
L 280.512 174.528 
" style="fill:#8e8e8e;stroke:#ffffff;stroke-width:0.2;"/>
    <path clip-path="url(#p1678aaa11d)" d="M 302.688 174.528 
L 324.864 174.528 
L 324.864 196.704 
L 302.688 196.704 
L 302.688 174.528 
" style="fill:#676767;stroke:#ffffff;stroke-width:0.2;"/>
    <path clip-path="url(#p1678aaa11d)" d="M 324.864 174.528 
L 347.04 174.528 
L 347.04 196.704 
L 324.864 196.704 
L 324.864 174.528 
" style="fill:#393939;stroke:#ffffff;stroke-width:0.2;"/>
    <path clip-path="url(#p1678aaa11d)" d="M 347.04 174.528 
L 369.216 174.528 
L 369.216 196.704 
L 347.04 196.704 
L 347.04 174.528 
" style="fill:#818181;stroke:#ffffff;stroke-width:0.2;"/>
    <path clip-path="url(#p1678aaa11d)" d="M 103.104 196.704 
L 125.28 196.704 
L 125.28 218.88 
L 103.104 218.88 
L 103.104 196.704 
" style="fill:#2f2f2f;stroke:#ffffff;stroke-width:0.2;"/>
    <path clip-path="url(#p1678aaa11d)" d="M 125.28 196.704 
L 147.456 196.704 
L 147.456 218.88 
L 125.28 218.88 
L 125.28 196.704 
" style="fill:#f3f3f3;stroke:#ffffff;stroke-width:0.2;"/>
    <path clip-path="url(#p1678aaa11d)" d="M 147.456 196.704 
L 169.632 196.704 
L 169.632 218.88 
L 147.456 218.88 
L 147.456 196.704 
" style="fill:#292929;stroke:#ffffff;stroke-width:0.2;"/>
    <path clip-path="url(#p1678aaa11d)" d="M 169.632 196.704 
L 191.808 196.704 
L 191.808 218.88 
L 169.632 218.88 
L 169.632 196.704 
" style="fill:#0f0f0f;stroke:#ffffff;stroke-width:0.2;"/>
    <path clip-path="url(#p1678aaa11d)" d="M 191.808 196.704 
L 213.984 196.704 
L 213.984 218.88 
L 191.808 218.88 
L 191.808 196.704 
" style="fill:#a7a7a7;stroke:#ffffff;stroke-width:0.2;"/>
    <path clip-path="url(#p1678aaa11d)" d="M 213.984 196.704 
L 236.16 196.704 
L 236.16 218.88 
L 213.984 218.88 
L 213.984 196.704 
" style="fill:#7e7e7e;stroke:#ffffff;stroke-width:0.2;"/>
    <path clip-path="url(#p1678aaa11d)" d="M 236.16 196.704 
L 258.336 196.704 
L 258.336 218.88 
L 236.16 218.88 
L 236.16 196.704 
" style="fill:#434343;stroke:#ffffff;stroke-width:0.2;"/>
    <path clip-path="url(#p1678aaa11d)" d="M 258.336 196.704 
L 280.512 196.704 
L 280.512 218.88 
L 258.336 218.88 
L 258.336 196.704 
" style="stroke:#ffffff;stroke-width:0.2;"/>
    <path clip-path="url(#p1678aaa11d)" d="M 280.512 196.704 
L 302.688 196.704 
L 302.688 218.88 
L 280.512 218.88 
L 280.512 196.704 
" style="fill:#525252;stroke:#ffffff;stroke-width:0.2;"/>
    <path clip-path="url(#p1678aaa11d)" d="M 302.688 196.704 
L 324.864 196.704 
L 324.864 218.88 
L 302.688 218.88 
L 302.688 196.704 
" style="fill:#1e1e1e;stroke:#ffffff;stroke-width:0.2;"/>
    <path clip-path="url(#p1678aaa11d)" d="M 324.864 196.704 
L 347.04 196.704 
L 347.04 218.88 
L 324.864 218.88 
L 324.864 196.704 
" style="fill:#3f3f3f;stroke:#ffffff;stroke-width:0.2;"/>
    <path clip-path="url(#p1678aaa11d)" d="M 347.04 196.704 
L 369.216 196.704 
L 369.216 218.88 
L 347.04 218.88 
L 347.04 196.704 
" style="fill:#444444;stroke:#ffffff;stroke-width:0.2;"/>
    <path clip-path="url(#p1678aaa11d)" d="M 103.104 218.88 
L 125.28 218.88 
L 125.28 241.056 
L 103.104 241.056 
L 103.104 218.88 
" style="fill:#828282;stroke:#ffffff;stroke-width:0.2;"/>
    <path clip-path="url(#p1678aaa11d)" d="M 125.28 218.88 
L 147.456 218.88 
L 147.456 241.056 
L 125.28 241.056 
L 125.28 218.88 
" style="fill:#f7f7f7;stroke:#ffffff;stroke-width:0.2;"/>
    <path clip-path="url(#p1678aaa11d)" d="M 147.456 218.88 
L 169.632 218.88 
L 169.632 241.056 
L 147.456 241.056 
L 147.456 218.88 
" style="fill:#5b5b5b;stroke:#ffffff;stroke-width:0.2;"/>
    <path clip-path="url(#p1678aaa11d)" d="M 169.632 218.88 
L 191.808 218.88 
L 191.808 241.056 
L 169.632 241.056 
L 169.632 218.88 
" style="fill:#5d5d5d;stroke:#ffffff;stroke-width:0.2;"/>
    <path clip-path="url(#p1678aaa11d)" d="M 191.808 218.88 
L 213.984 218.88 
L 213.984 241.056 
L 191.808 241.056 
L 191.808 218.88 
" style="fill:#bebebe;stroke:#ffffff;stroke-width:0.2;"/>
    <path clip-path="url(#p1678aaa11d)" d="M 213.984 218.88 
L 236.16 218.88 
L 236.16 241.056 
L 213.984 241.056 
L 213.984 218.88 
" style="fill:#e2e2e2;stroke:#ffffff;stroke-width:0.2;"/>
    <path clip-path="url(#p1678aaa11d)" d="M 236.16 218.88 
L 258.336 218.88 
L 258.336 241.056 
L 236.16 241.056 
L 236.16 218.88 
" style="fill:#8e8e8e;stroke:#ffffff;stroke-width:0.2;"/>
    <path clip-path="url(#p1678aaa11d)" d="M 258.336 218.88 
L 280.512 218.88 
L 280.512 241.056 
L 258.336 241.056 
L 258.336 218.88 
" style="fill:#525252;stroke:#ffffff;stroke-width:0.2;"/>
    <path clip-path="url(#p1678aaa11d)" d="M 280.512 218.88 
L 302.688 218.88 
L 302.688 241.056 
L 280.512 241.056 
L 280.512 218.88 
" style="stroke:#ffffff;stroke-width:0.2;"/>
    <path clip-path="url(#p1678aaa11d)" d="M 302.688 218.88 
L 324.864 218.88 
L 324.864 241.056 
L 302.688 241.056 
L 302.688 218.88 
" style="fill:#616161;stroke:#ffffff;stroke-width:0.2;"/>
    <path clip-path="url(#p1678aaa11d)" d="M 324.864 218.88 
L 347.04 218.88 
L 347.04 241.056 
L 324.864 241.056 
L 324.864 218.88 
" style="fill:#686868;stroke:#ffffff;stroke-width:0.2;"/>
    <path clip-path="url(#p1678aaa11d)" d="M 347.04 218.88 
L 369.216 218.88 
L 369.216 241.056 
L 347.04 241.056 
L 347.04 218.88 
" style="fill:#a2a2a2;stroke:#ffffff;stroke-width:0.2;"/>
    <path clip-path="url(#p1678aaa11d)" d="M 103.104 241.056 
L 125.28 241.056 
L 125.28 263.232 
L 103.104 263.232 
L 103.104 241.056 
" style="fill:#292929;stroke:#ffffff;stroke-width:0.2;"/>
    <path clip-path="url(#p1678aaa11d)" d="M 125.28 241.056 
L 147.456 241.056 
L 147.456 263.232 
L 125.28 263.232 
L 125.28 241.056 
" style="fill:#eeeeee;stroke:#ffffff;stroke-width:0.2;"/>
    <path clip-path="url(#p1678aaa11d)" d="M 147.456 241.056 
L 169.632 241.056 
L 169.632 263.232 
L 147.456 263.232 
L 147.456 241.056 
" style="fill:#282828;stroke:#ffffff;stroke-width:0.2;"/>
    <path clip-path="url(#p1678aaa11d)" d="M 169.632 241.056 
L 191.808 241.056 
L 191.808 263.232 
L 169.632 263.232 
L 169.632 241.056 
" style="fill:#0d0d0d;stroke:#ffffff;stroke-width:0.2;"/>
    <path clip-path="url(#p1678aaa11d)" d="M 191.808 241.056 
L 213.984 241.056 
L 213.984 263.232 
L 191.808 263.232 
L 191.808 241.056 
" style="fill:#adadad;stroke:#ffffff;stroke-width:0.2;"/>
    <path clip-path="url(#p1678aaa11d)" d="M 213.984 241.056 
L 236.16 241.056 
L 236.16 263.232 
L 213.984 263.232 
L 213.984 241.056 
" style="fill:#737373;stroke:#ffffff;stroke-width:0.2;"/>
    <path clip-path="url(#p1678aaa11d)" d="M 236.16 241.056 
L 258.336 241.056 
L 258.336 263.232 
L 236.16 263.232 
L 236.16 241.056 
" style="fill:#676767;stroke:#ffffff;stroke-width:0.2;"/>
    <path clip-path="url(#p1678aaa11d)" d="M 258.336 241.056 
L 280.512 241.056 
L 280.512 263.232 
L 258.336 263.232 
L 258.336 241.056 
" style="fill:#1e1e1e;stroke:#ffffff;stroke-width:0.2;"/>
    <path clip-path="url(#p1678aaa11d)" d="M 280.512 241.056 
L 302.688 241.056 
L 302.688 263.232 
L 280.512 263.232 
L 280.512 241.056 
" style="fill:#616161;stroke:#ffffff;stroke-width:0.2;"/>
    <path clip-path="url(#p1678aaa11d)" d="M 302.688 241.056 
L 324.864 241.056 
L 324.864 263.232 
L 302.688 263.232 
L 302.688 241.056 
" style="stroke:#ffffff;stroke-width:0.2;"/>
    <path clip-path="url(#p1678aaa11d)" d="M 324.864 241.056 
L 347.04 241.056 
L 347.04 263.232 
L 324.864 263.232 
L 324.864 241.056 
" style="fill:#3a3a3a;stroke:#ffffff;stroke-width:0.2;"/>
    <path clip-path="url(#p1678aaa11d)" d="M 347.04 241.056 
L 369.216 241.056 
L 369.216 263.232 
L 347.04 263.232 
L 347.04 241.056 
" style="fill:#434343;stroke:#ffffff;stroke-width:0.2;"/>
    <path clip-path="url(#p1678aaa11d)" d="M 103.104 263.232 
L 125.28 263.232 
L 125.28 285.408 
L 103.104 285.408 
L 103.104 263.232 
" style="fill:#414141;stroke:#ffffff;stroke-width:0.2;"/>
    <path clip-path="url(#p1678aaa11d)" d="M 125.28 263.232 
L 147.456 263.232 
L 147.456 285.408 
L 125.28 285.408 
L 125.28 263.232 
" style="fill:#f7f7f7;stroke:#ffffff;stroke-width:0.2;"/>
    <path clip-path="url(#p1678aaa11d)" d="M 147.456 263.232 
L 169.632 263.232 
L 169.632 285.408 
L 147.456 285.408 
L 147.456 263.232 
" style="fill:#363636;stroke:#ffffff;stroke-width:0.2;"/>
    <path clip-path="url(#p1678aaa11d)" d="M 169.632 263.232 
L 191.808 263.232 
L 191.808 285.408 
L 169.632 285.408 
L 169.632 263.232 
" style="fill:#292929;stroke:#ffffff;stroke-width:0.2;"/>
    <path clip-path="url(#p1678aaa11d)" d="M 191.808 263.232 
L 213.984 263.232 
L 213.984 285.408 
L 191.808 285.408 
L 191.808 263.232 
" style="fill:#b5b5b5;stroke:#ffffff;stroke-width:0.2;"/>
    <path clip-path="url(#p1678aaa11d)" d="M 213.984 263.232 
L 236.16 263.232 
L 236.16 285.408 
L 213.984 285.408 
L 213.984 263.232 
" style="fill:#d2d2d2;stroke:#ffffff;stroke-width:0.2;"/>
    <path clip-path="url(#p1678aaa11d)" d="M 236.16 263.232 
L 258.336 263.232 
L 258.336 285.408 
L 236.16 285.408 
L 236.16 263.232 
" style="fill:#393939;stroke:#ffffff;stroke-width:0.2;"/>
    <path clip-path="url(#p1678aaa11d)" d="M 258.336 263.232 
L 280.512 263.232 
L 280.512 285.408 
L 258.336 285.408 
L 258.336 263.232 
" style="fill:#3f3f3f;stroke:#ffffff;stroke-width:0.2;"/>
    <path clip-path="url(#p1678aaa11d)" d="M 280.512 263.232 
L 302.688 263.232 
L 302.688 285.408 
L 280.512 285.408 
L 280.512 263.232 
" style="fill:#686868;stroke:#ffffff;stroke-width:0.2;"/>
    <path clip-path="url(#p1678aaa11d)" d="M 302.688 263.232 
L 324.864 263.232 
L 324.864 285.408 
L 302.688 285.408 
L 302.688 263.232 
" style="fill:#3a3a3a;stroke:#ffffff;stroke-width:0.2;"/>
    <path clip-path="url(#p1678aaa11d)" d="M 324.864 263.232 
L 347.04 263.232 
L 347.04 285.408 
L 324.864 285.408 
L 324.864 263.232 
" style="stroke:#ffffff;stroke-width:0.2;"/>
    <path clip-path="url(#p1678aaa11d)" d="M 347.04 263.232 
L 369.216 263.232 
L 369.216 285.408 
L 347.04 285.408 
L 347.04 263.232 
" style="fill:#777777;stroke:#ffffff;stroke-width:0.2;"/>
    <path clip-path="url(#p1678aaa11d)" d="M 103.104 285.408 
L 125.28 285.408 
L 125.28 307.584 
L 103.104 307.584 
L 103.104 285.408 
" style="fill:#383838;stroke:#ffffff;stroke-width:0.2;"/>
    <path clip-path="url(#p1678aaa11d)" d="M 125.28 285.408 
L 147.456 285.408 
L 147.456 307.584 
L 125.28 307.584 
L 125.28 285.408 
" style="fill:#e6e6e6;stroke:#ffffff;stroke-width:0.2;"/>
    <path clip-path="url(#p1678aaa11d)" d="M 147.456 285.408 
L 169.632 285.408 
L 169.632 307.584 
L 147.456 307.584 
L 147.456 285.408 
" style="fill:#525252;stroke:#ffffff;stroke-width:0.2;"/>
    <path clip-path="url(#p1678aaa11d)" d="M 169.632 285.408 
L 191.808 285.408 
L 191.808 307.584 
L 169.632 307.584 
L 169.632 285.408 
" style="fill:#363636;stroke:#ffffff;stroke-width:0.2;"/>
    <path clip-path="url(#p1678aaa11d)" d="M 191.808 285.408 
L 213.984 285.408 
L 213.984 307.584 
L 191.808 307.584 
L 191.808 285.408 
" style="fill:#a9a9a9;stroke:#ffffff;stroke-width:0.2;"/>
    <path clip-path="url(#p1678aaa11d)" d="M 213.984 285.408 
L 236.16 285.408 
L 236.16 307.584 
L 213.984 307.584 
L 213.984 285.408 
" style="fill:#6c6c6c;stroke:#ffffff;stroke-width:0.2;"/>
    <path clip-path="url(#p1678aaa11d)" d="M 236.16 285.408 
L 258.336 285.408 
L 258.336 307.584 
L 236.16 307.584 
L 236.16 285.408 
" style="fill:#818181;stroke:#ffffff;stroke-width:0.2;"/>
    <path clip-path="url(#p1678aaa11d)" d="M 258.336 285.408 
L 280.512 285.408 
L 280.512 307.584 
L 258.336 307.584 
L 258.336 285.408 
" style="fill:#444444;stroke:#ffffff;stroke-width:0.2;"/>
    <path clip-path="url(#p1678aaa11d)" d="M 280.512 285.408 
L 302.688 285.408 
L 302.688 307.584 
L 280.512 307.584 
L 280.512 285.408 
" style="fill:#a2a2a2;stroke:#ffffff;stroke-width:0.2;"/>
    <path clip-path="url(#p1678aaa11d)" d="M 302.688 285.408 
L 324.864 285.408 
L 324.864 307.584 
L 302.688 307.584 
L 302.688 285.408 
" style="fill:#434343;stroke:#ffffff;stroke-width:0.2;"/>
    <path clip-path="url(#p1678aaa11d)" d="M 324.864 285.408 
L 347.04 285.408 
L 347.04 307.584 
L 324.864 307.584 
L 324.864 285.408 
" style="fill:#777777;stroke:#ffffff;stroke-width:0.2;"/>
    <path clip-path="url(#p1678aaa11d)" d="M 347.04 285.408 
L 369.216 285.408 
L 369.216 307.584 
L 347.04 307.584 
L 347.04 285.408 
" style="stroke:#ffffff;stroke-width:0.2;"/>
   </g>
  </g>
 </g>
 <defs>
  <clipPath id="p1678aaa11d">
   <rect height="266.112" width="266.112" x="103.104" y="41.472"/>
  </clipPath>
 </defs>
</svg>
