<?xml version="1.0" encoding="utf-8" standalone="no"?>
<!DOCTYPE svg PUBLIC "-//W3C//DTD SVG 1.1//EN"
  "http://www.w3.org/Graphics/SVG/1.1/DTD/svg11.dtd">
<svg height="345.6pt" version="1.1" viewBox="0 0 460.8 345.6" width="460.8pt" xmlns="http://www.w3.org/2000/svg" xmlns:xlink="http://www.w3.org/1999/xlink">
 <metadata>
  <rdf:RDF xmlns:cc="http://creativecommons.org/ns#" xmlns:dc="http://purl.org/dc/elements/1.1/" xmlns:rdf="http://www.w3.org/1999/02/22-rdf-syntax-ns#">
   <cc:Work>
    <dc:type rdf:resource="http://purl.org/dc/dcmitype/StillImage"/>
    <dc:date>2022-09-01T23:26:05.097730</dc:date>
    <dc:format>image/svg+xml</dc:format>
    <dc:creator>
     <cc:Agent>
      <dc:title>Matplotlib v3.4.3, https://matplotlib.org/</dc:title>
     </cc:Agent>
    </dc:creator>
   </cc:Work>
  </rdf:RDF>
 </metadata>
 <defs>
  <style type="text/css">*{stroke-linecap:butt;stroke-linejoin:round;}</style>
 </defs>
 <g id="figure_1">
  <g id="patch_1">
   <path d="M 0 345.6 
L 460.8 345.6 
L 460.8 0 
L 0 0 
z
" style="fill:#ffffff;"/>
  </g>
  <g id="axes_1">
   <g id="patch_2">
    <path d="M 57.6 307.584 
L 414.72 307.584 
L 414.72 41.472 
L 57.6 41.472 
z
" style="fill:#ffffff;"/>
   </g>
   <g id="patch_3">
    <path clip-path="url(#p4b95e8a2ca)" d="M 73.832727 307.584 
L 78.565578 307.584 
L 78.565578 305.782245 
L 73.832727 305.782245 
z
" style="fill:#ff0000;opacity:0.4;stroke:#000000;stroke-linejoin:miter;"/>
   </g>
   <g id="patch_4">
    <path clip-path="url(#p4b95e8a2ca)" d="M 78.565578 307.584 
L 83.298429 307.584 
L 83.298429 305.782245 
L 78.565578 305.782245 
z
" style="fill:#ff0000;opacity:0.4;stroke:#000000;stroke-linejoin:miter;"/>
   </g>
   <g id="patch_5">
    <path clip-path="url(#p4b95e8a2ca)" d="M 83.298429 307.584 
L 88.03128 307.584 
L 88.03128 307.584 
L 83.298429 307.584 
z
" style="fill:#ff0000;opacity:0.4;stroke:#000000;stroke-linejoin:miter;"/>
   </g>
   <g id="patch_6">
    <path clip-path="url(#p4b95e8a2ca)" d="M 88.03128 307.584 
L 92.764131 307.584 
L 92.764131 307.584 
L 88.03128 307.584 
z
" style="fill:#ff0000;opacity:0.4;stroke:#000000;stroke-linejoin:miter;"/>
   </g>
   <g id="patch_7">
    <path clip-path="url(#p4b95e8a2ca)" d="M 92.764131 307.584 
L 97.496982 307.584 
L 97.496982 305.782245 
L 92.764131 305.782245 
z
" style="fill:#ff0000;opacity:0.4;stroke:#000000;stroke-linejoin:miter;"/>
   </g>
   <g id="patch_8">
    <path clip-path="url(#p4b95e8a2ca)" d="M 97.496982 307.584 
L 102.229833 307.584 
L 102.229833 303.980491 
L 97.496982 303.980491 
z
" style="fill:#ff0000;opacity:0.4;stroke:#000000;stroke-linejoin:miter;"/>
   </g>
   <g id="patch_9">
    <path clip-path="url(#p4b95e8a2ca)" d="M 102.229833 307.584 
L 106.962684 307.584 
L 106.962684 305.782245 
L 102.229833 305.782245 
z
" style="fill:#ff0000;opacity:0.4;stroke:#000000;stroke-linejoin:miter;"/>
   </g>
   <g id="patch_10">
    <path clip-path="url(#p4b95e8a2ca)" d="M 106.962684 307.584 
L 111.695535 307.584 
L 111.695535 291.368208 
L 106.962684 291.368208 
z
" style="fill:#ff0000;opacity:0.4;stroke:#000000;stroke-linejoin:miter;"/>
   </g>
   <g id="patch_11">
    <path clip-path="url(#p4b95e8a2ca)" d="M 111.695535 307.584 
L 116.428386 307.584 
L 116.428386 303.980491 
L 111.695535 303.980491 
z
" style="fill:#ff0000;opacity:0.4;stroke:#000000;stroke-linejoin:miter;"/>
   </g>
   <g id="patch_12">
    <path clip-path="url(#p4b95e8a2ca)" d="M 116.428386 307.584 
L 121.161237 307.584 
L 121.161237 289.566453 
L 116.428386 289.566453 
z
" style="fill:#ff0000;opacity:0.4;stroke:#000000;stroke-linejoin:miter;"/>
   </g>
   <g id="patch_13">
    <path clip-path="url(#p4b95e8a2ca)" d="M 121.161237 307.584 
L 125.894088 307.584 
L 125.894088 289.566453 
L 121.161237 289.566453 
z
" style="fill:#ff0000;opacity:0.4;stroke:#000000;stroke-linejoin:miter;"/>
   </g>
   <g id="patch_14">
    <path clip-path="url(#p4b95e8a2ca)" d="M 125.894088 307.584 
L 130.626939 307.584 
L 130.626939 280.55768 
L 125.894088 280.55768 
z
" style="fill:#ff0000;opacity:0.4;stroke:#000000;stroke-linejoin:miter;"/>
   </g>
   <g id="patch_15">
    <path clip-path="url(#p4b95e8a2ca)" d="M 130.626939 307.584 
L 135.359789 307.584 
L 135.359789 287.764699 
L 130.626939 287.764699 
z
" style="fill:#ff0000;opacity:0.4;stroke:#000000;stroke-linejoin:miter;"/>
   </g>
   <g id="patch_16">
    <path clip-path="url(#p4b95e8a2ca)" d="M 135.359789 307.584 
L 140.09264 307.584 
L 140.09264 271.548907 
L 135.359789 271.548907 
z
" style="fill:#ff0000;opacity:0.4;stroke:#000000;stroke-linejoin:miter;"/>
   </g>
   <g id="patch_17">
    <path clip-path="url(#p4b95e8a2ca)" d="M 140.09264 307.584 
L 144.825491 307.584 
L 144.825491 255.333115 
L 140.09264 255.333115 
z
" style="fill:#ff0000;opacity:0.4;stroke:#000000;stroke-linejoin:miter;"/>
   </g>
   <g id="patch_18">
    <path clip-path="url(#p4b95e8a2ca)" d="M 144.825491 307.584 
L 149.558342 307.584 
L 149.558342 262.540134 
L 144.825491 262.540134 
z
" style="fill:#ff0000;opacity:0.4;stroke:#000000;stroke-linejoin:miter;"/>
   </g>
   <g id="patch_19">
    <path clip-path="url(#p4b95e8a2ca)" d="M 149.558342 307.584 
L 154.291193 307.584 
L 154.291193 231.910305 
L 149.558342 231.910305 
z
" style="fill:#ff0000;opacity:0.4;stroke:#000000;stroke-linejoin:miter;"/>
   </g>
   <g id="patch_20">
    <path clip-path="url(#p4b95e8a2ca)" d="M 154.291193 307.584 
L 159.024044 307.584 
L 159.024044 226.505041 
L 154.291193 226.505041 
z
" style="fill:#ff0000;opacity:0.4;stroke:#000000;stroke-linejoin:miter;"/>
   </g>
   <g id="patch_21">
    <path clip-path="url(#p4b95e8a2ca)" d="M 159.024044 307.584 
L 163.756895 307.584 
L 163.756895 210.289249 
L 159.024044 210.289249 
z
" style="fill:#ff0000;opacity:0.4;stroke:#000000;stroke-linejoin:miter;"/>
   </g>
   <g id="patch_22">
    <path clip-path="url(#p4b95e8a2ca)" d="M 163.756895 307.584 
L 168.489746 307.584 
L 168.489746 203.08223 
L 163.756895 203.08223 
z
" style="fill:#ff0000;opacity:0.4;stroke:#000000;stroke-linejoin:miter;"/>
   </g>
   <g id="patch_23">
    <path clip-path="url(#p4b95e8a2ca)" d="M 168.489746 307.584 
L 173.222597 307.584 
L 173.222597 181.461174 
L 168.489746 181.461174 
z
" style="fill:#ff0000;opacity:0.4;stroke:#000000;stroke-linejoin:miter;"/>
   </g>
   <g id="patch_24">
    <path clip-path="url(#p4b95e8a2ca)" d="M 173.222597 307.584 
L 177.955448 307.584 
L 177.955448 159.840118 
L 173.222597 159.840118 
z
" style="fill:#ff0000;opacity:0.4;stroke:#000000;stroke-linejoin:miter;"/>
   </g>
   <g id="patch_25">
    <path clip-path="url(#p4b95e8a2ca)" d="M 177.955448 307.584 
L 182.688299 307.584 
L 182.688299 168.848892 
L 177.955448 168.848892 
z
" style="fill:#ff0000;opacity:0.4;stroke:#000000;stroke-linejoin:miter;"/>
   </g>
   <g id="patch_26">
    <path clip-path="url(#p4b95e8a2ca)" d="M 182.688299 307.584 
L 187.42115 307.584 
L 187.42115 127.408535 
L 182.688299 127.408535 
z
" style="fill:#ff0000;opacity:0.4;stroke:#000000;stroke-linejoin:miter;"/>
   </g>
   <g id="patch_27">
    <path clip-path="url(#p4b95e8a2ca)" d="M 187.42115 307.584 
L 192.154001 307.584 
L 192.154001 122.003271 
L 187.42115 122.003271 
z
" style="fill:#ff0000;opacity:0.4;stroke:#000000;stroke-linejoin:miter;"/>
   </g>
   <g id="patch_28">
    <path clip-path="url(#p4b95e8a2ca)" d="M 192.154001 307.584 
L 196.886852 307.584 
L 196.886852 96.778706 
L 192.154001 96.778706 
z
" style="fill:#ff0000;opacity:0.4;stroke:#000000;stroke-linejoin:miter;"/>
   </g>
   <g id="patch_29">
    <path clip-path="url(#p4b95e8a2ca)" d="M 196.886852 307.584 
L 201.619703 307.584 
L 201.619703 105.787479 
L 196.886852 105.787479 
z
" style="fill:#ff0000;opacity:0.4;stroke:#000000;stroke-linejoin:miter;"/>
   </g>
   <g id="patch_30">
    <path clip-path="url(#p4b95e8a2ca)" d="M 201.619703 307.584 
L 206.352554 307.584 
L 206.352554 103.985724 
L 201.619703 103.985724 
z
" style="fill:#ff0000;opacity:0.4;stroke:#000000;stroke-linejoin:miter;"/>
   </g>
   <g id="patch_31">
    <path clip-path="url(#p4b95e8a2ca)" d="M 206.352554 307.584 
L 211.085405 307.584 
L 211.085405 102.18397 
L 206.352554 102.18397 
z
" style="fill:#ff0000;opacity:0.4;stroke:#000000;stroke-linejoin:miter;"/>
   </g>
   <g id="patch_32">
    <path clip-path="url(#p4b95e8a2ca)" d="M 211.085405 307.584 
L 215.818255 307.584 
L 215.818255 132.813799 
L 211.085405 132.813799 
z
" style="fill:#ff0000;opacity:0.4;stroke:#000000;stroke-linejoin:miter;"/>
   </g>
   <g id="patch_33">
    <path clip-path="url(#p4b95e8a2ca)" d="M 215.818255 307.584 
L 220.551106 307.584 
L 220.551106 75.15765 
L 215.818255 75.15765 
z
" style="fill:#ff0000;opacity:0.4;stroke:#000000;stroke-linejoin:miter;"/>
   </g>
   <g id="patch_34">
    <path clip-path="url(#p4b95e8a2ca)" d="M 220.551106 307.584 
L 225.283957 307.584 
L 225.283957 96.778706 
L 220.551106 96.778706 
z
" style="fill:#ff0000;opacity:0.4;stroke:#000000;stroke-linejoin:miter;"/>
   </g>
   <g id="patch_35">
    <path clip-path="url(#p4b95e8a2ca)" d="M 225.283957 307.584 
L 230.016808 307.584 
L 230.016808 67.950631 
L 225.283957 67.950631 
z
" style="fill:#ff0000;opacity:0.4;stroke:#000000;stroke-linejoin:miter;"/>
   </g>
   <g id="patch_36">
    <path clip-path="url(#p4b95e8a2ca)" d="M 230.016808 307.584 
L 234.749659 307.584 
L 234.749659 102.18397 
L 230.016808 102.18397 
z
" style="fill:#ff0000;opacity:0.4;stroke:#000000;stroke-linejoin:miter;"/>
   </g>
   <g id="patch_37">
    <path clip-path="url(#p4b95e8a2ca)" d="M 234.749659 307.584 
L 239.48251 307.584 
L 239.48251 109.390988 
L 234.749659 109.390988 
z
" style="fill:#ff0000;opacity:0.4;stroke:#000000;stroke-linejoin:miter;"/>
   </g>
   <g id="patch_38">
    <path clip-path="url(#p4b95e8a2ca)" d="M 239.48251 307.584 
L 244.215361 307.584 
L 244.215361 93.175196 
L 239.48251 93.175196 
z
" style="fill:#ff0000;opacity:0.4;stroke:#000000;stroke-linejoin:miter;"/>
   </g>
   <g id="patch_39">
    <path clip-path="url(#p4b95e8a2ca)" d="M 244.215361 307.584 
L 248.948212 307.584 
L 248.948212 118.399761 
L 244.215361 118.399761 
z
" style="fill:#ff0000;opacity:0.4;stroke:#000000;stroke-linejoin:miter;"/>
   </g>
   <g id="patch_40">
    <path clip-path="url(#p4b95e8a2ca)" d="M 248.948212 307.584 
L 253.681063 307.584 
L 253.681063 100.382215 
L 248.948212 100.382215 
z
" style="fill:#ff0000;opacity:0.4;stroke:#000000;stroke-linejoin:miter;"/>
   </g>
   <g id="patch_41">
    <path clip-path="url(#p4b95e8a2ca)" d="M 253.681063 307.584 
L 258.413914 307.584 
L 258.413914 149.029591 
L 253.681063 149.029591 
z
" style="fill:#ff0000;opacity:0.4;stroke:#000000;stroke-linejoin:miter;"/>
   </g>
   <g id="patch_42">
    <path clip-path="url(#p4b95e8a2ca)" d="M 258.413914 307.584 
L 263.146765 307.584 
L 263.146765 152.6331 
L 258.413914 152.6331 
z
" style="fill:#ff0000;opacity:0.4;stroke:#000000;stroke-linejoin:miter;"/>
   </g>
   <g id="patch_43">
    <path clip-path="url(#p4b95e8a2ca)" d="M 263.146765 307.584 
L 267.879616 307.584 
L 267.879616 158.038364 
L 263.146765 158.038364 
z
" style="fill:#ff0000;opacity:0.4;stroke:#000000;stroke-linejoin:miter;"/>
   </g>
   <g id="patch_44">
    <path clip-path="url(#p4b95e8a2ca)" d="M 267.879616 307.584 
L 272.612467 307.584 
L 272.612467 172.452401 
L 267.879616 172.452401 
z
" style="fill:#ff0000;opacity:0.4;stroke:#000000;stroke-linejoin:miter;"/>
   </g>
   <g id="patch_45">
    <path clip-path="url(#p4b95e8a2ca)" d="M 272.612467 307.584 
L 277.345318 307.584 
L 277.345318 194.073457 
L 272.612467 194.073457 
z
" style="fill:#ff0000;opacity:0.4;stroke:#000000;stroke-linejoin:miter;"/>
   </g>
   <g id="patch_46">
    <path clip-path="url(#p4b95e8a2ca)" d="M 277.345318 307.584 
L 282.078169 307.584 
L 282.078169 195.875211 
L 277.345318 195.875211 
z
" style="fill:#ff0000;opacity:0.4;stroke:#000000;stroke-linejoin:miter;"/>
   </g>
   <g id="patch_47">
    <path clip-path="url(#p4b95e8a2ca)" d="M 282.078169 307.584 
L 286.81102 307.584 
L 286.81102 215.694513 
L 282.078169 215.694513 
z
" style="fill:#ff0000;opacity:0.4;stroke:#000000;stroke-linejoin:miter;"/>
   </g>
   <g id="patch_48">
    <path clip-path="url(#p4b95e8a2ca)" d="M 286.81102 307.584 
L 291.543871 307.584 
L 291.543871 221.099777 
L 286.81102 221.099777 
z
" style="fill:#ff0000;opacity:0.4;stroke:#000000;stroke-linejoin:miter;"/>
   </g>
   <g id="patch_49">
    <path clip-path="url(#p4b95e8a2ca)" d="M 291.543871 307.584 
L 296.276721 307.584 
L 296.276721 237.315569 
L 291.543871 237.315569 
z
" style="fill:#ff0000;opacity:0.4;stroke:#000000;stroke-linejoin:miter;"/>
   </g>
   <g id="patch_50">
    <path clip-path="url(#p4b95e8a2ca)" d="M 296.276721 307.584 
L 301.009572 307.584 
L 301.009572 237.315569 
L 296.276721 237.315569 
z
" style="fill:#ff0000;opacity:0.4;stroke:#000000;stroke-linejoin:miter;"/>
   </g>
   <g id="patch_51">
    <path clip-path="url(#p4b95e8a2ca)" d="M 301.009572 307.584 
L 305.742423 307.584 
L 305.742423 255.333115 
L 301.009572 255.333115 
z
" style="fill:#ff0000;opacity:0.4;stroke:#000000;stroke-linejoin:miter;"/>
   </g>
   <g id="patch_52">
    <path clip-path="url(#p4b95e8a2ca)" d="M 305.742423 307.584 
L 310.475274 307.584 
L 310.475274 271.548907 
L 305.742423 271.548907 
z
" style="fill:#ff0000;opacity:0.4;stroke:#000000;stroke-linejoin:miter;"/>
   </g>
   <g id="patch_53">
    <path clip-path="url(#p4b95e8a2ca)" d="M 310.475274 307.584 
L 315.208125 307.584 
L 315.208125 285.962944 
L 310.475274 285.962944 
z
" style="fill:#ff0000;opacity:0.4;stroke:#000000;stroke-linejoin:miter;"/>
   </g>
   <g id="patch_54">
    <path clip-path="url(#p4b95e8a2ca)" d="M 315.208125 307.584 
L 319.940976 307.584 
L 319.940976 287.764699 
L 315.208125 287.764699 
z
" style="fill:#ff0000;opacity:0.4;stroke:#000000;stroke-linejoin:miter;"/>
   </g>
   <g id="patch_55">
    <path clip-path="url(#p4b95e8a2ca)" d="M 319.940976 307.584 
L 324.673827 307.584 
L 324.673827 294.971717 
L 319.940976 294.971717 
z
" style="fill:#ff0000;opacity:0.4;stroke:#000000;stroke-linejoin:miter;"/>
   </g>
   <g id="patch_56">
    <path clip-path="url(#p4b95e8a2ca)" d="M 324.673827 307.584 
L 329.406678 307.584 
L 329.406678 294.971717 
L 324.673827 294.971717 
z
" style="fill:#ff0000;opacity:0.4;stroke:#000000;stroke-linejoin:miter;"/>
   </g>
   <g id="patch_57">
    <path clip-path="url(#p4b95e8a2ca)" d="M 329.406678 307.584 
L 334.139529 307.584 
L 334.139529 298.575227 
L 329.406678 298.575227 
z
" style="fill:#ff0000;opacity:0.4;stroke:#000000;stroke-linejoin:miter;"/>
   </g>
   <g id="patch_58">
    <path clip-path="url(#p4b95e8a2ca)" d="M 334.139529 307.584 
L 338.87238 307.584 
L 338.87238 298.575227 
L 334.139529 298.575227 
z
" style="fill:#ff0000;opacity:0.4;stroke:#000000;stroke-linejoin:miter;"/>
   </g>
   <g id="patch_59">
    <path clip-path="url(#p4b95e8a2ca)" d="M 338.87238 307.584 
L 343.605231 307.584 
L 343.605231 300.376981 
L 338.87238 300.376981 
z
" style="fill:#ff0000;opacity:0.4;stroke:#000000;stroke-linejoin:miter;"/>
   </g>
   <g id="patch_60">
    <path clip-path="url(#p4b95e8a2ca)" d="M 343.605231 307.584 
L 348.338082 307.584 
L 348.338082 305.782245 
L 343.605231 305.782245 
z
" style="fill:#ff0000;opacity:0.4;stroke:#000000;stroke-linejoin:miter;"/>
   </g>
   <g id="patch_61">
    <path clip-path="url(#p4b95e8a2ca)" d="M 348.338082 307.584 
L 353.070933 307.584 
L 353.070933 305.782245 
L 348.338082 305.782245 
z
" style="fill:#ff0000;opacity:0.4;stroke:#000000;stroke-linejoin:miter;"/>
   </g>
   <g id="patch_62">
    <path clip-path="url(#p4b95e8a2ca)" d="M 353.070933 307.584 
L 357.803784 307.584 
L 357.803784 305.782245 
L 353.070933 305.782245 
z
" style="fill:#ff0000;opacity:0.4;stroke:#000000;stroke-linejoin:miter;"/>
   </g>
   <g id="patch_63">
    <path clip-path="url(#p4b95e8a2ca)" d="M 117.87325 307.584 
L 122.55015 307.584 
L 122.55015 303.937381 
L 117.87325 303.937381 
z
" style="fill:#0000ff;opacity:0.4;stroke:#000000;stroke-linejoin:miter;"/>
   </g>
   <g id="patch_64">
    <path clip-path="url(#p4b95e8a2ca)" d="M 122.55015 307.584 
L 127.227051 307.584 
L 127.227051 307.584 
L 122.55015 307.584 
z
" style="fill:#0000ff;opacity:0.4;stroke:#000000;stroke-linejoin:miter;"/>
   </g>
   <g id="patch_65">
    <path clip-path="url(#p4b95e8a2ca)" d="M 127.227051 307.584 
L 131.903951 307.584 
L 131.903951 305.760691 
L 127.227051 305.760691 
z
" style="fill:#0000ff;opacity:0.4;stroke:#000000;stroke-linejoin:miter;"/>
   </g>
   <g id="patch_66">
    <path clip-path="url(#p4b95e8a2ca)" d="M 131.903951 307.584 
L 136.580851 307.584 
L 136.580851 307.584 
L 131.903951 307.584 
z
" style="fill:#0000ff;opacity:0.4;stroke:#000000;stroke-linejoin:miter;"/>
   </g>
   <g id="patch_67">
    <path clip-path="url(#p4b95e8a2ca)" d="M 136.580851 307.584 
L 141.257752 307.584 
L 141.257752 303.937381 
L 136.580851 303.937381 
z
" style="fill:#0000ff;opacity:0.4;stroke:#000000;stroke-linejoin:miter;"/>
   </g>
   <g id="patch_68">
    <path clip-path="url(#p4b95e8a2ca)" d="M 141.257752 307.584 
L 145.934652 307.584 
L 145.934652 302.114072 
L 141.257752 302.114072 
z
" style="fill:#0000ff;opacity:0.4;stroke:#000000;stroke-linejoin:miter;"/>
   </g>
   <g id="patch_69">
    <path clip-path="url(#p4b95e8a2ca)" d="M 145.934652 307.584 
L 150.611553 307.584 
L 150.611553 298.467453 
L 145.934652 298.467453 
z
" style="fill:#0000ff;opacity:0.4;stroke:#000000;stroke-linejoin:miter;"/>
   </g>
   <g id="patch_70">
    <path clip-path="url(#p4b95e8a2ca)" d="M 150.611553 307.584 
L 155.288453 307.584 
L 155.288453 291.174216 
L 150.611553 291.174216 
z
" style="fill:#0000ff;opacity:0.4;stroke:#000000;stroke-linejoin:miter;"/>
   </g>
   <g id="patch_71">
    <path clip-path="url(#p4b95e8a2ca)" d="M 155.288453 307.584 
L 159.965353 307.584 
L 159.965353 289.350906 
L 155.288453 289.350906 
z
" style="fill:#0000ff;opacity:0.4;stroke:#000000;stroke-linejoin:miter;"/>
   </g>
   <g id="patch_72">
    <path clip-path="url(#p4b95e8a2ca)" d="M 159.965353 307.584 
L 164.642254 307.584 
L 164.642254 285.704288 
L 159.965353 285.704288 
z
" style="fill:#0000ff;opacity:0.4;stroke:#000000;stroke-linejoin:miter;"/>
   </g>
   <g id="patch_73">
    <path clip-path="url(#p4b95e8a2ca)" d="M 164.642254 307.584 
L 169.319154 307.584 
L 169.319154 282.057669 
L 164.642254 282.057669 
z
" style="fill:#0000ff;opacity:0.4;stroke:#000000;stroke-linejoin:miter;"/>
   </g>
   <g id="patch_74">
    <path clip-path="url(#p4b95e8a2ca)" d="M 169.319154 307.584 
L 173.996054 307.584 
L 173.996054 276.587741 
L 169.319154 276.587741 
z
" style="fill:#0000ff;opacity:0.4;stroke:#000000;stroke-linejoin:miter;"/>
   </g>
   <g id="patch_75">
    <path clip-path="url(#p4b95e8a2ca)" d="M 173.996054 307.584 
L 178.672955 307.584 
L 178.672955 265.647885 
L 173.996054 265.647885 
z
" style="fill:#0000ff;opacity:0.4;stroke:#000000;stroke-linejoin:miter;"/>
   </g>
   <g id="patch_76">
    <path clip-path="url(#p4b95e8a2ca)" d="M 178.672955 307.584 
L 183.349855 307.584 
L 183.349855 251.06141 
L 178.672955 251.06141 
z
" style="fill:#0000ff;opacity:0.4;stroke:#000000;stroke-linejoin:miter;"/>
   </g>
   <g id="patch_77">
    <path clip-path="url(#p4b95e8a2ca)" d="M 183.349855 307.584 
L 188.026756 307.584 
L 188.026756 229.181698 
L 183.349855 229.181698 
z
" style="fill:#0000ff;opacity:0.4;stroke:#000000;stroke-linejoin:miter;"/>
   </g>
   <g id="patch_78">
    <path clip-path="url(#p4b95e8a2ca)" d="M 188.026756 307.584 
L 192.703656 307.584 
L 192.703656 223.71177 
L 188.026756 223.71177 
z
" style="fill:#0000ff;opacity:0.4;stroke:#000000;stroke-linejoin:miter;"/>
   </g>
   <g id="patch_79">
    <path clip-path="url(#p4b95e8a2ca)" d="M 192.703656 307.584 
L 197.380556 307.584 
L 197.380556 218.241842 
L 192.703656 218.241842 
z
" style="fill:#0000ff;opacity:0.4;stroke:#000000;stroke-linejoin:miter;"/>
   </g>
   <g id="patch_80">
    <path clip-path="url(#p4b95e8a2ca)" d="M 197.380556 307.584 
L 202.057457 307.584 
L 202.057457 207.301986 
L 197.380556 207.301986 
z
" style="fill:#0000ff;opacity:0.4;stroke:#000000;stroke-linejoin:miter;"/>
   </g>
   <g id="patch_81">
    <path clip-path="url(#p4b95e8a2ca)" d="M 202.057457 307.584 
L 206.734357 307.584 
L 206.734357 176.305727 
L 202.057457 176.305727 
z
" style="fill:#0000ff;opacity:0.4;stroke:#000000;stroke-linejoin:miter;"/>
   </g>
   <g id="patch_82">
    <path clip-path="url(#p4b95e8a2ca)" d="M 206.734357 307.584 
L 211.411257 307.584 
L 211.411257 170.835799 
L 206.734357 170.835799 
z
" style="fill:#0000ff;opacity:0.4;stroke:#000000;stroke-linejoin:miter;"/>
   </g>
   <g id="patch_83">
    <path clip-path="url(#p4b95e8a2ca)" d="M 211.411257 307.584 
L 216.088158 307.584 
L 216.088158 159.895942 
L 211.411257 159.895942 
z
" style="fill:#0000ff;opacity:0.4;stroke:#000000;stroke-linejoin:miter;"/>
   </g>
   <g id="patch_84">
    <path clip-path="url(#p4b95e8a2ca)" d="M 216.088158 307.584 
L 220.765058 307.584 
L 220.765058 148.956086 
L 216.088158 148.956086 
z
" style="fill:#0000ff;opacity:0.4;stroke:#000000;stroke-linejoin:miter;"/>
   </g>
   <g id="patch_85">
    <path clip-path="url(#p4b95e8a2ca)" d="M 220.765058 307.584 
L 225.441959 307.584 
L 225.441959 161.719252 
L 220.765058 161.719252 
z
" style="fill:#0000ff;opacity:0.4;stroke:#000000;stroke-linejoin:miter;"/>
   </g>
   <g id="patch_86">
    <path clip-path="url(#p4b95e8a2ca)" d="M 225.441959 307.584 
L 230.118859 307.584 
L 230.118859 112.489899 
L 225.441959 112.489899 
z
" style="fill:#0000ff;opacity:0.4;stroke:#000000;stroke-linejoin:miter;"/>
   </g>
   <g id="patch_87">
    <path clip-path="url(#p4b95e8a2ca)" d="M 230.118859 307.584 
L 234.795759 307.584 
L 234.795759 128.899683 
L 230.118859 128.899683 
z
" style="fill:#0000ff;opacity:0.4;stroke:#000000;stroke-linejoin:miter;"/>
   </g>
   <g id="patch_88">
    <path clip-path="url(#p4b95e8a2ca)" d="M 234.795759 307.584 
L 239.47266 307.584 
L 239.47266 83.31695 
L 234.795759 83.31695 
z
" style="fill:#0000ff;opacity:0.4;stroke:#000000;stroke-linejoin:miter;"/>
   </g>
   <g id="patch_89">
    <path clip-path="url(#p4b95e8a2ca)" d="M 239.47266 307.584 
L 244.14956 307.584 
L 244.14956 107.019971 
L 239.47266 107.019971 
z
" style="fill:#0000ff;opacity:0.4;stroke:#000000;stroke-linejoin:miter;"/>
   </g>
   <g id="patch_90">
    <path clip-path="url(#p4b95e8a2ca)" d="M 244.14956 307.584 
L 248.826461 307.584 
L 248.826461 119.783137 
L 244.14956 119.783137 
z
" style="fill:#0000ff;opacity:0.4;stroke:#000000;stroke-linejoin:miter;"/>
   </g>
   <g id="patch_91">
    <path clip-path="url(#p4b95e8a2ca)" d="M 248.826461 307.584 
L 253.503361 307.584 
L 253.503361 86.963568 
L 248.826461 86.963568 
z
" style="fill:#0000ff;opacity:0.4;stroke:#000000;stroke-linejoin:miter;"/>
   </g>
   <g id="patch_92">
    <path clip-path="url(#p4b95e8a2ca)" d="M 253.503361 307.584 
L 258.180261 307.584 
L 258.180261 74.200403 
L 253.503361 74.200403 
z
" style="fill:#0000ff;opacity:0.4;stroke:#000000;stroke-linejoin:miter;"/>
   </g>
   <g id="patch_93">
    <path clip-path="url(#p4b95e8a2ca)" d="M 258.180261 307.584 
L 262.857162 307.584 
L 262.857162 54.144 
L 258.180261 54.144 
z
" style="fill:#0000ff;opacity:0.4;stroke:#000000;stroke-linejoin:miter;"/>
   </g>
   <g id="patch_94">
    <path clip-path="url(#p4b95e8a2ca)" d="M 262.857162 307.584 
L 267.534062 307.584 
L 267.534062 59.613928 
L 262.857162 59.613928 
z
" style="fill:#0000ff;opacity:0.4;stroke:#000000;stroke-linejoin:miter;"/>
   </g>
   <g id="patch_95">
    <path clip-path="url(#p4b95e8a2ca)" d="M 267.534062 307.584 
L 272.210962 307.584 
L 272.210962 105.196662 
L 267.534062 105.196662 
z
" style="fill:#0000ff;opacity:0.4;stroke:#000000;stroke-linejoin:miter;"/>
   </g>
   <g id="patch_96">
    <path clip-path="url(#p4b95e8a2ca)" d="M 272.210962 307.584 
L 276.887863 307.584 
L 276.887863 112.489899 
L 272.210962 112.489899 
z
" style="fill:#0000ff;opacity:0.4;stroke:#000000;stroke-linejoin:miter;"/>
   </g>
   <g id="patch_97">
    <path clip-path="url(#p4b95e8a2ca)" d="M 276.887863 307.584 
L 281.564763 307.584 
L 281.564763 112.489899 
L 276.887863 112.489899 
z
" style="fill:#0000ff;opacity:0.4;stroke:#000000;stroke-linejoin:miter;"/>
   </g>
   <g id="patch_98">
    <path clip-path="url(#p4b95e8a2ca)" d="M 281.564763 307.584 
L 286.241664 307.584 
L 286.241664 143.486158 
L 281.564763 143.486158 
z
" style="fill:#0000ff;opacity:0.4;stroke:#000000;stroke-linejoin:miter;"/>
   </g>
   <g id="patch_99">
    <path clip-path="url(#p4b95e8a2ca)" d="M 286.241664 307.584 
L 290.918564 307.584 
L 290.918564 116.136518 
L 286.241664 116.136518 
z
" style="fill:#0000ff;opacity:0.4;stroke:#000000;stroke-linejoin:miter;"/>
   </g>
   <g id="patch_100">
    <path clip-path="url(#p4b95e8a2ca)" d="M 290.918564 307.584 
L 295.595464 307.584 
L 295.595464 123.429755 
L 290.918564 123.429755 
z
" style="fill:#0000ff;opacity:0.4;stroke:#000000;stroke-linejoin:miter;"/>
   </g>
   <g id="patch_101">
    <path clip-path="url(#p4b95e8a2ca)" d="M 295.595464 307.584 
L 300.272365 307.584 
L 300.272365 150.779396 
L 295.595464 150.779396 
z
" style="fill:#0000ff;opacity:0.4;stroke:#000000;stroke-linejoin:miter;"/>
   </g>
   <g id="patch_102">
    <path clip-path="url(#p4b95e8a2ca)" d="M 300.272365 307.584 
L 304.949265 307.584 
L 304.949265 178.129036 
L 300.272365 178.129036 
z
" style="fill:#0000ff;opacity:0.4;stroke:#000000;stroke-linejoin:miter;"/>
   </g>
   <g id="patch_103">
    <path clip-path="url(#p4b95e8a2ca)" d="M 304.949265 307.584 
L 309.626165 307.584 
L 309.626165 187.245583 
L 304.949265 187.245583 
z
" style="fill:#0000ff;opacity:0.4;stroke:#000000;stroke-linejoin:miter;"/>
   </g>
   <g id="patch_104">
    <path clip-path="url(#p4b95e8a2ca)" d="M 309.626165 307.584 
L 314.303066 307.584 
L 314.303066 209.125295 
L 309.626165 209.125295 
z
" style="fill:#0000ff;opacity:0.4;stroke:#000000;stroke-linejoin:miter;"/>
   </g>
   <g id="patch_105">
    <path clip-path="url(#p4b95e8a2ca)" d="M 314.303066 307.584 
L 318.979966 307.584 
L 318.979966 196.362129 
L 314.303066 196.362129 
z
" style="fill:#0000ff;opacity:0.4;stroke:#000000;stroke-linejoin:miter;"/>
   </g>
   <g id="patch_106">
    <path clip-path="url(#p4b95e8a2ca)" d="M 318.979966 307.584 
L 323.656867 307.584 
L 323.656867 214.595223 
L 318.979966 214.595223 
z
" style="fill:#0000ff;opacity:0.4;stroke:#000000;stroke-linejoin:miter;"/>
   </g>
   <g id="patch_107">
    <path clip-path="url(#p4b95e8a2ca)" d="M 323.656867 307.584 
L 328.333767 307.584 
L 328.333767 243.768173 
L 323.656867 243.768173 
z
" style="fill:#0000ff;opacity:0.4;stroke:#000000;stroke-linejoin:miter;"/>
   </g>
   <g id="patch_108">
    <path clip-path="url(#p4b95e8a2ca)" d="M 328.333767 307.584 
L 333.010667 307.584 
L 333.010667 241.944863 
L 328.333767 241.944863 
z
" style="fill:#0000ff;opacity:0.4;stroke:#000000;stroke-linejoin:miter;"/>
   </g>
   <g id="patch_109">
    <path clip-path="url(#p4b95e8a2ca)" d="M 333.010667 307.584 
L 337.687568 307.584 
L 337.687568 231.005007 
L 333.010667 231.005007 
z
" style="fill:#0000ff;opacity:0.4;stroke:#000000;stroke-linejoin:miter;"/>
   </g>
   <g id="patch_110">
    <path clip-path="url(#p4b95e8a2ca)" d="M 337.687568 307.584 
L 342.364468 307.584 
L 342.364468 267.471194 
L 337.687568 267.471194 
z
" style="fill:#0000ff;opacity:0.4;stroke:#000000;stroke-linejoin:miter;"/>
   </g>
   <g id="patch_111">
    <path clip-path="url(#p4b95e8a2ca)" d="M 342.364468 307.584 
L 347.041369 307.584 
L 347.041369 278.41105 
L 342.364468 278.41105 
z
" style="fill:#0000ff;opacity:0.4;stroke:#000000;stroke-linejoin:miter;"/>
   </g>
   <g id="patch_112">
    <path clip-path="url(#p4b95e8a2ca)" d="M 347.041369 307.584 
L 351.718269 307.584 
L 351.718269 282.057669 
L 347.041369 282.057669 
z
" style="fill:#0000ff;opacity:0.4;stroke:#000000;stroke-linejoin:miter;"/>
   </g>
   <g id="patch_113">
    <path clip-path="url(#p4b95e8a2ca)" d="M 351.718269 307.584 
L 356.395169 307.584 
L 356.395169 289.350906 
L 351.718269 289.350906 
z
" style="fill:#0000ff;opacity:0.4;stroke:#000000;stroke-linejoin:miter;"/>
   </g>
   <g id="patch_114">
    <path clip-path="url(#p4b95e8a2ca)" d="M 356.395169 307.584 
L 361.07207 307.584 
L 361.07207 302.114072 
L 356.395169 302.114072 
z
" style="fill:#0000ff;opacity:0.4;stroke:#000000;stroke-linejoin:miter;"/>
   </g>
   <g id="patch_115">
    <path clip-path="url(#p4b95e8a2ca)" d="M 361.07207 307.584 
L 365.74897 307.584 
L 365.74897 296.644144 
L 361.07207 296.644144 
z
" style="fill:#0000ff;opacity:0.4;stroke:#000000;stroke-linejoin:miter;"/>
   </g>
   <g id="patch_116">
    <path clip-path="url(#p4b95e8a2ca)" d="M 365.74897 307.584 
L 370.42587 307.584 
L 370.42587 291.174216 
L 365.74897 291.174216 
z
" style="fill:#0000ff;opacity:0.4;stroke:#000000;stroke-linejoin:miter;"/>
   </g>
   <g id="patch_117">
    <path clip-path="url(#p4b95e8a2ca)" d="M 370.42587 307.584 
L 375.102771 307.584 
L 375.102771 302.114072 
L 370.42587 302.114072 
z
" style="fill:#0000ff;opacity:0.4;stroke:#000000;stroke-linejoin:miter;"/>
   </g>
   <g id="patch_118">
    <path clip-path="url(#p4b95e8a2ca)" d="M 375.102771 307.584 
L 379.779671 307.584 
L 379.779671 298.467453 
L 375.102771 298.467453 
z
" style="fill:#0000ff;opacity:0.4;stroke:#000000;stroke-linejoin:miter;"/>
   </g>
   <g id="patch_119">
    <path clip-path="url(#p4b95e8a2ca)" d="M 379.779671 307.584 
L 384.456572 307.584 
L 384.456572 303.937381 
L 379.779671 303.937381 
z
" style="fill:#0000ff;opacity:0.4;stroke:#000000;stroke-linejoin:miter;"/>
   </g>
   <g id="patch_120">
    <path clip-path="url(#p4b95e8a2ca)" d="M 384.456572 307.584 
L 389.133472 307.584 
L 389.133472 303.937381 
L 384.456572 303.937381 
z
" style="fill:#0000ff;opacity:0.4;stroke:#000000;stroke-linejoin:miter;"/>
   </g>
   <g id="patch_121">
    <path clip-path="url(#p4b95e8a2ca)" d="M 389.133472 307.584 
L 393.810372 307.584 
L 393.810372 305.760691 
L 389.133472 305.760691 
z
" style="fill:#0000ff;opacity:0.4;stroke:#000000;stroke-linejoin:miter;"/>
   </g>
   <g id="patch_122">
    <path clip-path="url(#p4b95e8a2ca)" d="M 393.810372 307.584 
L 398.487273 307.584 
L 398.487273 303.937381 
L 393.810372 303.937381 
z
" style="fill:#0000ff;opacity:0.4;stroke:#000000;stroke-linejoin:miter;"/>
   </g>
   <g id="matplotlib.axis_1">
    <g id="xtick_1">
     <g id="line2d_1">
      <defs>
       <path d="M 0 0 
L 0 3.5 
" id="m2653fe9193" style="stroke:#000000;stroke-width:0.8;"/>
      </defs>
      <g>
       <use style="stroke:#000000;stroke-width:0.8;" x="96.056289" xlink:href="#m2653fe9193" y="307.584"/>
      </g>
     </g>
     <g id="text_1">
      <!-- −20 -->
      <g transform="translate(85.503945 322.182437)scale(0.1 -0.1)">
       <defs>
        <path d="M 678 2272 
L 4684 2272 
L 4684 1741 
L 678 1741 
L 678 2272 
z
" id="DejaVuSans-2212" transform="scale(0.015625)"/>
        <path d="M 1228 531 
L 3431 531 
L 3431 0 
L 469 0 
L 469 531 
Q 828 903 1448 1529 
Q 2069 2156 2228 2338 
Q 2531 2678 2651 2914 
Q 2772 3150 2772 3378 
Q 2772 3750 2511 3984 
Q 2250 4219 1831 4219 
Q 1534 4219 1204 4116 
Q 875 4013 500 3803 
L 500 4441 
Q 881 4594 1212 4672 
Q 1544 4750 1819 4750 
Q 2544 4750 2975 4387 
Q 3406 4025 3406 3419 
Q 3406 3131 3298 2873 
Q 3191 2616 2906 2266 
Q 2828 2175 2409 1742 
Q 1991 1309 1228 531 
z
" id="DejaVuSans-32" transform="scale(0.015625)"/>
        <path d="M 2034 4250 
Q 1547 4250 1301 3770 
Q 1056 3291 1056 2328 
Q 1056 1369 1301 889 
Q 1547 409 2034 409 
Q 2525 409 2770 889 
Q 3016 1369 3016 2328 
Q 3016 3291 2770 3770 
Q 2525 4250 2034 4250 
z
M 2034 4750 
Q 2819 4750 3233 4129 
Q 3647 3509 3647 2328 
Q 3647 1150 3233 529 
Q 2819 -91 2034 -91 
Q 1250 -91 836 529 
Q 422 1150 422 2328 
Q 422 3509 836 4129 
Q 1250 4750 2034 4750 
z
" id="DejaVuSans-30" transform="scale(0.015625)"/>
       </defs>
       <use xlink:href="#DejaVuSans-2212"/>
       <use x="83.789062" xlink:href="#DejaVuSans-32"/>
       <use x="147.412109" xlink:href="#DejaVuSans-30"/>
      </g>
     </g>
    </g>
    <g id="xtick_2">
     <g id="line2d_2">
      <g>
       <use style="stroke:#000000;stroke-width:0.8;" x="170.757965" xlink:href="#m2653fe9193" y="307.584"/>
      </g>
     </g>
     <g id="text_2">
      <!-- −10 -->
      <g transform="translate(160.205622 322.182437)scale(0.1 -0.1)">
       <defs>
        <path d="M 794 531 
L 1825 531 
L 1825 4091 
L 703 3866 
L 703 4441 
L 1819 4666 
L 2450 4666 
L 2450 531 
L 3481 531 
L 3481 0 
L 794 0 
L 794 531 
z
" id="DejaVuSans-31" transform="scale(0.015625)"/>
       </defs>
       <use xlink:href="#DejaVuSans-2212"/>
       <use x="83.789062" xlink:href="#DejaVuSans-31"/>
       <use x="147.412109" xlink:href="#DejaVuSans-30"/>
      </g>
     </g>
    </g>
    <g id="xtick_3">
     <g id="line2d_3">
      <g>
       <use style="stroke:#000000;stroke-width:0.8;" x="245.459642" xlink:href="#m2653fe9193" y="307.584"/>
      </g>
     </g>
     <g id="text_3">
      <!-- 0 -->
      <g transform="translate(242.278392 322.182437)scale(0.1 -0.1)">
       <use xlink:href="#DejaVuSans-30"/>
      </g>
     </g>
    </g>
    <g id="xtick_4">
     <g id="line2d_4">
      <g>
       <use style="stroke:#000000;stroke-width:0.8;" x="320.161318" xlink:href="#m2653fe9193" y="307.584"/>
      </g>
     </g>
     <g id="text_4">
      <!-- 10 -->
      <g transform="translate(313.798818 322.182437)scale(0.1 -0.1)">
       <use xlink:href="#DejaVuSans-31"/>
       <use x="63.623047" xlink:href="#DejaVuSans-30"/>
      </g>
     </g>
    </g>
    <g id="xtick_5">
     <g id="line2d_5">
      <g>
       <use style="stroke:#000000;stroke-width:0.8;" x="394.862994" xlink:href="#m2653fe9193" y="307.584"/>
      </g>
     </g>
     <g id="text_5">
      <!-- 20 -->
      <g transform="translate(388.500494 322.182437)scale(0.1 -0.1)">
       <use xlink:href="#DejaVuSans-32"/>
       <use x="63.623047" xlink:href="#DejaVuSans-30"/>
      </g>
     </g>
    </g>
   </g>
   <g id="matplotlib.axis_2">
    <g id="ytick_1">
     <g id="line2d_6">
      <defs>
       <path d="M 0 0 
L -3.5 0 
" id="m628b0784b6" style="stroke:#000000;stroke-width:0.8;"/>
      </defs>
      <g>
       <use style="stroke:#000000;stroke-width:0.8;" x="57.6" xlink:href="#m628b0784b6" y="307.584"/>
      </g>
     </g>
     <g id="text_6">
      <!-- 0.00 -->
      <g transform="translate(28.334375 311.383219)scale(0.1 -0.1)">
       <defs>
        <path d="M 684 794 
L 1344 794 
L 1344 0 
L 684 0 
L 684 794 
z
" id="DejaVuSans-2e" transform="scale(0.015625)"/>
       </defs>
       <use xlink:href="#DejaVuSans-30"/>
       <use x="63.623047" xlink:href="#DejaVuSans-2e"/>
       <use x="95.410156" xlink:href="#DejaVuSans-30"/>
       <use x="159.033203" xlink:href="#DejaVuSans-30"/>
      </g>
     </g>
    </g>
    <g id="ytick_2">
     <g id="line2d_7">
      <g>
       <use style="stroke:#000000;stroke-width:0.8;" x="57.6" xlink:href="#m628b0784b6" y="273.338037"/>
      </g>
     </g>
     <g id="text_7">
      <!-- 0.01 -->
      <g transform="translate(28.334375 277.137255)scale(0.1 -0.1)">
       <use xlink:href="#DejaVuSans-30"/>
       <use x="63.623047" xlink:href="#DejaVuSans-2e"/>
       <use x="95.410156" xlink:href="#DejaVuSans-30"/>
       <use x="159.033203" xlink:href="#DejaVuSans-31"/>
      </g>
     </g>
    </g>
    <g id="ytick_3">
     <g id="line2d_8">
      <g>
       <use style="stroke:#000000;stroke-width:0.8;" x="57.6" xlink:href="#m628b0784b6" y="239.092073"/>
      </g>
     </g>
     <g id="text_8">
      <!-- 0.02 -->
      <g transform="translate(28.334375 242.891292)scale(0.1 -0.1)">
       <use xlink:href="#DejaVuSans-30"/>
       <use x="63.623047" xlink:href="#DejaVuSans-2e"/>
       <use x="95.410156" xlink:href="#DejaVuSans-30"/>
       <use x="159.033203" xlink:href="#DejaVuSans-32"/>
      </g>
     </g>
    </g>
    <g id="ytick_4">
     <g id="line2d_9">
      <g>
       <use style="stroke:#000000;stroke-width:0.8;" x="57.6" xlink:href="#m628b0784b6" y="204.84611"/>
      </g>
     </g>
     <g id="text_9">
      <!-- 0.03 -->
      <g transform="translate(28.334375 208.645329)scale(0.1 -0.1)">
       <defs>
        <path d="M 2597 2516 
Q 3050 2419 3304 2112 
Q 3559 1806 3559 1356 
Q 3559 666 3084 287 
Q 2609 -91 1734 -91 
Q 1441 -91 1130 -33 
Q 819 25 488 141 
L 488 750 
Q 750 597 1062 519 
Q 1375 441 1716 441 
Q 2309 441 2620 675 
Q 2931 909 2931 1356 
Q 2931 1769 2642 2001 
Q 2353 2234 1838 2234 
L 1294 2234 
L 1294 2753 
L 1863 2753 
Q 2328 2753 2575 2939 
Q 2822 3125 2822 3475 
Q 2822 3834 2567 4026 
Q 2313 4219 1838 4219 
Q 1578 4219 1281 4162 
Q 984 4106 628 3988 
L 628 4550 
Q 988 4650 1302 4700 
Q 1616 4750 1894 4750 
Q 2613 4750 3031 4423 
Q 3450 4097 3450 3541 
Q 3450 3153 3228 2886 
Q 3006 2619 2597 2516 
z
" id="DejaVuSans-33" transform="scale(0.015625)"/>
       </defs>
       <use xlink:href="#DejaVuSans-30"/>
       <use x="63.623047" xlink:href="#DejaVuSans-2e"/>
       <use x="95.410156" xlink:href="#DejaVuSans-30"/>
       <use x="159.033203" xlink:href="#DejaVuSans-33"/>
      </g>
     </g>
    </g>
    <g id="ytick_5">
     <g id="line2d_10">
      <g>
       <use style="stroke:#000000;stroke-width:0.8;" x="57.6" xlink:href="#m628b0784b6" y="170.600147"/>
      </g>
     </g>
     <g id="text_10">
      <!-- 0.04 -->
      <g transform="translate(28.334375 174.399366)scale(0.1 -0.1)">
       <defs>
        <path d="M 2419 4116 
L 825 1625 
L 2419 1625 
L 2419 4116 
z
M 2253 4666 
L 3047 4666 
L 3047 1625 
L 3713 1625 
L 3713 1100 
L 3047 1100 
L 3047 0 
L 2419 0 
L 2419 1100 
L 313 1100 
L 313 1709 
L 2253 4666 
z
" id="DejaVuSans-34" transform="scale(0.015625)"/>
       </defs>
       <use xlink:href="#DejaVuSans-30"/>
       <use x="63.623047" xlink:href="#DejaVuSans-2e"/>
       <use x="95.410156" xlink:href="#DejaVuSans-30"/>
       <use x="159.033203" xlink:href="#DejaVuSans-34"/>
      </g>
     </g>
    </g>
    <g id="ytick_6">
     <g id="line2d_11">
      <g>
       <use style="stroke:#000000;stroke-width:0.8;" x="57.6" xlink:href="#m628b0784b6" y="136.354183"/>
      </g>
     </g>
     <g id="text_11">
      <!-- 0.05 -->
      <g transform="translate(28.334375 140.153402)scale(0.1 -0.1)">
       <defs>
        <path d="M 691 4666 
L 3169 4666 
L 3169 4134 
L 1269 4134 
L 1269 2991 
Q 1406 3038 1543 3061 
Q 1681 3084 1819 3084 
Q 2600 3084 3056 2656 
Q 3513 2228 3513 1497 
Q 3513 744 3044 326 
Q 2575 -91 1722 -91 
Q 1428 -91 1123 -41 
Q 819 9 494 109 
L 494 744 
Q 775 591 1075 516 
Q 1375 441 1709 441 
Q 2250 441 2565 725 
Q 2881 1009 2881 1497 
Q 2881 1984 2565 2268 
Q 2250 2553 1709 2553 
Q 1456 2553 1204 2497 
Q 953 2441 691 2322 
L 691 4666 
z
" id="DejaVuSans-35" transform="scale(0.015625)"/>
       </defs>
       <use xlink:href="#DejaVuSans-30"/>
       <use x="63.623047" xlink:href="#DejaVuSans-2e"/>
       <use x="95.410156" xlink:href="#DejaVuSans-30"/>
       <use x="159.033203" xlink:href="#DejaVuSans-35"/>
      </g>
     </g>
    </g>
    <g id="ytick_7">
     <g id="line2d_12">
      <g>
       <use style="stroke:#000000;stroke-width:0.8;" x="57.6" xlink:href="#m628b0784b6" y="102.10822"/>
      </g>
     </g>
     <g id="text_12">
      <!-- 0.06 -->
      <g transform="translate(28.334375 105.907439)scale(0.1 -0.1)">
       <defs>
        <path d="M 2113 2584 
Q 1688 2584 1439 2293 
Q 1191 2003 1191 1497 
Q 1191 994 1439 701 
Q 1688 409 2113 409 
Q 2538 409 2786 701 
Q 3034 994 3034 1497 
Q 3034 2003 2786 2293 
Q 2538 2584 2113 2584 
z
M 3366 4563 
L 3366 3988 
Q 3128 4100 2886 4159 
Q 2644 4219 2406 4219 
Q 1781 4219 1451 3797 
Q 1122 3375 1075 2522 
Q 1259 2794 1537 2939 
Q 1816 3084 2150 3084 
Q 2853 3084 3261 2657 
Q 3669 2231 3669 1497 
Q 3669 778 3244 343 
Q 2819 -91 2113 -91 
Q 1303 -91 875 529 
Q 447 1150 447 2328 
Q 447 3434 972 4092 
Q 1497 4750 2381 4750 
Q 2619 4750 2861 4703 
Q 3103 4656 3366 4563 
z
" id="DejaVuSans-36" transform="scale(0.015625)"/>
       </defs>
       <use xlink:href="#DejaVuSans-30"/>
       <use x="63.623047" xlink:href="#DejaVuSans-2e"/>
       <use x="95.410156" xlink:href="#DejaVuSans-30"/>
       <use x="159.033203" xlink:href="#DejaVuSans-36"/>
      </g>
     </g>
    </g>
    <g id="ytick_8">
     <g id="line2d_13">
      <g>
       <use style="stroke:#000000;stroke-width:0.8;" x="57.6" xlink:href="#m628b0784b6" y="67.862257"/>
      </g>
     </g>
     <g id="text_13">
      <!-- 0.07 -->
      <g transform="translate(28.334375 71.661476)scale(0.1 -0.1)">
       <defs>
        <path d="M 525 4666 
L 3525 4666 
L 3525 4397 
L 1831 0 
L 1172 0 
L 2766 4134 
L 525 4134 
L 525 4666 
z
" id="DejaVuSans-37" transform="scale(0.015625)"/>
       </defs>
       <use xlink:href="#DejaVuSans-30"/>
       <use x="63.623047" xlink:href="#DejaVuSans-2e"/>
       <use x="95.410156" xlink:href="#DejaVuSans-30"/>
       <use x="159.033203" xlink:href="#DejaVuSans-37"/>
      </g>
     </g>
    </g>
   </g>
   <g id="patch_123">
    <path d="M 57.6 307.584 
L 57.6 41.472 
" style="fill:none;stroke:#000000;stroke-linecap:square;stroke-linejoin:miter;stroke-width:0.8;"/>
   </g>
   <g id="patch_124">
    <path d="M 414.72 307.584 
L 414.72 41.472 
" style="fill:none;stroke:#000000;stroke-linecap:square;stroke-linejoin:miter;stroke-width:0.8;"/>
   </g>
   <g id="patch_125">
    <path d="M 57.6 307.584 
L 414.72 307.584 
" style="fill:none;stroke:#000000;stroke-linecap:square;stroke-linejoin:miter;stroke-width:0.8;"/>
   </g>
   <g id="patch_126">
    <path d="M 57.6 41.472 
L 414.72 41.472 
" style="fill:none;stroke:#000000;stroke-linecap:square;stroke-linejoin:miter;stroke-width:0.8;"/>
   </g>
   <g id="text_14">
    <!-- GAUSSIANIZED_feature_5 -->
    <g transform="translate(159.26625 35.472)scale(0.12 -0.12)">
     <defs>
      <path d="M 3809 666 
L 3809 1919 
L 2778 1919 
L 2778 2438 
L 4434 2438 
L 4434 434 
Q 4069 175 3628 42 
Q 3188 -91 2688 -91 
Q 1594 -91 976 548 
Q 359 1188 359 2328 
Q 359 3472 976 4111 
Q 1594 4750 2688 4750 
Q 3144 4750 3555 4637 
Q 3966 4525 4313 4306 
L 4313 3634 
Q 3963 3931 3569 4081 
Q 3175 4231 2741 4231 
Q 1884 4231 1454 3753 
Q 1025 3275 1025 2328 
Q 1025 1384 1454 906 
Q 1884 428 2741 428 
Q 3075 428 3337 486 
Q 3600 544 3809 666 
z
" id="DejaVuSans-47" transform="scale(0.015625)"/>
      <path d="M 2188 4044 
L 1331 1722 
L 3047 1722 
L 2188 4044 
z
M 1831 4666 
L 2547 4666 
L 4325 0 
L 3669 0 
L 3244 1197 
L 1141 1197 
L 716 0 
L 50 0 
L 1831 4666 
z
" id="DejaVuSans-41" transform="scale(0.015625)"/>
      <path d="M 556 4666 
L 1191 4666 
L 1191 1831 
Q 1191 1081 1462 751 
Q 1734 422 2344 422 
Q 2950 422 3222 751 
Q 3494 1081 3494 1831 
L 3494 4666 
L 4128 4666 
L 4128 1753 
Q 4128 841 3676 375 
Q 3225 -91 2344 -91 
Q 1459 -91 1007 375 
Q 556 841 556 1753 
L 556 4666 
z
" id="DejaVuSans-55" transform="scale(0.015625)"/>
      <path d="M 3425 4513 
L 3425 3897 
Q 3066 4069 2747 4153 
Q 2428 4238 2131 4238 
Q 1616 4238 1336 4038 
Q 1056 3838 1056 3469 
Q 1056 3159 1242 3001 
Q 1428 2844 1947 2747 
L 2328 2669 
Q 3034 2534 3370 2195 
Q 3706 1856 3706 1288 
Q 3706 609 3251 259 
Q 2797 -91 1919 -91 
Q 1588 -91 1214 -16 
Q 841 59 441 206 
L 441 856 
Q 825 641 1194 531 
Q 1563 422 1919 422 
Q 2459 422 2753 634 
Q 3047 847 3047 1241 
Q 3047 1584 2836 1778 
Q 2625 1972 2144 2069 
L 1759 2144 
Q 1053 2284 737 2584 
Q 422 2884 422 3419 
Q 422 4038 858 4394 
Q 1294 4750 2059 4750 
Q 2388 4750 2728 4690 
Q 3069 4631 3425 4513 
z
" id="DejaVuSans-53" transform="scale(0.015625)"/>
      <path d="M 628 4666 
L 1259 4666 
L 1259 0 
L 628 0 
L 628 4666 
z
" id="DejaVuSans-49" transform="scale(0.015625)"/>
      <path d="M 628 4666 
L 1478 4666 
L 3547 763 
L 3547 4666 
L 4159 4666 
L 4159 0 
L 3309 0 
L 1241 3903 
L 1241 0 
L 628 0 
L 628 4666 
z
" id="DejaVuSans-4e" transform="scale(0.015625)"/>
      <path d="M 359 4666 
L 4025 4666 
L 4025 4184 
L 1075 531 
L 4097 531 
L 4097 0 
L 288 0 
L 288 481 
L 3238 4134 
L 359 4134 
L 359 4666 
z
" id="DejaVuSans-5a" transform="scale(0.015625)"/>
      <path d="M 628 4666 
L 3578 4666 
L 3578 4134 
L 1259 4134 
L 1259 2753 
L 3481 2753 
L 3481 2222 
L 1259 2222 
L 1259 531 
L 3634 531 
L 3634 0 
L 628 0 
L 628 4666 
z
" id="DejaVuSans-45" transform="scale(0.015625)"/>
      <path d="M 1259 4147 
L 1259 519 
L 2022 519 
Q 2988 519 3436 956 
Q 3884 1394 3884 2338 
Q 3884 3275 3436 3711 
Q 2988 4147 2022 4147 
L 1259 4147 
z
M 628 4666 
L 1925 4666 
Q 3281 4666 3915 4102 
Q 4550 3538 4550 2338 
Q 4550 1131 3912 565 
Q 3275 0 1925 0 
L 628 0 
L 628 4666 
z
" id="DejaVuSans-44" transform="scale(0.015625)"/>
      <path d="M 3263 -1063 
L 3263 -1509 
L -63 -1509 
L -63 -1063 
L 3263 -1063 
z
" id="DejaVuSans-5f" transform="scale(0.015625)"/>
      <path d="M 2375 4863 
L 2375 4384 
L 1825 4384 
Q 1516 4384 1395 4259 
Q 1275 4134 1275 3809 
L 1275 3500 
L 2222 3500 
L 2222 3053 
L 1275 3053 
L 1275 0 
L 697 0 
L 697 3053 
L 147 3053 
L 147 3500 
L 697 3500 
L 697 3744 
Q 697 4328 969 4595 
Q 1241 4863 1831 4863 
L 2375 4863 
z
" id="DejaVuSans-66" transform="scale(0.015625)"/>
      <path d="M 3597 1894 
L 3597 1613 
L 953 1613 
Q 991 1019 1311 708 
Q 1631 397 2203 397 
Q 2534 397 2845 478 
Q 3156 559 3463 722 
L 3463 178 
Q 3153 47 2828 -22 
Q 2503 -91 2169 -91 
Q 1331 -91 842 396 
Q 353 884 353 1716 
Q 353 2575 817 3079 
Q 1281 3584 2069 3584 
Q 2775 3584 3186 3129 
Q 3597 2675 3597 1894 
z
M 3022 2063 
Q 3016 2534 2758 2815 
Q 2500 3097 2075 3097 
Q 1594 3097 1305 2825 
Q 1016 2553 972 2059 
L 3022 2063 
z
" id="DejaVuSans-65" transform="scale(0.015625)"/>
      <path d="M 2194 1759 
Q 1497 1759 1228 1600 
Q 959 1441 959 1056 
Q 959 750 1161 570 
Q 1363 391 1709 391 
Q 2188 391 2477 730 
Q 2766 1069 2766 1631 
L 2766 1759 
L 2194 1759 
z
M 3341 1997 
L 3341 0 
L 2766 0 
L 2766 531 
Q 2569 213 2275 61 
Q 1981 -91 1556 -91 
Q 1019 -91 701 211 
Q 384 513 384 1019 
Q 384 1609 779 1909 
Q 1175 2209 1959 2209 
L 2766 2209 
L 2766 2266 
Q 2766 2663 2505 2880 
Q 2244 3097 1772 3097 
Q 1472 3097 1187 3025 
Q 903 2953 641 2809 
L 641 3341 
Q 956 3463 1253 3523 
Q 1550 3584 1831 3584 
Q 2591 3584 2966 3190 
Q 3341 2797 3341 1997 
z
" id="DejaVuSans-61" transform="scale(0.015625)"/>
      <path d="M 1172 4494 
L 1172 3500 
L 2356 3500 
L 2356 3053 
L 1172 3053 
L 1172 1153 
Q 1172 725 1289 603 
Q 1406 481 1766 481 
L 2356 481 
L 2356 0 
L 1766 0 
Q 1100 0 847 248 
Q 594 497 594 1153 
L 594 3053 
L 172 3053 
L 172 3500 
L 594 3500 
L 594 4494 
L 1172 4494 
z
" id="DejaVuSans-74" transform="scale(0.015625)"/>
      <path d="M 544 1381 
L 544 3500 
L 1119 3500 
L 1119 1403 
Q 1119 906 1312 657 
Q 1506 409 1894 409 
Q 2359 409 2629 706 
Q 2900 1003 2900 1516 
L 2900 3500 
L 3475 3500 
L 3475 0 
L 2900 0 
L 2900 538 
Q 2691 219 2414 64 
Q 2138 -91 1772 -91 
Q 1169 -91 856 284 
Q 544 659 544 1381 
z
M 1991 3584 
L 1991 3584 
z
" id="DejaVuSans-75" transform="scale(0.015625)"/>
      <path d="M 2631 2963 
Q 2534 3019 2420 3045 
Q 2306 3072 2169 3072 
Q 1681 3072 1420 2755 
Q 1159 2438 1159 1844 
L 1159 0 
L 581 0 
L 581 3500 
L 1159 3500 
L 1159 2956 
Q 1341 3275 1631 3429 
Q 1922 3584 2338 3584 
Q 2397 3584 2469 3576 
Q 2541 3569 2628 3553 
L 2631 2963 
z
" id="DejaVuSans-72" transform="scale(0.015625)"/>
     </defs>
     <use xlink:href="#DejaVuSans-47"/>
     <use x="77.490234" xlink:href="#DejaVuSans-41"/>
     <use x="145.898438" xlink:href="#DejaVuSans-55"/>
     <use x="219.091797" xlink:href="#DejaVuSans-53"/>
     <use x="282.568359" xlink:href="#DejaVuSans-53"/>
     <use x="346.044922" xlink:href="#DejaVuSans-49"/>
     <use x="375.537109" xlink:href="#DejaVuSans-41"/>
     <use x="443.945312" xlink:href="#DejaVuSans-4e"/>
     <use x="518.75" xlink:href="#DejaVuSans-49"/>
     <use x="548.242188" xlink:href="#DejaVuSans-5a"/>
     <use x="616.748047" xlink:href="#DejaVuSans-45"/>
     <use x="679.931641" xlink:href="#DejaVuSans-44"/>
     <use x="756.933594" xlink:href="#DejaVuSans-5f"/>
     <use x="806.933594" xlink:href="#DejaVuSans-66"/>
     <use x="842.138672" xlink:href="#DejaVuSans-65"/>
     <use x="903.662109" xlink:href="#DejaVuSans-61"/>
     <use x="964.941406" xlink:href="#DejaVuSans-74"/>
     <use x="1004.150391" xlink:href="#DejaVuSans-75"/>
     <use x="1067.529297" xlink:href="#DejaVuSans-72"/>
     <use x="1106.392578" xlink:href="#DejaVuSans-65"/>
     <use x="1167.916016" xlink:href="#DejaVuSans-5f"/>
     <use x="1217.916016" xlink:href="#DejaVuSans-35"/>
    </g>
   </g>
   <g id="legend_1">
    <g id="patch_127">
     <path d="M 341.246563 78.82825 
L 407.72 78.82825 
Q 409.72 78.82825 409.72 76.82825 
L 409.72 48.472 
Q 409.72 46.472 407.72 46.472 
L 341.246563 46.472 
Q 339.246563 46.472 339.246563 48.472 
L 339.246563 76.82825 
Q 339.246563 78.82825 341.246563 78.82825 
z
" style="fill:#ffffff;opacity:0.8;stroke:#cccccc;stroke-linejoin:miter;"/>
    </g>
    <g id="patch_128">
     <path d="M 343.246563 58.070437 
L 363.246563 58.070437 
L 363.246563 51.070437 
L 343.246563 51.070437 
z
" style="fill:#ff0000;opacity:0.4;stroke:#000000;stroke-linejoin:miter;"/>
    </g>
    <g id="text_15">
     <!-- male -->
     <g transform="translate(371.246563 58.070437)scale(0.1 -0.1)">
      <defs>
       <path d="M 3328 2828 
Q 3544 3216 3844 3400 
Q 4144 3584 4550 3584 
Q 5097 3584 5394 3201 
Q 5691 2819 5691 2113 
L 5691 0 
L 5113 0 
L 5113 2094 
Q 5113 2597 4934 2840 
Q 4756 3084 4391 3084 
Q 3944 3084 3684 2787 
Q 3425 2491 3425 1978 
L 3425 0 
L 2847 0 
L 2847 2094 
Q 2847 2600 2669 2842 
Q 2491 3084 2119 3084 
Q 1678 3084 1418 2786 
Q 1159 2488 1159 1978 
L 1159 0 
L 581 0 
L 581 3500 
L 1159 3500 
L 1159 2956 
Q 1356 3278 1631 3431 
Q 1906 3584 2284 3584 
Q 2666 3584 2933 3390 
Q 3200 3197 3328 2828 
z
" id="DejaVuSans-6d" transform="scale(0.015625)"/>
       <path d="M 603 4863 
L 1178 4863 
L 1178 0 
L 603 0 
L 603 4863 
z
" id="DejaVuSans-6c" transform="scale(0.015625)"/>
      </defs>
      <use xlink:href="#DejaVuSans-6d"/>
      <use x="97.412109" xlink:href="#DejaVuSans-61"/>
      <use x="158.691406" xlink:href="#DejaVuSans-6c"/>
      <use x="186.474609" xlink:href="#DejaVuSans-65"/>
     </g>
    </g>
    <g id="patch_129">
     <path d="M 343.246563 72.748562 
L 363.246563 72.748562 
L 363.246563 65.748562 
L 343.246563 65.748562 
z
" style="fill:#0000ff;opacity:0.4;stroke:#000000;stroke-linejoin:miter;"/>
    </g>
    <g id="text_16">
     <!-- female -->
     <g transform="translate(371.246563 72.748562)scale(0.1 -0.1)">
      <use xlink:href="#DejaVuSans-66"/>
      <use x="35.205078" xlink:href="#DejaVuSans-65"/>
      <use x="96.728516" xlink:href="#DejaVuSans-6d"/>
      <use x="194.140625" xlink:href="#DejaVuSans-61"/>
      <use x="255.419922" xlink:href="#DejaVuSans-6c"/>
      <use x="283.203125" xlink:href="#DejaVuSans-65"/>
     </g>
    </g>
   </g>
  </g>
 </g>
 <defs>
  <clipPath id="p4b95e8a2ca">
   <rect height="266.112" width="357.12" x="57.6" y="41.472"/>
  </clipPath>
 </defs>
</svg>
