<?xml version="1.0" encoding="utf-8" standalone="no"?>
<!DOCTYPE svg PUBLIC "-//W3C//DTD SVG 1.1//EN"
  "http://www.w3.org/Graphics/SVG/1.1/DTD/svg11.dtd">
<svg height="345.6pt" version="1.1" viewBox="0 0 460.8 345.6" width="460.8pt" xmlns="http://www.w3.org/2000/svg" xmlns:xlink="http://www.w3.org/1999/xlink">
 <metadata>
  <rdf:RDF xmlns:cc="http://creativecommons.org/ns#" xmlns:dc="http://purl.org/dc/elements/1.1/" xmlns:rdf="http://www.w3.org/1999/02/22-rdf-syntax-ns#">
   <cc:Work>
    <dc:type rdf:resource="http://purl.org/dc/dcmitype/StillImage"/>
    <dc:date>2022-08-17T11:35:10.858557</dc:date>
    <dc:format>image/svg+xml</dc:format>
    <dc:creator>
     <cc:Agent>
      <dc:title>Matplotlib v3.4.3, https://matplotlib.org/</dc:title>
     </cc:Agent>
    </dc:creator>
   </cc:Work>
  </rdf:RDF>
 </metadata>
 <defs>
  <style type="text/css">*{stroke-linecap:butt;stroke-linejoin:round;}</style>
 </defs>
 <g id="figure_1">
  <g id="patch_1">
   <path d="M 0 345.6 
L 460.8 345.6 
L 460.8 0 
L 0 0 
z
" style="fill:#ffffff;"/>
  </g>
  <g id="axes_1">
   <g id="patch_2">
    <path d="M 57.6 307.584 
L 414.72 307.584 
L 414.72 41.472 
L 57.6 41.472 
z
" style="fill:#ffffff;"/>
   </g>
   <g id="patch_3">
    <path clip-path="url(#pe56945b762)" d="M 73.832727 307.584 
L 78.965958 307.584 
L 78.965958 305.990527 
L 73.832727 305.990527 
z
" style="fill:#ff0000;opacity:0.4;stroke:#000000;stroke-linejoin:miter;"/>
   </g>
   <g id="patch_4">
    <path clip-path="url(#pe56945b762)" d="M 78.965958 307.584 
L 84.09919 307.584 
L 84.09919 305.990527 
L 78.965958 305.990527 
z
" style="fill:#ff0000;opacity:0.4;stroke:#000000;stroke-linejoin:miter;"/>
   </g>
   <g id="patch_5">
    <path clip-path="url(#pe56945b762)" d="M 84.09919 307.584 
L 89.232421 307.584 
L 89.232421 305.990527 
L 84.09919 305.990527 
z
" style="fill:#ff0000;opacity:0.4;stroke:#000000;stroke-linejoin:miter;"/>
   </g>
   <g id="patch_6">
    <path clip-path="url(#pe56945b762)" d="M 89.232421 307.584 
L 94.365652 307.584 
L 94.365652 305.990527 
L 89.232421 305.990527 
z
" style="fill:#ff0000;opacity:0.4;stroke:#000000;stroke-linejoin:miter;"/>
   </g>
   <g id="patch_7">
    <path clip-path="url(#pe56945b762)" d="M 94.365652 307.584 
L 99.498883 307.584 
L 99.498883 302.803581 
L 94.365652 302.803581 
z
" style="fill:#ff0000;opacity:0.4;stroke:#000000;stroke-linejoin:miter;"/>
   </g>
   <g id="patch_8">
    <path clip-path="url(#pe56945b762)" d="M 99.498883 307.584 
L 104.632114 307.584 
L 104.632114 304.397054 
L 99.498883 304.397054 
z
" style="fill:#ff0000;opacity:0.4;stroke:#000000;stroke-linejoin:miter;"/>
   </g>
   <g id="patch_9">
    <path clip-path="url(#pe56945b762)" d="M 104.632114 307.584 
L 109.765345 307.584 
L 109.765345 301.210108 
L 104.632114 301.210108 
z
" style="fill:#ff0000;opacity:0.4;stroke:#000000;stroke-linejoin:miter;"/>
   </g>
   <g id="patch_10">
    <path clip-path="url(#pe56945b762)" d="M 109.765345 307.584 
L 114.898576 307.584 
L 114.898576 298.023162 
L 109.765345 298.023162 
z
" style="fill:#ff0000;opacity:0.4;stroke:#000000;stroke-linejoin:miter;"/>
   </g>
   <g id="patch_11">
    <path clip-path="url(#pe56945b762)" d="M 114.898576 307.584 
L 120.031808 307.584 
L 120.031808 294.836215 
L 114.898576 294.836215 
z
" style="fill:#ff0000;opacity:0.4;stroke:#000000;stroke-linejoin:miter;"/>
   </g>
   <g id="patch_12">
    <path clip-path="url(#pe56945b762)" d="M 120.031808 307.584 
L 125.165039 307.584 
L 125.165039 290.055796 
L 120.031808 290.055796 
z
" style="fill:#ff0000;opacity:0.4;stroke:#000000;stroke-linejoin:miter;"/>
   </g>
   <g id="patch_13">
    <path clip-path="url(#pe56945b762)" d="M 125.165039 307.584 
L 130.29827 307.584 
L 130.29827 288.462323 
L 125.165039 288.462323 
z
" style="fill:#ff0000;opacity:0.4;stroke:#000000;stroke-linejoin:miter;"/>
   </g>
   <g id="patch_14">
    <path clip-path="url(#pe56945b762)" d="M 130.29827 307.584 
L 135.431501 307.584 
L 135.431501 278.901485 
L 130.29827 278.901485 
z
" style="fill:#ff0000;opacity:0.4;stroke:#000000;stroke-linejoin:miter;"/>
   </g>
   <g id="patch_15">
    <path clip-path="url(#pe56945b762)" d="M 135.431501 307.584 
L 140.564732 307.584 
L 140.564732 275.714539 
L 135.431501 275.714539 
z
" style="fill:#ff0000;opacity:0.4;stroke:#000000;stroke-linejoin:miter;"/>
   </g>
   <g id="patch_16">
    <path clip-path="url(#pe56945b762)" d="M 140.564732 307.584 
L 145.697963 307.584 
L 145.697963 269.340646 
L 140.564732 269.340646 
z
" style="fill:#ff0000;opacity:0.4;stroke:#000000;stroke-linejoin:miter;"/>
   </g>
   <g id="patch_17">
    <path clip-path="url(#pe56945b762)" d="M 145.697963 307.584 
L 150.831194 307.584 
L 150.831194 258.186335 
L 145.697963 258.186335 
z
" style="fill:#ff0000;opacity:0.4;stroke:#000000;stroke-linejoin:miter;"/>
   </g>
   <g id="patch_18">
    <path clip-path="url(#pe56945b762)" d="M 150.831194 307.584 
L 155.964425 307.584 
L 155.964425 243.845077 
L 150.831194 243.845077 
z
" style="fill:#ff0000;opacity:0.4;stroke:#000000;stroke-linejoin:miter;"/>
   </g>
   <g id="patch_19">
    <path clip-path="url(#pe56945b762)" d="M 155.964425 307.584 
L 161.097657 307.584 
L 161.097657 237.471185 
L 155.964425 237.471185 
z
" style="fill:#ff0000;opacity:0.4;stroke:#000000;stroke-linejoin:miter;"/>
   </g>
   <g id="patch_20">
    <path clip-path="url(#pe56945b762)" d="M 161.097657 307.584 
L 166.230888 307.584 
L 166.230888 216.756035 
L 161.097657 216.756035 
z
" style="fill:#ff0000;opacity:0.4;stroke:#000000;stroke-linejoin:miter;"/>
   </g>
   <g id="patch_21">
    <path clip-path="url(#pe56945b762)" d="M 166.230888 307.584 
L 171.364119 307.584 
L 171.364119 194.447412 
L 166.230888 194.447412 
z
" style="fill:#ff0000;opacity:0.4;stroke:#000000;stroke-linejoin:miter;"/>
   </g>
   <g id="patch_22">
    <path clip-path="url(#pe56945b762)" d="M 171.364119 307.584 
L 176.49735 307.584 
L 176.49735 180.106154 
L 171.364119 180.106154 
z
" style="fill:#ff0000;opacity:0.4;stroke:#000000;stroke-linejoin:miter;"/>
   </g>
   <g id="patch_23">
    <path clip-path="url(#pe56945b762)" d="M 176.49735 307.584 
L 181.630581 307.584 
L 181.630581 168.951843 
L 176.49735 168.951843 
z
" style="fill:#ff0000;opacity:0.4;stroke:#000000;stroke-linejoin:miter;"/>
   </g>
   <g id="patch_24">
    <path clip-path="url(#pe56945b762)" d="M 181.630581 307.584 
L 186.763812 307.584 
L 186.763812 141.8628 
L 181.630581 141.8628 
z
" style="fill:#ff0000;opacity:0.4;stroke:#000000;stroke-linejoin:miter;"/>
   </g>
   <g id="patch_25">
    <path clip-path="url(#pe56945b762)" d="M 186.763812 307.584 
L 191.897043 307.584 
L 191.897043 117.960704 
L 186.763812 117.960704 
z
" style="fill:#ff0000;opacity:0.4;stroke:#000000;stroke-linejoin:miter;"/>
   </g>
   <g id="patch_26">
    <path clip-path="url(#pe56945b762)" d="M 191.897043 307.584 
L 197.030275 307.584 
L 197.030275 87.684716 
L 191.897043 87.684716 
z
" style="fill:#ff0000;opacity:0.4;stroke:#000000;stroke-linejoin:miter;"/>
   </g>
   <g id="patch_27">
    <path clip-path="url(#pe56945b762)" d="M 197.030275 307.584 
L 202.163506 307.584 
L 202.163506 94.058608 
L 197.030275 94.058608 
z
" style="fill:#ff0000;opacity:0.4;stroke:#000000;stroke-linejoin:miter;"/>
   </g>
   <g id="patch_28">
    <path clip-path="url(#pe56945b762)" d="M 202.163506 307.584 
L 207.296737 307.584 
L 207.296737 90.871662 
L 202.163506 90.871662 
z
" style="fill:#ff0000;opacity:0.4;stroke:#000000;stroke-linejoin:miter;"/>
   </g>
   <g id="patch_29">
    <path clip-path="url(#pe56945b762)" d="M 207.296737 307.584 
L 212.429968 307.584 
L 212.429968 73.343458 
L 207.296737 73.343458 
z
" style="fill:#ff0000;opacity:0.4;stroke:#000000;stroke-linejoin:miter;"/>
   </g>
   <g id="patch_30">
    <path clip-path="url(#pe56945b762)" d="M 212.429968 307.584 
L 217.563199 307.584 
L 217.563199 66.969566 
L 212.429968 66.969566 
z
" style="fill:#ff0000;opacity:0.4;stroke:#000000;stroke-linejoin:miter;"/>
   </g>
   <g id="patch_31">
    <path clip-path="url(#pe56945b762)" d="M 217.563199 307.584 
L 222.69643 307.584 
L 222.69643 89.278189 
L 217.563199 89.278189 
z
" style="fill:#ff0000;opacity:0.4;stroke:#000000;stroke-linejoin:miter;"/>
   </g>
   <g id="patch_32">
    <path clip-path="url(#pe56945b762)" d="M 222.69643 307.584 
L 227.829661 307.584 
L 227.829661 63.78262 
L 222.69643 63.78262 
z
" style="fill:#ff0000;opacity:0.4;stroke:#000000;stroke-linejoin:miter;"/>
   </g>
   <g id="patch_33">
    <path clip-path="url(#pe56945b762)" d="M 227.829661 307.584 
L 232.962893 307.584 
L 232.962893 78.123877 
L 227.829661 78.123877 
z
" style="fill:#ff0000;opacity:0.4;stroke:#000000;stroke-linejoin:miter;"/>
   </g>
   <g id="patch_34">
    <path clip-path="url(#pe56945b762)" d="M 232.962893 307.584 
L 238.096124 307.584 
L 238.096124 78.123877 
L 232.962893 78.123877 
z
" style="fill:#ff0000;opacity:0.4;stroke:#000000;stroke-linejoin:miter;"/>
   </g>
   <g id="patch_35">
    <path clip-path="url(#pe56945b762)" d="M 238.096124 307.584 
L 243.229355 307.584 
L 243.229355 100.4325 
L 238.096124 100.4325 
z
" style="fill:#ff0000;opacity:0.4;stroke:#000000;stroke-linejoin:miter;"/>
   </g>
   <g id="patch_36">
    <path clip-path="url(#pe56945b762)" d="M 243.229355 307.584 
L 248.362586 307.584 
L 248.362586 135.488908 
L 243.229355 135.488908 
z
" style="fill:#ff0000;opacity:0.4;stroke:#000000;stroke-linejoin:miter;"/>
   </g>
   <g id="patch_37">
    <path clip-path="url(#pe56945b762)" d="M 248.362586 307.584 
L 253.495817 307.584 
L 253.495817 160.984477 
L 248.362586 160.984477 
z
" style="fill:#ff0000;opacity:0.4;stroke:#000000;stroke-linejoin:miter;"/>
   </g>
   <g id="patch_38">
    <path clip-path="url(#pe56945b762)" d="M 253.495817 307.584 
L 258.629048 307.584 
L 258.629048 137.082381 
L 253.495817 137.082381 
z
" style="fill:#ff0000;opacity:0.4;stroke:#000000;stroke-linejoin:miter;"/>
   </g>
   <g id="patch_39">
    <path clip-path="url(#pe56945b762)" d="M 258.629048 307.584 
L 263.762279 307.584 
L 263.762279 178.512681 
L 258.629048 178.512681 
z
" style="fill:#ff0000;opacity:0.4;stroke:#000000;stroke-linejoin:miter;"/>
   </g>
   <g id="patch_40">
    <path clip-path="url(#pe56945b762)" d="M 263.762279 307.584 
L 268.895511 307.584 
L 268.895511 172.138789 
L 263.762279 172.138789 
z
" style="fill:#ff0000;opacity:0.4;stroke:#000000;stroke-linejoin:miter;"/>
   </g>
   <g id="patch_41">
    <path clip-path="url(#pe56945b762)" d="M 268.895511 307.584 
L 274.028742 307.584 
L 274.028742 199.227831 
L 268.895511 199.227831 
z
" style="fill:#ff0000;opacity:0.4;stroke:#000000;stroke-linejoin:miter;"/>
   </g>
   <g id="patch_42">
    <path clip-path="url(#pe56945b762)" d="M 274.028742 307.584 
L 279.161973 307.584 
L 279.161973 226.316873 
L 274.028742 226.316873 
z
" style="fill:#ff0000;opacity:0.4;stroke:#000000;stroke-linejoin:miter;"/>
   </g>
   <g id="patch_43">
    <path clip-path="url(#pe56945b762)" d="M 279.161973 307.584 
L 284.295204 307.584 
L 284.295204 247.032023 
L 279.161973 247.032023 
z
" style="fill:#ff0000;opacity:0.4;stroke:#000000;stroke-linejoin:miter;"/>
   </g>
   <g id="patch_44">
    <path clip-path="url(#pe56945b762)" d="M 284.295204 307.584 
L 289.428435 307.584 
L 289.428435 237.471185 
L 284.295204 237.471185 
z
" style="fill:#ff0000;opacity:0.4;stroke:#000000;stroke-linejoin:miter;"/>
   </g>
   <g id="patch_45">
    <path clip-path="url(#pe56945b762)" d="M 289.428435 307.584 
L 294.561666 307.584 
L 294.561666 256.592862 
L 289.428435 256.592862 
z
" style="fill:#ff0000;opacity:0.4;stroke:#000000;stroke-linejoin:miter;"/>
   </g>
   <g id="patch_46">
    <path clip-path="url(#pe56945b762)" d="M 294.561666 307.584 
L 299.694897 307.584 
L 299.694897 253.405915 
L 294.561666 253.405915 
z
" style="fill:#ff0000;opacity:0.4;stroke:#000000;stroke-linejoin:miter;"/>
   </g>
   <g id="patch_47">
    <path clip-path="url(#pe56945b762)" d="M 299.694897 307.584 
L 304.828129 307.584 
L 304.828129 267.747173 
L 299.694897 267.747173 
z
" style="fill:#ff0000;opacity:0.4;stroke:#000000;stroke-linejoin:miter;"/>
   </g>
   <g id="patch_48">
    <path clip-path="url(#pe56945b762)" d="M 304.828129 307.584 
L 309.96136 307.584 
L 309.96136 278.901485 
L 304.828129 278.901485 
z
" style="fill:#ff0000;opacity:0.4;stroke:#000000;stroke-linejoin:miter;"/>
   </g>
   <g id="patch_49">
    <path clip-path="url(#pe56945b762)" d="M 309.96136 307.584 
L 315.094591 307.584 
L 315.094591 290.055796 
L 309.96136 290.055796 
z
" style="fill:#ff0000;opacity:0.4;stroke:#000000;stroke-linejoin:miter;"/>
   </g>
   <g id="patch_50">
    <path clip-path="url(#pe56945b762)" d="M 315.094591 307.584 
L 320.227822 307.584 
L 320.227822 286.86885 
L 315.094591 286.86885 
z
" style="fill:#ff0000;opacity:0.4;stroke:#000000;stroke-linejoin:miter;"/>
   </g>
   <g id="patch_51">
    <path clip-path="url(#pe56945b762)" d="M 320.227822 307.584 
L 325.361053 307.584 
L 325.361053 282.088431 
L 320.227822 282.088431 
z
" style="fill:#ff0000;opacity:0.4;stroke:#000000;stroke-linejoin:miter;"/>
   </g>
   <g id="patch_52">
    <path clip-path="url(#pe56945b762)" d="M 325.361053 307.584 
L 330.494284 307.584 
L 330.494284 299.616635 
L 325.361053 299.616635 
z
" style="fill:#ff0000;opacity:0.4;stroke:#000000;stroke-linejoin:miter;"/>
   </g>
   <g id="patch_53">
    <path clip-path="url(#pe56945b762)" d="M 330.494284 307.584 
L 335.627515 307.584 
L 335.627515 299.616635 
L 330.494284 299.616635 
z
" style="fill:#ff0000;opacity:0.4;stroke:#000000;stroke-linejoin:miter;"/>
   </g>
   <g id="patch_54">
    <path clip-path="url(#pe56945b762)" d="M 335.627515 307.584 
L 340.760746 307.584 
L 340.760746 304.397054 
L 335.627515 304.397054 
z
" style="fill:#ff0000;opacity:0.4;stroke:#000000;stroke-linejoin:miter;"/>
   </g>
   <g id="patch_55">
    <path clip-path="url(#pe56945b762)" d="M 340.760746 307.584 
L 345.893978 307.584 
L 345.893978 302.803581 
L 340.760746 302.803581 
z
" style="fill:#ff0000;opacity:0.4;stroke:#000000;stroke-linejoin:miter;"/>
   </g>
   <g id="patch_56">
    <path clip-path="url(#pe56945b762)" d="M 345.893978 307.584 
L 351.027209 307.584 
L 351.027209 305.990527 
L 345.893978 305.990527 
z
" style="fill:#ff0000;opacity:0.4;stroke:#000000;stroke-linejoin:miter;"/>
   </g>
   <g id="patch_57">
    <path clip-path="url(#pe56945b762)" d="M 351.027209 307.584 
L 356.16044 307.584 
L 356.16044 307.584 
L 351.027209 307.584 
z
" style="fill:#ff0000;opacity:0.4;stroke:#000000;stroke-linejoin:miter;"/>
   </g>
   <g id="patch_58">
    <path clip-path="url(#pe56945b762)" d="M 356.16044 307.584 
L 361.293671 307.584 
L 361.293671 307.584 
L 356.16044 307.584 
z
" style="fill:#ff0000;opacity:0.4;stroke:#000000;stroke-linejoin:miter;"/>
   </g>
   <g id="patch_59">
    <path clip-path="url(#pe56945b762)" d="M 361.293671 307.584 
L 366.426902 307.584 
L 366.426902 307.584 
L 361.293671 307.584 
z
" style="fill:#ff0000;opacity:0.4;stroke:#000000;stroke-linejoin:miter;"/>
   </g>
   <g id="patch_60">
    <path clip-path="url(#pe56945b762)" d="M 366.426902 307.584 
L 371.560133 307.584 
L 371.560133 305.990527 
L 366.426902 305.990527 
z
" style="fill:#ff0000;opacity:0.4;stroke:#000000;stroke-linejoin:miter;"/>
   </g>
   <g id="patch_61">
    <path clip-path="url(#pe56945b762)" d="M 371.560133 307.584 
L 376.693364 307.584 
L 376.693364 307.584 
L 371.560133 307.584 
z
" style="fill:#ff0000;opacity:0.4;stroke:#000000;stroke-linejoin:miter;"/>
   </g>
   <g id="patch_62">
    <path clip-path="url(#pe56945b762)" d="M 376.693364 307.584 
L 381.826596 307.584 
L 381.826596 305.990527 
L 376.693364 305.990527 
z
" style="fill:#ff0000;opacity:0.4;stroke:#000000;stroke-linejoin:miter;"/>
   </g>
   <g id="patch_63">
    <path clip-path="url(#pe56945b762)" d="M 104.143245 307.584 
L 109.048979 307.584 
L 109.048979 305.916632 
L 104.143245 305.916632 
z
" style="fill:#0000ff;opacity:0.4;stroke:#000000;stroke-linejoin:miter;"/>
   </g>
   <g id="patch_64">
    <path clip-path="url(#pe56945b762)" d="M 109.048979 307.584 
L 113.954713 307.584 
L 113.954713 307.584 
L 109.048979 307.584 
z
" style="fill:#0000ff;opacity:0.4;stroke:#000000;stroke-linejoin:miter;"/>
   </g>
   <g id="patch_65">
    <path clip-path="url(#pe56945b762)" d="M 113.954713 307.584 
L 118.860447 307.584 
L 118.860447 307.584 
L 113.954713 307.584 
z
" style="fill:#0000ff;opacity:0.4;stroke:#000000;stroke-linejoin:miter;"/>
   </g>
   <g id="patch_66">
    <path clip-path="url(#pe56945b762)" d="M 118.860447 307.584 
L 123.766181 307.584 
L 123.766181 307.584 
L 118.860447 307.584 
z
" style="fill:#0000ff;opacity:0.4;stroke:#000000;stroke-linejoin:miter;"/>
   </g>
   <g id="patch_67">
    <path clip-path="url(#pe56945b762)" d="M 123.766181 307.584 
L 128.671914 307.584 
L 128.671914 304.249263 
L 123.766181 304.249263 
z
" style="fill:#0000ff;opacity:0.4;stroke:#000000;stroke-linejoin:miter;"/>
   </g>
   <g id="patch_68">
    <path clip-path="url(#pe56945b762)" d="M 128.671914 307.584 
L 133.577648 307.584 
L 133.577648 307.584 
L 128.671914 307.584 
z
" style="fill:#0000ff;opacity:0.4;stroke:#000000;stroke-linejoin:miter;"/>
   </g>
   <g id="patch_69">
    <path clip-path="url(#pe56945b762)" d="M 133.577648 307.584 
L 138.483382 307.584 
L 138.483382 304.249263 
L 133.577648 304.249263 
z
" style="fill:#0000ff;opacity:0.4;stroke:#000000;stroke-linejoin:miter;"/>
   </g>
   <g id="patch_70">
    <path clip-path="url(#pe56945b762)" d="M 138.483382 307.584 
L 143.389116 307.584 
L 143.389116 302.581895 
L 138.483382 302.581895 
z
" style="fill:#0000ff;opacity:0.4;stroke:#000000;stroke-linejoin:miter;"/>
   </g>
   <g id="patch_71">
    <path clip-path="url(#pe56945b762)" d="M 143.389116 307.584 
L 148.294849 307.584 
L 148.294849 297.579789 
L 143.389116 297.579789 
z
" style="fill:#0000ff;opacity:0.4;stroke:#000000;stroke-linejoin:miter;"/>
   </g>
   <g id="patch_72">
    <path clip-path="url(#pe56945b762)" d="M 148.294849 307.584 
L 153.200583 307.584 
L 153.200583 299.247158 
L 148.294849 299.247158 
z
" style="fill:#0000ff;opacity:0.4;stroke:#000000;stroke-linejoin:miter;"/>
   </g>
   <g id="patch_73">
    <path clip-path="url(#pe56945b762)" d="M 153.200583 307.584 
L 158.106317 307.584 
L 158.106317 299.247158 
L 153.200583 299.247158 
z
" style="fill:#0000ff;opacity:0.4;stroke:#000000;stroke-linejoin:miter;"/>
   </g>
   <g id="patch_74">
    <path clip-path="url(#pe56945b762)" d="M 158.106317 307.584 
L 163.012051 307.584 
L 163.012051 285.908211 
L 158.106317 285.908211 
z
" style="fill:#0000ff;opacity:0.4;stroke:#000000;stroke-linejoin:miter;"/>
   </g>
   <g id="patch_75">
    <path clip-path="url(#pe56945b762)" d="M 163.012051 307.584 
L 167.917785 307.584 
L 167.917785 290.910316 
L 163.012051 290.910316 
z
" style="fill:#0000ff;opacity:0.4;stroke:#000000;stroke-linejoin:miter;"/>
   </g>
   <g id="patch_76">
    <path clip-path="url(#pe56945b762)" d="M 167.917785 307.584 
L 172.823518 307.584 
L 172.823518 285.908211 
L 167.917785 285.908211 
z
" style="fill:#0000ff;opacity:0.4;stroke:#000000;stroke-linejoin:miter;"/>
   </g>
   <g id="patch_77">
    <path clip-path="url(#pe56945b762)" d="M 172.823518 307.584 
L 177.729252 307.584 
L 177.729252 284.240842 
L 172.823518 284.240842 
z
" style="fill:#0000ff;opacity:0.4;stroke:#000000;stroke-linejoin:miter;"/>
   </g>
   <g id="patch_78">
    <path clip-path="url(#pe56945b762)" d="M 177.729252 307.584 
L 182.634986 307.584 
L 182.634986 265.899789 
L 177.729252 265.899789 
z
" style="fill:#0000ff;opacity:0.4;stroke:#000000;stroke-linejoin:miter;"/>
   </g>
   <g id="patch_79">
    <path clip-path="url(#pe56945b762)" d="M 182.634986 307.584 
L 187.54072 307.584 
L 187.54072 269.234526 
L 182.634986 269.234526 
z
" style="fill:#0000ff;opacity:0.4;stroke:#000000;stroke-linejoin:miter;"/>
   </g>
   <g id="patch_80">
    <path clip-path="url(#pe56945b762)" d="M 187.54072 307.584 
L 192.446454 307.584 
L 192.446454 269.234526 
L 187.54072 269.234526 
z
" style="fill:#0000ff;opacity:0.4;stroke:#000000;stroke-linejoin:miter;"/>
   </g>
   <g id="patch_81">
    <path clip-path="url(#pe56945b762)" d="M 192.446454 307.584 
L 197.352187 307.584 
L 197.352187 267.567158 
L 192.446454 267.567158 
z
" style="fill:#0000ff;opacity:0.4;stroke:#000000;stroke-linejoin:miter;"/>
   </g>
   <g id="patch_82">
    <path clip-path="url(#pe56945b762)" d="M 197.352187 307.584 
L 202.257921 307.584 
L 202.257921 234.219789 
L 197.352187 234.219789 
z
" style="fill:#0000ff;opacity:0.4;stroke:#000000;stroke-linejoin:miter;"/>
   </g>
   <g id="patch_83">
    <path clip-path="url(#pe56945b762)" d="M 202.257921 307.584 
L 207.163655 307.584 
L 207.163655 210.876632 
L 202.257921 210.876632 
z
" style="fill:#0000ff;opacity:0.4;stroke:#000000;stroke-linejoin:miter;"/>
   </g>
   <g id="patch_84">
    <path clip-path="url(#pe56945b762)" d="M 207.163655 307.584 
L 212.069389 307.584 
L 212.069389 199.205053 
L 207.163655 199.205053 
z
" style="fill:#0000ff;opacity:0.4;stroke:#000000;stroke-linejoin:miter;"/>
   </g>
   <g id="patch_85">
    <path clip-path="url(#pe56945b762)" d="M 212.069389 307.584 
L 216.975123 307.584 
L 216.975123 197.537684 
L 212.069389 197.537684 
z
" style="fill:#0000ff;opacity:0.4;stroke:#000000;stroke-linejoin:miter;"/>
   </g>
   <g id="patch_86">
    <path clip-path="url(#pe56945b762)" d="M 216.975123 307.584 
L 221.880856 307.584 
L 221.880856 154.186105 
L 216.975123 154.186105 
z
" style="fill:#0000ff;opacity:0.4;stroke:#000000;stroke-linejoin:miter;"/>
   </g>
   <g id="patch_87">
    <path clip-path="url(#pe56945b762)" d="M 221.880856 307.584 
L 226.78659 307.584 
L 226.78659 135.845053 
L 221.880856 135.845053 
z
" style="fill:#0000ff;opacity:0.4;stroke:#000000;stroke-linejoin:miter;"/>
   </g>
   <g id="patch_88">
    <path clip-path="url(#pe56945b762)" d="M 226.78659 307.584 
L 231.692324 307.584 
L 231.692324 139.179789 
L 226.78659 139.179789 
z
" style="fill:#0000ff;opacity:0.4;stroke:#000000;stroke-linejoin:miter;"/>
   </g>
   <g id="patch_89">
    <path clip-path="url(#pe56945b762)" d="M 231.692324 307.584 
L 236.598058 307.584 
L 236.598058 109.167158 
L 231.692324 109.167158 
z
" style="fill:#0000ff;opacity:0.4;stroke:#000000;stroke-linejoin:miter;"/>
   </g>
   <g id="patch_90">
    <path clip-path="url(#pe56945b762)" d="M 236.598058 307.584 
L 241.503791 307.584 
L 241.503791 107.499789 
L 236.598058 107.499789 
z
" style="fill:#0000ff;opacity:0.4;stroke:#000000;stroke-linejoin:miter;"/>
   </g>
   <g id="patch_91">
    <path clip-path="url(#pe56945b762)" d="M 241.503791 307.584 
L 246.409525 307.584 
L 246.409525 65.815579 
L 241.503791 65.815579 
z
" style="fill:#0000ff;opacity:0.4;stroke:#000000;stroke-linejoin:miter;"/>
   </g>
   <g id="patch_92">
    <path clip-path="url(#pe56945b762)" d="M 246.409525 307.584 
L 251.315259 307.584 
L 251.315259 54.144 
L 246.409525 54.144 
z
" style="fill:#0000ff;opacity:0.4;stroke:#000000;stroke-linejoin:miter;"/>
   </g>
   <g id="patch_93">
    <path clip-path="url(#pe56945b762)" d="M 251.315259 307.584 
L 256.220993 307.584 
L 256.220993 70.817684 
L 251.315259 70.817684 
z
" style="fill:#0000ff;opacity:0.4;stroke:#000000;stroke-linejoin:miter;"/>
   </g>
   <g id="patch_94">
    <path clip-path="url(#pe56945b762)" d="M 256.220993 307.584 
L 261.126727 307.584 
L 261.126727 59.146105 
L 256.220993 59.146105 
z
" style="fill:#0000ff;opacity:0.4;stroke:#000000;stroke-linejoin:miter;"/>
   </g>
   <g id="patch_95">
    <path clip-path="url(#pe56945b762)" d="M 261.126727 307.584 
L 266.03246 307.584 
L 266.03246 67.482947 
L 261.126727 67.482947 
z
" style="fill:#0000ff;opacity:0.4;stroke:#000000;stroke-linejoin:miter;"/>
   </g>
   <g id="patch_96">
    <path clip-path="url(#pe56945b762)" d="M 266.03246 307.584 
L 270.938194 307.584 
L 270.938194 75.819789 
L 266.03246 75.819789 
z
" style="fill:#0000ff;opacity:0.4;stroke:#000000;stroke-linejoin:miter;"/>
   </g>
   <g id="patch_97">
    <path clip-path="url(#pe56945b762)" d="M 270.938194 307.584 
L 275.843928 307.584 
L 275.843928 79.154526 
L 270.938194 79.154526 
z
" style="fill:#0000ff;opacity:0.4;stroke:#000000;stroke-linejoin:miter;"/>
   </g>
   <g id="patch_98">
    <path clip-path="url(#pe56945b762)" d="M 275.843928 307.584 
L 280.749662 307.584 
L 280.749662 79.154526 
L 275.843928 79.154526 
z
" style="fill:#0000ff;opacity:0.4;stroke:#000000;stroke-linejoin:miter;"/>
   </g>
   <g id="patch_99">
    <path clip-path="url(#pe56945b762)" d="M 280.749662 307.584 
L 285.655396 307.584 
L 285.655396 97.495579 
L 280.749662 97.495579 
z
" style="fill:#0000ff;opacity:0.4;stroke:#000000;stroke-linejoin:miter;"/>
   </g>
   <g id="patch_100">
    <path clip-path="url(#pe56945b762)" d="M 285.655396 307.584 
L 290.561129 307.584 
L 290.561129 119.171368 
L 285.655396 119.171368 
z
" style="fill:#0000ff;opacity:0.4;stroke:#000000;stroke-linejoin:miter;"/>
   </g>
   <g id="patch_101">
    <path clip-path="url(#pe56945b762)" d="M 290.561129 307.584 
L 295.466863 307.584 
L 295.466863 140.847158 
L 290.561129 140.847158 
z
" style="fill:#0000ff;opacity:0.4;stroke:#000000;stroke-linejoin:miter;"/>
   </g>
   <g id="patch_102">
    <path clip-path="url(#pe56945b762)" d="M 295.466863 307.584 
L 300.372597 307.584 
L 300.372597 162.522947 
L 295.466863 162.522947 
z
" style="fill:#0000ff;opacity:0.4;stroke:#000000;stroke-linejoin:miter;"/>
   </g>
   <g id="patch_103">
    <path clip-path="url(#pe56945b762)" d="M 300.372597 307.584 
L 305.278331 307.584 
L 305.278331 172.527158 
L 300.372597 172.527158 
z
" style="fill:#0000ff;opacity:0.4;stroke:#000000;stroke-linejoin:miter;"/>
   </g>
   <g id="patch_104">
    <path clip-path="url(#pe56945b762)" d="M 305.278331 307.584 
L 310.184065 307.584 
L 310.184065 194.202947 
L 305.278331 194.202947 
z
" style="fill:#0000ff;opacity:0.4;stroke:#000000;stroke-linejoin:miter;"/>
   </g>
   <g id="patch_105">
    <path clip-path="url(#pe56945b762)" d="M 310.184065 307.584 
L 315.089798 307.584 
L 315.089798 195.870316 
L 310.184065 195.870316 
z
" style="fill:#0000ff;opacity:0.4;stroke:#000000;stroke-linejoin:miter;"/>
   </g>
   <g id="patch_106">
    <path clip-path="url(#pe56945b762)" d="M 315.089798 307.584 
L 319.995532 307.584 
L 319.995532 219.213474 
L 315.089798 219.213474 
z
" style="fill:#0000ff;opacity:0.4;stroke:#000000;stroke-linejoin:miter;"/>
   </g>
   <g id="patch_107">
    <path clip-path="url(#pe56945b762)" d="M 319.995532 307.584 
L 324.901266 307.584 
L 324.901266 245.891368 
L 319.995532 245.891368 
z
" style="fill:#0000ff;opacity:0.4;stroke:#000000;stroke-linejoin:miter;"/>
   </g>
   <g id="patch_108">
    <path clip-path="url(#pe56945b762)" d="M 324.901266 307.584 
L 329.807 307.584 
L 329.807 245.891368 
L 324.901266 245.891368 
z
" style="fill:#0000ff;opacity:0.4;stroke:#000000;stroke-linejoin:miter;"/>
   </g>
   <g id="patch_109">
    <path clip-path="url(#pe56945b762)" d="M 329.807 307.584 
L 334.712733 307.584 
L 334.712733 255.895579 
L 329.807 255.895579 
z
" style="fill:#0000ff;opacity:0.4;stroke:#000000;stroke-linejoin:miter;"/>
   </g>
   <g id="patch_110">
    <path clip-path="url(#pe56945b762)" d="M 334.712733 307.584 
L 339.618467 307.584 
L 339.618467 262.565053 
L 334.712733 262.565053 
z
" style="fill:#0000ff;opacity:0.4;stroke:#000000;stroke-linejoin:miter;"/>
   </g>
   <g id="patch_111">
    <path clip-path="url(#pe56945b762)" d="M 339.618467 307.584 
L 344.524201 307.584 
L 344.524201 274.236632 
L 339.618467 274.236632 
z
" style="fill:#0000ff;opacity:0.4;stroke:#000000;stroke-linejoin:miter;"/>
   </g>
   <g id="patch_112">
    <path clip-path="url(#pe56945b762)" d="M 344.524201 307.584 
L 349.429935 307.584 
L 349.429935 277.571368 
L 344.524201 277.571368 
z
" style="fill:#0000ff;opacity:0.4;stroke:#000000;stroke-linejoin:miter;"/>
   </g>
   <g id="patch_113">
    <path clip-path="url(#pe56945b762)" d="M 349.429935 307.584 
L 354.335669 307.584 
L 354.335669 284.240842 
L 349.429935 284.240842 
z
" style="fill:#0000ff;opacity:0.4;stroke:#000000;stroke-linejoin:miter;"/>
   </g>
   <g id="patch_114">
    <path clip-path="url(#pe56945b762)" d="M 354.335669 307.584 
L 359.241402 307.584 
L 359.241402 289.242947 
L 354.335669 289.242947 
z
" style="fill:#0000ff;opacity:0.4;stroke:#000000;stroke-linejoin:miter;"/>
   </g>
   <g id="patch_115">
    <path clip-path="url(#pe56945b762)" d="M 359.241402 307.584 
L 364.147136 307.584 
L 364.147136 294.245053 
L 359.241402 294.245053 
z
" style="fill:#0000ff;opacity:0.4;stroke:#000000;stroke-linejoin:miter;"/>
   </g>
   <g id="patch_116">
    <path clip-path="url(#pe56945b762)" d="M 364.147136 307.584 
L 369.05287 307.584 
L 369.05287 295.912421 
L 364.147136 295.912421 
z
" style="fill:#0000ff;opacity:0.4;stroke:#000000;stroke-linejoin:miter;"/>
   </g>
   <g id="patch_117">
    <path clip-path="url(#pe56945b762)" d="M 369.05287 307.584 
L 373.958604 307.584 
L 373.958604 302.581895 
L 369.05287 302.581895 
z
" style="fill:#0000ff;opacity:0.4;stroke:#000000;stroke-linejoin:miter;"/>
   </g>
   <g id="patch_118">
    <path clip-path="url(#pe56945b762)" d="M 373.958604 307.584 
L 378.864338 307.584 
L 378.864338 300.914526 
L 373.958604 300.914526 
z
" style="fill:#0000ff;opacity:0.4;stroke:#000000;stroke-linejoin:miter;"/>
   </g>
   <g id="patch_119">
    <path clip-path="url(#pe56945b762)" d="M 378.864338 307.584 
L 383.770071 307.584 
L 383.770071 305.916632 
L 378.864338 305.916632 
z
" style="fill:#0000ff;opacity:0.4;stroke:#000000;stroke-linejoin:miter;"/>
   </g>
   <g id="patch_120">
    <path clip-path="url(#pe56945b762)" d="M 383.770071 307.584 
L 388.675805 307.584 
L 388.675805 304.249263 
L 383.770071 304.249263 
z
" style="fill:#0000ff;opacity:0.4;stroke:#000000;stroke-linejoin:miter;"/>
   </g>
   <g id="patch_121">
    <path clip-path="url(#pe56945b762)" d="M 388.675805 307.584 
L 393.581539 307.584 
L 393.581539 304.249263 
L 388.675805 304.249263 
z
" style="fill:#0000ff;opacity:0.4;stroke:#000000;stroke-linejoin:miter;"/>
   </g>
   <g id="patch_122">
    <path clip-path="url(#pe56945b762)" d="M 393.581539 307.584 
L 398.487273 307.584 
L 398.487273 305.916632 
L 393.581539 305.916632 
z
" style="fill:#0000ff;opacity:0.4;stroke:#000000;stroke-linejoin:miter;"/>
   </g>
   <g id="matplotlib.axis_1">
    <g id="xtick_1">
     <g id="line2d_1">
      <defs>
       <path d="M 0 0 
L 0 3.5 
" id="m7b4d7bb441" style="stroke:#000000;stroke-width:0.8;"/>
      </defs>
      <g>
       <use style="stroke:#000000;stroke-width:0.8;" x="101.138791" xlink:href="#m7b4d7bb441" y="307.584"/>
      </g>
     </g>
     <g id="text_1">
      <!-- −3 -->
      <g transform="translate(93.767697 322.182437)scale(0.1 -0.1)">
       <defs>
        <path d="M 678 2272 
L 4684 2272 
L 4684 1741 
L 678 1741 
L 678 2272 
z
" id="DejaVuSans-2212" transform="scale(0.015625)"/>
        <path d="M 2597 2516 
Q 3050 2419 3304 2112 
Q 3559 1806 3559 1356 
Q 3559 666 3084 287 
Q 2609 -91 1734 -91 
Q 1441 -91 1130 -33 
Q 819 25 488 141 
L 488 750 
Q 750 597 1062 519 
Q 1375 441 1716 441 
Q 2309 441 2620 675 
Q 2931 909 2931 1356 
Q 2931 1769 2642 2001 
Q 2353 2234 1838 2234 
L 1294 2234 
L 1294 2753 
L 1863 2753 
Q 2328 2753 2575 2939 
Q 2822 3125 2822 3475 
Q 2822 3834 2567 4026 
Q 2313 4219 1838 4219 
Q 1578 4219 1281 4162 
Q 984 4106 628 3988 
L 628 4550 
Q 988 4650 1302 4700 
Q 1616 4750 1894 4750 
Q 2613 4750 3031 4423 
Q 3450 4097 3450 3541 
Q 3450 3153 3228 2886 
Q 3006 2619 2597 2516 
z
" id="DejaVuSans-33" transform="scale(0.015625)"/>
       </defs>
       <use xlink:href="#DejaVuSans-2212"/>
       <use x="83.789062" xlink:href="#DejaVuSans-33"/>
      </g>
     </g>
    </g>
    <g id="xtick_2">
     <g id="line2d_2">
      <g>
       <use style="stroke:#000000;stroke-width:0.8;" x="147.57755" xlink:href="#m7b4d7bb441" y="307.584"/>
      </g>
     </g>
     <g id="text_2">
      <!-- −2 -->
      <g transform="translate(140.206456 322.182437)scale(0.1 -0.1)">
       <defs>
        <path d="M 1228 531 
L 3431 531 
L 3431 0 
L 469 0 
L 469 531 
Q 828 903 1448 1529 
Q 2069 2156 2228 2338 
Q 2531 2678 2651 2914 
Q 2772 3150 2772 3378 
Q 2772 3750 2511 3984 
Q 2250 4219 1831 4219 
Q 1534 4219 1204 4116 
Q 875 4013 500 3803 
L 500 4441 
Q 881 4594 1212 4672 
Q 1544 4750 1819 4750 
Q 2544 4750 2975 4387 
Q 3406 4025 3406 3419 
Q 3406 3131 3298 2873 
Q 3191 2616 2906 2266 
Q 2828 2175 2409 1742 
Q 1991 1309 1228 531 
z
" id="DejaVuSans-32" transform="scale(0.015625)"/>
       </defs>
       <use xlink:href="#DejaVuSans-2212"/>
       <use x="83.789062" xlink:href="#DejaVuSans-32"/>
      </g>
     </g>
    </g>
    <g id="xtick_3">
     <g id="line2d_3">
      <g>
       <use style="stroke:#000000;stroke-width:0.8;" x="194.016309" xlink:href="#m7b4d7bb441" y="307.584"/>
      </g>
     </g>
     <g id="text_3">
      <!-- −1 -->
      <g transform="translate(186.645215 322.182437)scale(0.1 -0.1)">
       <defs>
        <path d="M 794 531 
L 1825 531 
L 1825 4091 
L 703 3866 
L 703 4441 
L 1819 4666 
L 2450 4666 
L 2450 531 
L 3481 531 
L 3481 0 
L 794 0 
L 794 531 
z
" id="DejaVuSans-31" transform="scale(0.015625)"/>
       </defs>
       <use xlink:href="#DejaVuSans-2212"/>
       <use x="83.789062" xlink:href="#DejaVuSans-31"/>
      </g>
     </g>
    </g>
    <g id="xtick_4">
     <g id="line2d_4">
      <g>
       <use style="stroke:#000000;stroke-width:0.8;" x="240.455067" xlink:href="#m7b4d7bb441" y="307.584"/>
      </g>
     </g>
     <g id="text_4">
      <!-- 0 -->
      <g transform="translate(237.273817 322.182437)scale(0.1 -0.1)">
       <defs>
        <path d="M 2034 4250 
Q 1547 4250 1301 3770 
Q 1056 3291 1056 2328 
Q 1056 1369 1301 889 
Q 1547 409 2034 409 
Q 2525 409 2770 889 
Q 3016 1369 3016 2328 
Q 3016 3291 2770 3770 
Q 2525 4250 2034 4250 
z
M 2034 4750 
Q 2819 4750 3233 4129 
Q 3647 3509 3647 2328 
Q 3647 1150 3233 529 
Q 2819 -91 2034 -91 
Q 1250 -91 836 529 
Q 422 1150 422 2328 
Q 422 3509 836 4129 
Q 1250 4750 2034 4750 
z
" id="DejaVuSans-30" transform="scale(0.015625)"/>
       </defs>
       <use xlink:href="#DejaVuSans-30"/>
      </g>
     </g>
    </g>
    <g id="xtick_5">
     <g id="line2d_5">
      <g>
       <use style="stroke:#000000;stroke-width:0.8;" x="286.893826" xlink:href="#m7b4d7bb441" y="307.584"/>
      </g>
     </g>
     <g id="text_5">
      <!-- 1 -->
      <g transform="translate(283.712576 322.182437)scale(0.1 -0.1)">
       <use xlink:href="#DejaVuSans-31"/>
      </g>
     </g>
    </g>
    <g id="xtick_6">
     <g id="line2d_6">
      <g>
       <use style="stroke:#000000;stroke-width:0.8;" x="333.332585" xlink:href="#m7b4d7bb441" y="307.584"/>
      </g>
     </g>
     <g id="text_6">
      <!-- 2 -->
      <g transform="translate(330.151335 322.182437)scale(0.1 -0.1)">
       <use xlink:href="#DejaVuSans-32"/>
      </g>
     </g>
    </g>
    <g id="xtick_7">
     <g id="line2d_7">
      <g>
       <use style="stroke:#000000;stroke-width:0.8;" x="379.771343" xlink:href="#m7b4d7bb441" y="307.584"/>
      </g>
     </g>
     <g id="text_7">
      <!-- 3 -->
      <g transform="translate(376.590093 322.182437)scale(0.1 -0.1)">
       <use xlink:href="#DejaVuSans-33"/>
      </g>
     </g>
    </g>
   </g>
   <g id="matplotlib.axis_2">
    <g id="ytick_1">
     <g id="line2d_8">
      <defs>
       <path d="M 0 0 
L -3.5 0 
" id="mb3eee791a0" style="stroke:#000000;stroke-width:0.8;"/>
      </defs>
      <g>
       <use style="stroke:#000000;stroke-width:0.8;" x="57.6" xlink:href="#mb3eee791a0" y="307.584"/>
      </g>
     </g>
     <g id="text_8">
      <!-- 0.0 -->
      <g transform="translate(34.696875 311.383219)scale(0.1 -0.1)">
       <defs>
        <path d="M 684 794 
L 1344 794 
L 1344 0 
L 684 0 
L 684 794 
z
" id="DejaVuSans-2e" transform="scale(0.015625)"/>
       </defs>
       <use xlink:href="#DejaVuSans-30"/>
       <use x="63.623047" xlink:href="#DejaVuSans-2e"/>
       <use x="95.410156" xlink:href="#DejaVuSans-30"/>
      </g>
     </g>
    </g>
    <g id="ytick_2">
     <g id="line2d_9">
      <g>
       <use style="stroke:#000000;stroke-width:0.8;" x="57.6" xlink:href="#mb3eee791a0" y="254.742371"/>
      </g>
     </g>
     <g id="text_9">
      <!-- 0.1 -->
      <g transform="translate(34.696875 258.541589)scale(0.1 -0.1)">
       <use xlink:href="#DejaVuSans-30"/>
       <use x="63.623047" xlink:href="#DejaVuSans-2e"/>
       <use x="95.410156" xlink:href="#DejaVuSans-31"/>
      </g>
     </g>
    </g>
    <g id="ytick_3">
     <g id="line2d_10">
      <g>
       <use style="stroke:#000000;stroke-width:0.8;" x="57.6" xlink:href="#mb3eee791a0" y="201.900741"/>
      </g>
     </g>
     <g id="text_10">
      <!-- 0.2 -->
      <g transform="translate(34.696875 205.69996)scale(0.1 -0.1)">
       <use xlink:href="#DejaVuSans-30"/>
       <use x="63.623047" xlink:href="#DejaVuSans-2e"/>
       <use x="95.410156" xlink:href="#DejaVuSans-32"/>
      </g>
     </g>
    </g>
    <g id="ytick_4">
     <g id="line2d_11">
      <g>
       <use style="stroke:#000000;stroke-width:0.8;" x="57.6" xlink:href="#mb3eee791a0" y="149.059112"/>
      </g>
     </g>
     <g id="text_11">
      <!-- 0.3 -->
      <g transform="translate(34.696875 152.85833)scale(0.1 -0.1)">
       <use xlink:href="#DejaVuSans-30"/>
       <use x="63.623047" xlink:href="#DejaVuSans-2e"/>
       <use x="95.410156" xlink:href="#DejaVuSans-33"/>
      </g>
     </g>
    </g>
    <g id="ytick_5">
     <g id="line2d_12">
      <g>
       <use style="stroke:#000000;stroke-width:0.8;" x="57.6" xlink:href="#mb3eee791a0" y="96.217482"/>
      </g>
     </g>
     <g id="text_12">
      <!-- 0.4 -->
      <g transform="translate(34.696875 100.016701)scale(0.1 -0.1)">
       <defs>
        <path d="M 2419 4116 
L 825 1625 
L 2419 1625 
L 2419 4116 
z
M 2253 4666 
L 3047 4666 
L 3047 1625 
L 3713 1625 
L 3713 1100 
L 3047 1100 
L 3047 0 
L 2419 0 
L 2419 1100 
L 313 1100 
L 313 1709 
L 2253 4666 
z
" id="DejaVuSans-34" transform="scale(0.015625)"/>
       </defs>
       <use xlink:href="#DejaVuSans-30"/>
       <use x="63.623047" xlink:href="#DejaVuSans-2e"/>
       <use x="95.410156" xlink:href="#DejaVuSans-34"/>
      </g>
     </g>
    </g>
    <g id="ytick_6">
     <g id="line2d_13">
      <g>
       <use style="stroke:#000000;stroke-width:0.8;" x="57.6" xlink:href="#mb3eee791a0" y="43.375853"/>
      </g>
     </g>
     <g id="text_13">
      <!-- 0.5 -->
      <g transform="translate(34.696875 47.175071)scale(0.1 -0.1)">
       <defs>
        <path d="M 691 4666 
L 3169 4666 
L 3169 4134 
L 1269 4134 
L 1269 2991 
Q 1406 3038 1543 3061 
Q 1681 3084 1819 3084 
Q 2600 3084 3056 2656 
Q 3513 2228 3513 1497 
Q 3513 744 3044 326 
Q 2575 -91 1722 -91 
Q 1428 -91 1123 -41 
Q 819 9 494 109 
L 494 744 
Q 775 591 1075 516 
Q 1375 441 1709 441 
Q 2250 441 2565 725 
Q 2881 1009 2881 1497 
Q 2881 1984 2565 2268 
Q 2250 2553 1709 2553 
Q 1456 2553 1204 2497 
Q 953 2441 691 2322 
L 691 4666 
z
" id="DejaVuSans-35" transform="scale(0.015625)"/>
       </defs>
       <use xlink:href="#DejaVuSans-30"/>
       <use x="63.623047" xlink:href="#DejaVuSans-2e"/>
       <use x="95.410156" xlink:href="#DejaVuSans-35"/>
      </g>
     </g>
    </g>
   </g>
   <g id="patch_123">
    <path d="M 57.6 307.584 
L 57.6 41.472 
" style="fill:none;stroke:#000000;stroke-linecap:square;stroke-linejoin:miter;stroke-width:0.8;"/>
   </g>
   <g id="patch_124">
    <path d="M 414.72 307.584 
L 414.72 41.472 
" style="fill:none;stroke:#000000;stroke-linecap:square;stroke-linejoin:miter;stroke-width:0.8;"/>
   </g>
   <g id="patch_125">
    <path d="M 57.6 307.584 
L 414.72 307.584 
" style="fill:none;stroke:#000000;stroke-linecap:square;stroke-linejoin:miter;stroke-width:0.8;"/>
   </g>
   <g id="patch_126">
    <path d="M 57.6 41.472 
L 414.72 41.472 
" style="fill:none;stroke:#000000;stroke-linecap:square;stroke-linejoin:miter;stroke-width:0.8;"/>
   </g>
   <g id="text_14">
    <!-- feature_6 -->
    <g transform="translate(207.683437 35.472)scale(0.12 -0.12)">
     <defs>
      <path d="M 2375 4863 
L 2375 4384 
L 1825 4384 
Q 1516 4384 1395 4259 
Q 1275 4134 1275 3809 
L 1275 3500 
L 2222 3500 
L 2222 3053 
L 1275 3053 
L 1275 0 
L 697 0 
L 697 3053 
L 147 3053 
L 147 3500 
L 697 3500 
L 697 3744 
Q 697 4328 969 4595 
Q 1241 4863 1831 4863 
L 2375 4863 
z
" id="DejaVuSans-66" transform="scale(0.015625)"/>
      <path d="M 3597 1894 
L 3597 1613 
L 953 1613 
Q 991 1019 1311 708 
Q 1631 397 2203 397 
Q 2534 397 2845 478 
Q 3156 559 3463 722 
L 3463 178 
Q 3153 47 2828 -22 
Q 2503 -91 2169 -91 
Q 1331 -91 842 396 
Q 353 884 353 1716 
Q 353 2575 817 3079 
Q 1281 3584 2069 3584 
Q 2775 3584 3186 3129 
Q 3597 2675 3597 1894 
z
M 3022 2063 
Q 3016 2534 2758 2815 
Q 2500 3097 2075 3097 
Q 1594 3097 1305 2825 
Q 1016 2553 972 2059 
L 3022 2063 
z
" id="DejaVuSans-65" transform="scale(0.015625)"/>
      <path d="M 2194 1759 
Q 1497 1759 1228 1600 
Q 959 1441 959 1056 
Q 959 750 1161 570 
Q 1363 391 1709 391 
Q 2188 391 2477 730 
Q 2766 1069 2766 1631 
L 2766 1759 
L 2194 1759 
z
M 3341 1997 
L 3341 0 
L 2766 0 
L 2766 531 
Q 2569 213 2275 61 
Q 1981 -91 1556 -91 
Q 1019 -91 701 211 
Q 384 513 384 1019 
Q 384 1609 779 1909 
Q 1175 2209 1959 2209 
L 2766 2209 
L 2766 2266 
Q 2766 2663 2505 2880 
Q 2244 3097 1772 3097 
Q 1472 3097 1187 3025 
Q 903 2953 641 2809 
L 641 3341 
Q 956 3463 1253 3523 
Q 1550 3584 1831 3584 
Q 2591 3584 2966 3190 
Q 3341 2797 3341 1997 
z
" id="DejaVuSans-61" transform="scale(0.015625)"/>
      <path d="M 1172 4494 
L 1172 3500 
L 2356 3500 
L 2356 3053 
L 1172 3053 
L 1172 1153 
Q 1172 725 1289 603 
Q 1406 481 1766 481 
L 2356 481 
L 2356 0 
L 1766 0 
Q 1100 0 847 248 
Q 594 497 594 1153 
L 594 3053 
L 172 3053 
L 172 3500 
L 594 3500 
L 594 4494 
L 1172 4494 
z
" id="DejaVuSans-74" transform="scale(0.015625)"/>
      <path d="M 544 1381 
L 544 3500 
L 1119 3500 
L 1119 1403 
Q 1119 906 1312 657 
Q 1506 409 1894 409 
Q 2359 409 2629 706 
Q 2900 1003 2900 1516 
L 2900 3500 
L 3475 3500 
L 3475 0 
L 2900 0 
L 2900 538 
Q 2691 219 2414 64 
Q 2138 -91 1772 -91 
Q 1169 -91 856 284 
Q 544 659 544 1381 
z
M 1991 3584 
L 1991 3584 
z
" id="DejaVuSans-75" transform="scale(0.015625)"/>
      <path d="M 2631 2963 
Q 2534 3019 2420 3045 
Q 2306 3072 2169 3072 
Q 1681 3072 1420 2755 
Q 1159 2438 1159 1844 
L 1159 0 
L 581 0 
L 581 3500 
L 1159 3500 
L 1159 2956 
Q 1341 3275 1631 3429 
Q 1922 3584 2338 3584 
Q 2397 3584 2469 3576 
Q 2541 3569 2628 3553 
L 2631 2963 
z
" id="DejaVuSans-72" transform="scale(0.015625)"/>
      <path d="M 3263 -1063 
L 3263 -1509 
L -63 -1509 
L -63 -1063 
L 3263 -1063 
z
" id="DejaVuSans-5f" transform="scale(0.015625)"/>
      <path d="M 2113 2584 
Q 1688 2584 1439 2293 
Q 1191 2003 1191 1497 
Q 1191 994 1439 701 
Q 1688 409 2113 409 
Q 2538 409 2786 701 
Q 3034 994 3034 1497 
Q 3034 2003 2786 2293 
Q 2538 2584 2113 2584 
z
M 3366 4563 
L 3366 3988 
Q 3128 4100 2886 4159 
Q 2644 4219 2406 4219 
Q 1781 4219 1451 3797 
Q 1122 3375 1075 2522 
Q 1259 2794 1537 2939 
Q 1816 3084 2150 3084 
Q 2853 3084 3261 2657 
Q 3669 2231 3669 1497 
Q 3669 778 3244 343 
Q 2819 -91 2113 -91 
Q 1303 -91 875 529 
Q 447 1150 447 2328 
Q 447 3434 972 4092 
Q 1497 4750 2381 4750 
Q 2619 4750 2861 4703 
Q 3103 4656 3366 4563 
z
" id="DejaVuSans-36" transform="scale(0.015625)"/>
     </defs>
     <use xlink:href="#DejaVuSans-66"/>
     <use x="35.205078" xlink:href="#DejaVuSans-65"/>
     <use x="96.728516" xlink:href="#DejaVuSans-61"/>
     <use x="158.007812" xlink:href="#DejaVuSans-74"/>
     <use x="197.216797" xlink:href="#DejaVuSans-75"/>
     <use x="260.595703" xlink:href="#DejaVuSans-72"/>
     <use x="299.458984" xlink:href="#DejaVuSans-65"/>
     <use x="360.982422" xlink:href="#DejaVuSans-5f"/>
     <use x="410.982422" xlink:href="#DejaVuSans-36"/>
    </g>
   </g>
   <g id="legend_1">
    <g id="patch_127">
     <path d="M 341.246563 78.82825 
L 407.72 78.82825 
Q 409.72 78.82825 409.72 76.82825 
L 409.72 48.472 
Q 409.72 46.472 407.72 46.472 
L 341.246563 46.472 
Q 339.246563 46.472 339.246563 48.472 
L 339.246563 76.82825 
Q 339.246563 78.82825 341.246563 78.82825 
z
" style="fill:#ffffff;opacity:0.8;stroke:#cccccc;stroke-linejoin:miter;"/>
    </g>
    <g id="patch_128">
     <path d="M 343.246563 58.070437 
L 363.246563 58.070437 
L 363.246563 51.070437 
L 343.246563 51.070437 
z
" style="fill:#ff0000;opacity:0.4;stroke:#000000;stroke-linejoin:miter;"/>
    </g>
    <g id="text_15">
     <!-- male -->
     <g transform="translate(371.246563 58.070437)scale(0.1 -0.1)">
      <defs>
       <path d="M 3328 2828 
Q 3544 3216 3844 3400 
Q 4144 3584 4550 3584 
Q 5097 3584 5394 3201 
Q 5691 2819 5691 2113 
L 5691 0 
L 5113 0 
L 5113 2094 
Q 5113 2597 4934 2840 
Q 4756 3084 4391 3084 
Q 3944 3084 3684 2787 
Q 3425 2491 3425 1978 
L 3425 0 
L 2847 0 
L 2847 2094 
Q 2847 2600 2669 2842 
Q 2491 3084 2119 3084 
Q 1678 3084 1418 2786 
Q 1159 2488 1159 1978 
L 1159 0 
L 581 0 
L 581 3500 
L 1159 3500 
L 1159 2956 
Q 1356 3278 1631 3431 
Q 1906 3584 2284 3584 
Q 2666 3584 2933 3390 
Q 3200 3197 3328 2828 
z
" id="DejaVuSans-6d" transform="scale(0.015625)"/>
       <path d="M 603 4863 
L 1178 4863 
L 1178 0 
L 603 0 
L 603 4863 
z
" id="DejaVuSans-6c" transform="scale(0.015625)"/>
      </defs>
      <use xlink:href="#DejaVuSans-6d"/>
      <use x="97.412109" xlink:href="#DejaVuSans-61"/>
      <use x="158.691406" xlink:href="#DejaVuSans-6c"/>
      <use x="186.474609" xlink:href="#DejaVuSans-65"/>
     </g>
    </g>
    <g id="patch_129">
     <path d="M 343.246563 72.748562 
L 363.246563 72.748562 
L 363.246563 65.748562 
L 343.246563 65.748562 
z
" style="fill:#0000ff;opacity:0.4;stroke:#000000;stroke-linejoin:miter;"/>
    </g>
    <g id="text_16">
     <!-- female -->
     <g transform="translate(371.246563 72.748562)scale(0.1 -0.1)">
      <use xlink:href="#DejaVuSans-66"/>
      <use x="35.205078" xlink:href="#DejaVuSans-65"/>
      <use x="96.728516" xlink:href="#DejaVuSans-6d"/>
      <use x="194.140625" xlink:href="#DejaVuSans-61"/>
      <use x="255.419922" xlink:href="#DejaVuSans-6c"/>
      <use x="283.203125" xlink:href="#DejaVuSans-65"/>
     </g>
    </g>
   </g>
  </g>
 </g>
 <defs>
  <clipPath id="pe56945b762">
   <rect height="266.112" width="357.12" x="57.6" y="41.472"/>
  </clipPath>
 </defs>
</svg>
