<?xml version="1.0" encoding="utf-8" standalone="no"?>
<!DOCTYPE svg PUBLIC "-//W3C//DTD SVG 1.1//EN"
  "http://www.w3.org/Graphics/SVG/1.1/DTD/svg11.dtd">
<svg height="345.6pt" version="1.1" viewBox="0 0 460.8 345.6" width="460.8pt" xmlns="http://www.w3.org/2000/svg" xmlns:xlink="http://www.w3.org/1999/xlink">
 <metadata>
  <rdf:RDF xmlns:cc="http://creativecommons.org/ns#" xmlns:dc="http://purl.org/dc/elements/1.1/" xmlns:rdf="http://www.w3.org/1999/02/22-rdf-syntax-ns#">
   <cc:Work>
    <dc:type rdf:resource="http://purl.org/dc/dcmitype/StillImage"/>
    <dc:date>2022-08-17T11:35:15.693110</dc:date>
    <dc:format>image/svg+xml</dc:format>
    <dc:creator>
     <cc:Agent>
      <dc:title>Matplotlib v3.4.3, https://matplotlib.org/</dc:title>
     </cc:Agent>
    </dc:creator>
   </cc:Work>
  </rdf:RDF>
 </metadata>
 <defs>
  <style type="text/css">*{stroke-linecap:butt;stroke-linejoin:round;}</style>
 </defs>
 <g id="figure_1">
  <g id="patch_1">
   <path d="M 0 345.6 
L 460.8 345.6 
L 460.8 0 
L 0 0 
z
" style="fill:#ffffff;"/>
  </g>
  <g id="axes_1">
   <g id="patch_2">
    <path d="M 57.6 307.584 
L 414.72 307.584 
L 414.72 41.472 
L 57.6 41.472 
z
" style="fill:#ffffff;"/>
   </g>
   <g id="patch_3">
    <path clip-path="url(#pb9e88da2de)" d="M 73.832727 307.584 
L 79.243636 307.584 
L 79.243636 306.076077 
L 73.832727 306.076077 
z
" style="fill:#ff0000;opacity:0.4;stroke:#000000;stroke-linejoin:miter;"/>
   </g>
   <g id="patch_4">
    <path clip-path="url(#pb9e88da2de)" d="M 79.243636 307.584 
L 84.654545 307.584 
L 84.654545 307.584 
L 79.243636 307.584 
z
" style="fill:#ff0000;opacity:0.4;stroke:#000000;stroke-linejoin:miter;"/>
   </g>
   <g id="patch_5">
    <path clip-path="url(#pb9e88da2de)" d="M 84.654545 307.584 
L 90.065455 307.584 
L 90.065455 307.584 
L 84.654545 307.584 
z
" style="fill:#ff0000;opacity:0.4;stroke:#000000;stroke-linejoin:miter;"/>
   </g>
   <g id="patch_6">
    <path clip-path="url(#pb9e88da2de)" d="M 90.065455 307.584 
L 95.476364 307.584 
L 95.476364 306.076077 
L 90.065455 306.076077 
z
" style="fill:#ff0000;opacity:0.4;stroke:#000000;stroke-linejoin:miter;"/>
   </g>
   <g id="patch_7">
    <path clip-path="url(#pb9e88da2de)" d="M 95.476364 307.584 
L 100.887273 307.584 
L 100.887273 306.076077 
L 95.476364 306.076077 
z
" style="fill:#ff0000;opacity:0.4;stroke:#000000;stroke-linejoin:miter;"/>
   </g>
   <g id="patch_8">
    <path clip-path="url(#pb9e88da2de)" d="M 100.887273 307.584 
L 106.298182 307.584 
L 106.298182 307.584 
L 100.887273 307.584 
z
" style="fill:#ff0000;opacity:0.4;stroke:#000000;stroke-linejoin:miter;"/>
   </g>
   <g id="patch_9">
    <path clip-path="url(#pb9e88da2de)" d="M 106.298182 307.584 
L 111.709091 307.584 
L 111.709091 307.584 
L 106.298182 307.584 
z
" style="fill:#ff0000;opacity:0.4;stroke:#000000;stroke-linejoin:miter;"/>
   </g>
   <g id="patch_10">
    <path clip-path="url(#pb9e88da2de)" d="M 111.709091 307.584 
L 117.12 307.584 
L 117.12 303.060231 
L 111.709091 303.060231 
z
" style="fill:#ff0000;opacity:0.4;stroke:#000000;stroke-linejoin:miter;"/>
   </g>
   <g id="patch_11">
    <path clip-path="url(#pb9e88da2de)" d="M 117.12 307.584 
L 122.530909 307.584 
L 122.530909 298.536462 
L 117.12 298.536462 
z
" style="fill:#ff0000;opacity:0.4;stroke:#000000;stroke-linejoin:miter;"/>
   </g>
   <g id="patch_12">
    <path clip-path="url(#pb9e88da2de)" d="M 122.530909 307.584 
L 127.941818 307.584 
L 127.941818 303.060231 
L 122.530909 303.060231 
z
" style="fill:#ff0000;opacity:0.4;stroke:#000000;stroke-linejoin:miter;"/>
   </g>
   <g id="patch_13">
    <path clip-path="url(#pb9e88da2de)" d="M 127.941818 307.584 
L 133.352727 307.584 
L 133.352727 297.028539 
L 127.941818 297.028539 
z
" style="fill:#ff0000;opacity:0.4;stroke:#000000;stroke-linejoin:miter;"/>
   </g>
   <g id="patch_14">
    <path clip-path="url(#pb9e88da2de)" d="M 133.352727 307.584 
L 138.763636 307.584 
L 138.763636 298.536462 
L 133.352727 298.536462 
z
" style="fill:#ff0000;opacity:0.4;stroke:#000000;stroke-linejoin:miter;"/>
   </g>
   <g id="patch_15">
    <path clip-path="url(#pb9e88da2de)" d="M 138.763636 307.584 
L 144.174545 307.584 
L 144.174545 290.996846 
L 138.763636 290.996846 
z
" style="fill:#ff0000;opacity:0.4;stroke:#000000;stroke-linejoin:miter;"/>
   </g>
   <g id="patch_16">
    <path clip-path="url(#pb9e88da2de)" d="M 144.174545 307.584 
L 149.585455 307.584 
L 149.585455 289.488923 
L 144.174545 289.488923 
z
" style="fill:#ff0000;opacity:0.4;stroke:#000000;stroke-linejoin:miter;"/>
   </g>
   <g id="patch_17">
    <path clip-path="url(#pb9e88da2de)" d="M 149.585455 307.584 
L 154.996364 307.584 
L 154.996364 287.981 
L 149.585455 287.981 
z
" style="fill:#ff0000;opacity:0.4;stroke:#000000;stroke-linejoin:miter;"/>
   </g>
   <g id="patch_18">
    <path clip-path="url(#pb9e88da2de)" d="M 154.996364 307.584 
L 160.407273 307.584 
L 160.407273 280.441385 
L 154.996364 280.441385 
z
" style="fill:#ff0000;opacity:0.4;stroke:#000000;stroke-linejoin:miter;"/>
   </g>
   <g id="patch_19">
    <path clip-path="url(#pb9e88da2de)" d="M 160.407273 307.584 
L 165.818182 307.584 
L 165.818182 277.425539 
L 160.407273 277.425539 
z
" style="fill:#ff0000;opacity:0.4;stroke:#000000;stroke-linejoin:miter;"/>
   </g>
   <g id="patch_20">
    <path clip-path="url(#pb9e88da2de)" d="M 165.818182 307.584 
L 171.229091 307.584 
L 171.229091 253.298769 
L 165.818182 253.298769 
z
" style="fill:#ff0000;opacity:0.4;stroke:#000000;stroke-linejoin:miter;"/>
   </g>
   <g id="patch_21">
    <path clip-path="url(#pb9e88da2de)" d="M 171.229091 307.584 
L 176.64 307.584 
L 176.64 244.251231 
L 171.229091 244.251231 
z
" style="fill:#ff0000;opacity:0.4;stroke:#000000;stroke-linejoin:miter;"/>
   </g>
   <g id="patch_22">
    <path clip-path="url(#pb9e88da2de)" d="M 176.64 307.584 
L 182.050909 307.584 
L 182.050909 236.711616 
L 176.64 236.711616 
z
" style="fill:#ff0000;opacity:0.4;stroke:#000000;stroke-linejoin:miter;"/>
   </g>
   <g id="patch_23">
    <path clip-path="url(#pb9e88da2de)" d="M 182.050909 307.584 
L 187.461818 307.584 
L 187.461818 223.140308 
L 182.050909 223.140308 
z
" style="fill:#ff0000;opacity:0.4;stroke:#000000;stroke-linejoin:miter;"/>
   </g>
   <g id="patch_24">
    <path clip-path="url(#pb9e88da2de)" d="M 187.461818 307.584 
L 192.872727 307.584 
L 192.872727 214.09277 
L 187.461818 214.09277 
z
" style="fill:#ff0000;opacity:0.4;stroke:#000000;stroke-linejoin:miter;"/>
   </g>
   <g id="patch_25">
    <path clip-path="url(#pb9e88da2de)" d="M 192.872727 307.584 
L 198.283636 307.584 
L 198.283636 177.902616 
L 192.872727 177.902616 
z
" style="fill:#ff0000;opacity:0.4;stroke:#000000;stroke-linejoin:miter;"/>
   </g>
   <g id="patch_26">
    <path clip-path="url(#pb9e88da2de)" d="M 198.283636 307.584 
L 203.694545 307.584 
L 203.694545 168.855077 
L 198.283636 168.855077 
z
" style="fill:#ff0000;opacity:0.4;stroke:#000000;stroke-linejoin:miter;"/>
   </g>
   <g id="patch_27">
    <path clip-path="url(#pb9e88da2de)" d="M 203.694545 307.584 
L 209.105455 307.584 
L 209.105455 134.172847 
L 203.694545 134.172847 
z
" style="fill:#ff0000;opacity:0.4;stroke:#000000;stroke-linejoin:miter;"/>
   </g>
   <g id="patch_28">
    <path clip-path="url(#pb9e88da2de)" d="M 209.105455 307.584 
L 214.516364 307.584 
L 214.516364 131.157001 
L 209.105455 131.157001 
z
" style="fill:#ff0000;opacity:0.4;stroke:#000000;stroke-linejoin:miter;"/>
   </g>
   <g id="patch_29">
    <path clip-path="url(#pb9e88da2de)" d="M 214.516364 307.584 
L 219.927273 307.584 
L 219.927273 122.109462 
L 214.516364 122.109462 
z
" style="fill:#ff0000;opacity:0.4;stroke:#000000;stroke-linejoin:miter;"/>
   </g>
   <g id="patch_30">
    <path clip-path="url(#pb9e88da2de)" d="M 219.927273 307.584 
L 225.338182 307.584 
L 225.338182 96.47477 
L 219.927273 96.47477 
z
" style="fill:#ff0000;opacity:0.4;stroke:#000000;stroke-linejoin:miter;"/>
   </g>
   <g id="patch_31">
    <path clip-path="url(#pb9e88da2de)" d="M 225.338182 307.584 
L 230.749091 307.584 
L 230.749091 67.824232 
L 225.338182 67.824232 
z
" style="fill:#ff0000;opacity:0.4;stroke:#000000;stroke-linejoin:miter;"/>
   </g>
   <g id="patch_32">
    <path clip-path="url(#pb9e88da2de)" d="M 230.749091 307.584 
L 236.16 307.584 
L 236.16 54.252924 
L 230.749091 54.252924 
z
" style="fill:#ff0000;opacity:0.4;stroke:#000000;stroke-linejoin:miter;"/>
   </g>
   <g id="patch_33">
    <path clip-path="url(#pb9e88da2de)" d="M 236.16 307.584 
L 241.570909 307.584 
L 241.570909 99.490616 
L 236.16 99.490616 
z
" style="fill:#ff0000;opacity:0.4;stroke:#000000;stroke-linejoin:miter;"/>
   </g>
   <g id="patch_34">
    <path clip-path="url(#pb9e88da2de)" d="M 241.570909 307.584 
L 246.981818 307.584 
L 246.981818 140.204539 
L 241.570909 140.204539 
z
" style="fill:#ff0000;opacity:0.4;stroke:#000000;stroke-linejoin:miter;"/>
   </g>
   <g id="patch_35">
    <path clip-path="url(#pb9e88da2de)" d="M 246.981818 307.584 
L 252.392727 307.584 
L 252.392727 140.204539 
L 246.981818 140.204539 
z
" style="fill:#ff0000;opacity:0.4;stroke:#000000;stroke-linejoin:miter;"/>
   </g>
   <g id="patch_36">
    <path clip-path="url(#pb9e88da2de)" d="M 252.392727 307.584 
L 257.803636 307.584 
L 257.803636 107.030232 
L 252.392727 107.030232 
z
" style="fill:#ff0000;opacity:0.4;stroke:#000000;stroke-linejoin:miter;"/>
   </g>
   <g id="patch_37">
    <path clip-path="url(#pb9e88da2de)" d="M 257.803636 307.584 
L 263.214545 307.584 
L 263.214545 141.712462 
L 257.803636 141.712462 
z
" style="fill:#ff0000;opacity:0.4;stroke:#000000;stroke-linejoin:miter;"/>
   </g>
   <g id="patch_38">
    <path clip-path="url(#pb9e88da2de)" d="M 263.214545 307.584 
L 268.625455 307.584 
L 268.625455 128.141155 
L 263.214545 128.141155 
z
" style="fill:#ff0000;opacity:0.4;stroke:#000000;stroke-linejoin:miter;"/>
   </g>
   <g id="patch_39">
    <path clip-path="url(#pb9e88da2de)" d="M 268.625455 307.584 
L 274.036364 307.584 
L 274.036364 132.664924 
L 268.625455 132.664924 
z
" style="fill:#ff0000;opacity:0.4;stroke:#000000;stroke-linejoin:miter;"/>
   </g>
   <g id="patch_40">
    <path clip-path="url(#pb9e88da2de)" d="M 274.036364 307.584 
L 279.447273 307.584 
L 279.447273 155.28377 
L 274.036364 155.28377 
z
" style="fill:#ff0000;opacity:0.4;stroke:#000000;stroke-linejoin:miter;"/>
   </g>
   <g id="patch_41">
    <path clip-path="url(#pb9e88da2de)" d="M 279.447273 307.584 
L 284.858182 307.584 
L 284.858182 138.696616 
L 279.447273 138.696616 
z
" style="fill:#ff0000;opacity:0.4;stroke:#000000;stroke-linejoin:miter;"/>
   </g>
   <g id="patch_42">
    <path clip-path="url(#pb9e88da2de)" d="M 284.858182 307.584 
L 290.269091 307.584 
L 290.269091 174.88677 
L 284.858182 174.88677 
z
" style="fill:#ff0000;opacity:0.4;stroke:#000000;stroke-linejoin:miter;"/>
   </g>
   <g id="patch_43">
    <path clip-path="url(#pb9e88da2de)" d="M 290.269091 307.584 
L 295.68 307.584 
L 295.68 173.378847 
L 290.269091 173.378847 
z
" style="fill:#ff0000;opacity:0.4;stroke:#000000;stroke-linejoin:miter;"/>
   </g>
   <g id="patch_44">
    <path clip-path="url(#pb9e88da2de)" d="M 295.68 307.584 
L 301.090909 307.584 
L 301.090909 194.48977 
L 295.68 194.48977 
z
" style="fill:#ff0000;opacity:0.4;stroke:#000000;stroke-linejoin:miter;"/>
   </g>
   <g id="patch_45">
    <path clip-path="url(#pb9e88da2de)" d="M 301.090909 307.584 
L 306.501818 307.584 
L 306.501818 220.124462 
L 301.090909 220.124462 
z
" style="fill:#ff0000;opacity:0.4;stroke:#000000;stroke-linejoin:miter;"/>
   </g>
   <g id="patch_46">
    <path clip-path="url(#pb9e88da2de)" d="M 306.501818 307.584 
L 311.912727 307.584 
L 311.912727 218.616539 
L 306.501818 218.616539 
z
" style="fill:#ff0000;opacity:0.4;stroke:#000000;stroke-linejoin:miter;"/>
   </g>
   <g id="patch_47">
    <path clip-path="url(#pb9e88da2de)" d="M 311.912727 307.584 
L 317.323636 307.584 
L 317.323636 238.219539 
L 311.912727 238.219539 
z
" style="fill:#ff0000;opacity:0.4;stroke:#000000;stroke-linejoin:miter;"/>
   </g>
   <g id="patch_48">
    <path clip-path="url(#pb9e88da2de)" d="M 317.323636 307.584 
L 322.734545 307.584 
L 322.734545 239.727462 
L 317.323636 239.727462 
z
" style="fill:#ff0000;opacity:0.4;stroke:#000000;stroke-linejoin:miter;"/>
   </g>
   <g id="patch_49">
    <path clip-path="url(#pb9e88da2de)" d="M 322.734545 307.584 
L 328.145455 307.584 
L 328.145455 257.822539 
L 322.734545 257.822539 
z
" style="fill:#ff0000;opacity:0.4;stroke:#000000;stroke-linejoin:miter;"/>
   </g>
   <g id="patch_50">
    <path clip-path="url(#pb9e88da2de)" d="M 328.145455 307.584 
L 333.556364 307.584 
L 333.556364 269.885923 
L 328.145455 269.885923 
z
" style="fill:#ff0000;opacity:0.4;stroke:#000000;stroke-linejoin:miter;"/>
   </g>
   <g id="patch_51">
    <path clip-path="url(#pb9e88da2de)" d="M 333.556364 307.584 
L 338.967273 307.584 
L 338.967273 275.917616 
L 333.556364 275.917616 
z
" style="fill:#ff0000;opacity:0.4;stroke:#000000;stroke-linejoin:miter;"/>
   </g>
   <g id="patch_52">
    <path clip-path="url(#pb9e88da2de)" d="M 338.967273 307.584 
L 344.378182 307.584 
L 344.378182 286.473077 
L 338.967273 286.473077 
z
" style="fill:#ff0000;opacity:0.4;stroke:#000000;stroke-linejoin:miter;"/>
   </g>
   <g id="patch_53">
    <path clip-path="url(#pb9e88da2de)" d="M 344.378182 307.584 
L 349.789091 307.584 
L 349.789091 287.981 
L 344.378182 287.981 
z
" style="fill:#ff0000;opacity:0.4;stroke:#000000;stroke-linejoin:miter;"/>
   </g>
   <g id="patch_54">
    <path clip-path="url(#pb9e88da2de)" d="M 349.789091 307.584 
L 355.2 307.584 
L 355.2 292.504769 
L 349.789091 292.504769 
z
" style="fill:#ff0000;opacity:0.4;stroke:#000000;stroke-linejoin:miter;"/>
   </g>
   <g id="patch_55">
    <path clip-path="url(#pb9e88da2de)" d="M 355.2 307.584 
L 360.610909 307.584 
L 360.610909 295.520615 
L 355.2 295.520615 
z
" style="fill:#ff0000;opacity:0.4;stroke:#000000;stroke-linejoin:miter;"/>
   </g>
   <g id="patch_56">
    <path clip-path="url(#pb9e88da2de)" d="M 360.610909 307.584 
L 366.021818 307.584 
L 366.021818 298.536462 
L 360.610909 298.536462 
z
" style="fill:#ff0000;opacity:0.4;stroke:#000000;stroke-linejoin:miter;"/>
   </g>
   <g id="patch_57">
    <path clip-path="url(#pb9e88da2de)" d="M 366.021818 307.584 
L 371.432727 307.584 
L 371.432727 300.044385 
L 366.021818 300.044385 
z
" style="fill:#ff0000;opacity:0.4;stroke:#000000;stroke-linejoin:miter;"/>
   </g>
   <g id="patch_58">
    <path clip-path="url(#pb9e88da2de)" d="M 371.432727 307.584 
L 376.843636 307.584 
L 376.843636 304.568154 
L 371.432727 304.568154 
z
" style="fill:#ff0000;opacity:0.4;stroke:#000000;stroke-linejoin:miter;"/>
   </g>
   <g id="patch_59">
    <path clip-path="url(#pb9e88da2de)" d="M 376.843636 307.584 
L 382.254545 307.584 
L 382.254545 304.568154 
L 376.843636 304.568154 
z
" style="fill:#ff0000;opacity:0.4;stroke:#000000;stroke-linejoin:miter;"/>
   </g>
   <g id="patch_60">
    <path clip-path="url(#pb9e88da2de)" d="M 382.254545 307.584 
L 387.665455 307.584 
L 387.665455 304.568154 
L 382.254545 304.568154 
z
" style="fill:#ff0000;opacity:0.4;stroke:#000000;stroke-linejoin:miter;"/>
   </g>
   <g id="patch_61">
    <path clip-path="url(#pb9e88da2de)" d="M 387.665455 307.584 
L 393.076364 307.584 
L 393.076364 306.076077 
L 387.665455 306.076077 
z
" style="fill:#ff0000;opacity:0.4;stroke:#000000;stroke-linejoin:miter;"/>
   </g>
   <g id="patch_62">
    <path clip-path="url(#pb9e88da2de)" d="M 393.076364 307.584 
L 398.487273 307.584 
L 398.487273 304.568154 
L 393.076364 304.568154 
z
" style="fill:#ff0000;opacity:0.4;stroke:#000000;stroke-linejoin:miter;"/>
   </g>
   <g id="patch_63">
    <path clip-path="url(#pb9e88da2de)" d="M 82.422862 307.584 
L 87.412924 307.584 
L 87.412924 305.948903 
L 82.422862 305.948903 
z
" style="fill:#0000ff;opacity:0.4;stroke:#000000;stroke-linejoin:miter;"/>
   </g>
   <g id="patch_64">
    <path clip-path="url(#pb9e88da2de)" d="M 87.412924 307.584 
L 92.402986 307.584 
L 92.402986 304.313806 
L 87.412924 304.313806 
z
" style="fill:#0000ff;opacity:0.4;stroke:#000000;stroke-linejoin:miter;"/>
   </g>
   <g id="patch_65">
    <path clip-path="url(#pb9e88da2de)" d="M 92.402986 307.584 
L 97.393048 307.584 
L 97.393048 305.948903 
L 92.402986 305.948903 
z
" style="fill:#0000ff;opacity:0.4;stroke:#000000;stroke-linejoin:miter;"/>
   </g>
   <g id="patch_66">
    <path clip-path="url(#pb9e88da2de)" d="M 97.393048 307.584 
L 102.383111 307.584 
L 102.383111 305.948903 
L 97.393048 305.948903 
z
" style="fill:#0000ff;opacity:0.4;stroke:#000000;stroke-linejoin:miter;"/>
   </g>
   <g id="patch_67">
    <path clip-path="url(#pb9e88da2de)" d="M 102.383111 307.584 
L 107.373173 307.584 
L 107.373173 301.043613 
L 102.383111 301.043613 
z
" style="fill:#0000ff;opacity:0.4;stroke:#000000;stroke-linejoin:miter;"/>
   </g>
   <g id="patch_68">
    <path clip-path="url(#pb9e88da2de)" d="M 107.373173 307.584 
L 112.363235 307.584 
L 112.363235 299.408516 
L 107.373173 299.408516 
z
" style="fill:#0000ff;opacity:0.4;stroke:#000000;stroke-linejoin:miter;"/>
   </g>
   <g id="patch_69">
    <path clip-path="url(#pb9e88da2de)" d="M 112.363235 307.584 
L 117.353297 307.584 
L 117.353297 301.043613 
L 112.363235 301.043613 
z
" style="fill:#0000ff;opacity:0.4;stroke:#000000;stroke-linejoin:miter;"/>
   </g>
   <g id="patch_70">
    <path clip-path="url(#pb9e88da2de)" d="M 117.353297 307.584 
L 122.34336 307.584 
L 122.34336 302.67871 
L 117.353297 302.67871 
z
" style="fill:#0000ff;opacity:0.4;stroke:#000000;stroke-linejoin:miter;"/>
   </g>
   <g id="patch_71">
    <path clip-path="url(#pb9e88da2de)" d="M 122.34336 307.584 
L 127.333422 307.584 
L 127.333422 292.868129 
L 122.34336 292.868129 
z
" style="fill:#0000ff;opacity:0.4;stroke:#000000;stroke-linejoin:miter;"/>
   </g>
   <g id="patch_72">
    <path clip-path="url(#pb9e88da2de)" d="M 127.333422 307.584 
L 132.323484 307.584 
L 132.323484 294.503226 
L 127.333422 294.503226 
z
" style="fill:#0000ff;opacity:0.4;stroke:#000000;stroke-linejoin:miter;"/>
   </g>
   <g id="patch_73">
    <path clip-path="url(#pb9e88da2de)" d="M 132.323484 307.584 
L 137.313546 307.584 
L 137.313546 284.692645 
L 132.323484 284.692645 
z
" style="fill:#0000ff;opacity:0.4;stroke:#000000;stroke-linejoin:miter;"/>
   </g>
   <g id="patch_74">
    <path clip-path="url(#pb9e88da2de)" d="M 137.313546 307.584 
L 142.303609 307.584 
L 142.303609 279.787355 
L 137.313546 279.787355 
z
" style="fill:#0000ff;opacity:0.4;stroke:#000000;stroke-linejoin:miter;"/>
   </g>
   <g id="patch_75">
    <path clip-path="url(#pb9e88da2de)" d="M 142.303609 307.584 
L 147.293671 307.584 
L 147.293671 273.246968 
L 142.303609 273.246968 
z
" style="fill:#0000ff;opacity:0.4;stroke:#000000;stroke-linejoin:miter;"/>
   </g>
   <g id="patch_76">
    <path clip-path="url(#pb9e88da2de)" d="M 147.293671 307.584 
L 152.283733 307.584 
L 152.283733 266.706581 
L 147.293671 266.706581 
z
" style="fill:#0000ff;opacity:0.4;stroke:#000000;stroke-linejoin:miter;"/>
   </g>
   <g id="patch_77">
    <path clip-path="url(#pb9e88da2de)" d="M 152.283733 307.584 
L 157.273795 307.584 
L 157.273795 251.99071 
L 152.283733 251.99071 
z
" style="fill:#0000ff;opacity:0.4;stroke:#000000;stroke-linejoin:miter;"/>
   </g>
   <g id="patch_78">
    <path clip-path="url(#pb9e88da2de)" d="M 157.273795 307.584 
L 162.263857 307.584 
L 162.263857 245.450323 
L 157.273795 245.450323 
z
" style="fill:#0000ff;opacity:0.4;stroke:#000000;stroke-linejoin:miter;"/>
   </g>
   <g id="patch_79">
    <path clip-path="url(#pb9e88da2de)" d="M 162.263857 307.584 
L 167.25392 307.584 
L 167.25392 229.099355 
L 162.263857 229.099355 
z
" style="fill:#0000ff;opacity:0.4;stroke:#000000;stroke-linejoin:miter;"/>
   </g>
   <g id="patch_80">
    <path clip-path="url(#pb9e88da2de)" d="M 167.25392 307.584 
L 172.243982 307.584 
L 172.243982 234.004645 
L 167.25392 234.004645 
z
" style="fill:#0000ff;opacity:0.4;stroke:#000000;stroke-linejoin:miter;"/>
   </g>
   <g id="patch_81">
    <path clip-path="url(#pb9e88da2de)" d="M 172.243982 307.584 
L 177.234044 307.584 
L 177.234044 214.383484 
L 172.243982 214.383484 
z
" style="fill:#0000ff;opacity:0.4;stroke:#000000;stroke-linejoin:miter;"/>
   </g>
   <g id="patch_82">
    <path clip-path="url(#pb9e88da2de)" d="M 177.234044 307.584 
L 182.224106 307.584 
L 182.224106 202.937806 
L 177.234044 202.937806 
z
" style="fill:#0000ff;opacity:0.4;stroke:#000000;stroke-linejoin:miter;"/>
   </g>
   <g id="patch_83">
    <path clip-path="url(#pb9e88da2de)" d="M 182.224106 307.584 
L 187.214169 307.584 
L 187.214169 186.586839 
L 182.224106 186.586839 
z
" style="fill:#0000ff;opacity:0.4;stroke:#000000;stroke-linejoin:miter;"/>
   </g>
   <g id="patch_84">
    <path clip-path="url(#pb9e88da2de)" d="M 187.214169 307.584 
L 192.204231 307.584 
L 192.204231 180.046452 
L 187.214169 180.046452 
z
" style="fill:#0000ff;opacity:0.4;stroke:#000000;stroke-linejoin:miter;"/>
   </g>
   <g id="patch_85">
    <path clip-path="url(#pb9e88da2de)" d="M 192.204231 307.584 
L 197.194293 307.584 
L 197.194293 157.155097 
L 192.204231 157.155097 
z
" style="fill:#0000ff;opacity:0.4;stroke:#000000;stroke-linejoin:miter;"/>
   </g>
   <g id="patch_86">
    <path clip-path="url(#pb9e88da2de)" d="M 197.194293 307.584 
L 202.184355 307.584 
L 202.184355 158.790194 
L 197.194293 158.790194 
z
" style="fill:#0000ff;opacity:0.4;stroke:#000000;stroke-linejoin:miter;"/>
   </g>
   <g id="patch_87">
    <path clip-path="url(#pb9e88da2de)" d="M 202.184355 307.584 
L 207.174418 307.584 
L 207.174418 153.884903 
L 202.184355 153.884903 
z
" style="fill:#0000ff;opacity:0.4;stroke:#000000;stroke-linejoin:miter;"/>
   </g>
   <g id="patch_88">
    <path clip-path="url(#pb9e88da2de)" d="M 207.174418 307.584 
L 212.16448 307.584 
L 212.16448 147.344516 
L 207.174418 147.344516 
z
" style="fill:#0000ff;opacity:0.4;stroke:#000000;stroke-linejoin:miter;"/>
   </g>
   <g id="patch_89">
    <path clip-path="url(#pb9e88da2de)" d="M 212.16448 307.584 
L 217.154542 307.584 
L 217.154542 132.628645 
L 212.16448 132.628645 
z
" style="fill:#0000ff;opacity:0.4;stroke:#000000;stroke-linejoin:miter;"/>
   </g>
   <g id="patch_90">
    <path clip-path="url(#pb9e88da2de)" d="M 217.154542 307.584 
L 222.144604 307.584 
L 222.144604 117.912774 
L 217.154542 117.912774 
z
" style="fill:#0000ff;opacity:0.4;stroke:#000000;stroke-linejoin:miter;"/>
   </g>
   <g id="patch_91">
    <path clip-path="url(#pb9e88da2de)" d="M 222.144604 307.584 
L 227.134666 307.584 
L 227.134666 144.074323 
L 222.144604 144.074323 
z
" style="fill:#0000ff;opacity:0.4;stroke:#000000;stroke-linejoin:miter;"/>
   </g>
   <g id="patch_92">
    <path clip-path="url(#pb9e88da2de)" d="M 227.134666 307.584 
L 232.124729 307.584 
L 232.124729 142.439226 
L 227.134666 142.439226 
z
" style="fill:#0000ff;opacity:0.4;stroke:#000000;stroke-linejoin:miter;"/>
   </g>
   <g id="patch_93">
    <path clip-path="url(#pb9e88da2de)" d="M 232.124729 307.584 
L 237.114791 307.584 
L 237.114791 135.898839 
L 232.124729 135.898839 
z
" style="fill:#0000ff;opacity:0.4;stroke:#000000;stroke-linejoin:miter;"/>
   </g>
   <g id="patch_94">
    <path clip-path="url(#pb9e88da2de)" d="M 237.114791 307.584 
L 242.104853 307.584 
L 242.104853 90.116129 
L 237.114791 90.116129 
z
" style="fill:#0000ff;opacity:0.4;stroke:#000000;stroke-linejoin:miter;"/>
   </g>
   <g id="patch_95">
    <path clip-path="url(#pb9e88da2de)" d="M 242.104853 307.584 
L 247.094915 307.584 
L 247.094915 54.144 
L 242.104853 54.144 
z
" style="fill:#0000ff;opacity:0.4;stroke:#000000;stroke-linejoin:miter;"/>
   </g>
   <g id="patch_96">
    <path clip-path="url(#pb9e88da2de)" d="M 247.094915 307.584 
L 252.084978 307.584 
L 252.084978 62.319484 
L 247.094915 62.319484 
z
" style="fill:#0000ff;opacity:0.4;stroke:#000000;stroke-linejoin:miter;"/>
   </g>
   <g id="patch_97">
    <path clip-path="url(#pb9e88da2de)" d="M 252.084978 307.584 
L 257.07504 307.584 
L 257.07504 101.561806 
L 252.084978 101.561806 
z
" style="fill:#0000ff;opacity:0.4;stroke:#000000;stroke-linejoin:miter;"/>
   </g>
   <g id="patch_98">
    <path clip-path="url(#pb9e88da2de)" d="M 257.07504 307.584 
L 262.065102 307.584 
L 262.065102 93.386323 
L 257.07504 93.386323 
z
" style="fill:#0000ff;opacity:0.4;stroke:#000000;stroke-linejoin:miter;"/>
   </g>
   <g id="patch_99">
    <path clip-path="url(#pb9e88da2de)" d="M 262.065102 307.584 
L 267.055164 307.584 
L 267.055164 111.372387 
L 262.065102 111.372387 
z
" style="fill:#0000ff;opacity:0.4;stroke:#000000;stroke-linejoin:miter;"/>
   </g>
   <g id="patch_100">
    <path clip-path="url(#pb9e88da2de)" d="M 267.055164 307.584 
L 272.045227 307.584 
L 272.045227 135.898839 
L 267.055164 135.898839 
z
" style="fill:#0000ff;opacity:0.4;stroke:#000000;stroke-linejoin:miter;"/>
   </g>
   <g id="patch_101">
    <path clip-path="url(#pb9e88da2de)" d="M 272.045227 307.584 
L 277.035289 307.584 
L 277.035289 170.235871 
L 272.045227 170.235871 
z
" style="fill:#0000ff;opacity:0.4;stroke:#000000;stroke-linejoin:miter;"/>
   </g>
   <g id="patch_102">
    <path clip-path="url(#pb9e88da2de)" d="M 277.035289 307.584 
L 282.025351 307.584 
L 282.025351 155.52 
L 277.035289 155.52 
z
" style="fill:#0000ff;opacity:0.4;stroke:#000000;stroke-linejoin:miter;"/>
   </g>
   <g id="patch_103">
    <path clip-path="url(#pb9e88da2de)" d="M 282.025351 307.584 
L 287.015413 307.584 
L 287.015413 196.397419 
L 282.025351 196.397419 
z
" style="fill:#0000ff;opacity:0.4;stroke:#000000;stroke-linejoin:miter;"/>
   </g>
   <g id="patch_104">
    <path clip-path="url(#pb9e88da2de)" d="M 287.015413 307.584 
L 292.005475 307.584 
L 292.005475 198.032516 
L 287.015413 198.032516 
z
" style="fill:#0000ff;opacity:0.4;stroke:#000000;stroke-linejoin:miter;"/>
   </g>
   <g id="patch_105">
    <path clip-path="url(#pb9e88da2de)" d="M 292.005475 307.584 
L 296.995538 307.584 
L 296.995538 222.558968 
L 292.005475 222.558968 
z
" style="fill:#0000ff;opacity:0.4;stroke:#000000;stroke-linejoin:miter;"/>
   </g>
   <g id="patch_106">
    <path clip-path="url(#pb9e88da2de)" d="M 296.995538 307.584 
L 301.9856 307.584 
L 301.9856 232.369548 
L 296.995538 232.369548 
z
" style="fill:#0000ff;opacity:0.4;stroke:#000000;stroke-linejoin:miter;"/>
   </g>
   <g id="patch_107">
    <path clip-path="url(#pb9e88da2de)" d="M 301.9856 307.584 
L 306.975662 307.584 
L 306.975662 230.734452 
L 301.9856 230.734452 
z
" style="fill:#0000ff;opacity:0.4;stroke:#000000;stroke-linejoin:miter;"/>
   </g>
   <g id="patch_108">
    <path clip-path="url(#pb9e88da2de)" d="M 306.975662 307.584 
L 311.965724 307.584 
L 311.965724 256.896 
L 306.975662 256.896 
z
" style="fill:#0000ff;opacity:0.4;stroke:#000000;stroke-linejoin:miter;"/>
   </g>
   <g id="patch_109">
    <path clip-path="url(#pb9e88da2de)" d="M 311.965724 307.584 
L 316.955787 307.584 
L 316.955787 258.531097 
L 311.965724 258.531097 
z
" style="fill:#0000ff;opacity:0.4;stroke:#000000;stroke-linejoin:miter;"/>
   </g>
   <g id="patch_110">
    <path clip-path="url(#pb9e88da2de)" d="M 316.955787 307.584 
L 321.945849 307.584 
L 321.945849 278.152258 
L 316.955787 278.152258 
z
" style="fill:#0000ff;opacity:0.4;stroke:#000000;stroke-linejoin:miter;"/>
   </g>
   <g id="patch_111">
    <path clip-path="url(#pb9e88da2de)" d="M 321.945849 307.584 
L 326.935911 307.584 
L 326.935911 276.517161 
L 321.945849 276.517161 
z
" style="fill:#0000ff;opacity:0.4;stroke:#000000;stroke-linejoin:miter;"/>
   </g>
   <g id="patch_112">
    <path clip-path="url(#pb9e88da2de)" d="M 326.935911 307.584 
L 331.925973 307.584 
L 331.925973 284.692645 
L 326.935911 284.692645 
z
" style="fill:#0000ff;opacity:0.4;stroke:#000000;stroke-linejoin:miter;"/>
   </g>
   <g id="patch_113">
    <path clip-path="url(#pb9e88da2de)" d="M 331.925973 307.584 
L 336.916036 307.584 
L 336.916036 278.152258 
L 331.925973 278.152258 
z
" style="fill:#0000ff;opacity:0.4;stroke:#000000;stroke-linejoin:miter;"/>
   </g>
   <g id="patch_114">
    <path clip-path="url(#pb9e88da2de)" d="M 336.916036 307.584 
L 341.906098 307.584 
L 341.906098 296.138323 
L 336.916036 296.138323 
z
" style="fill:#0000ff;opacity:0.4;stroke:#000000;stroke-linejoin:miter;"/>
   </g>
   <g id="patch_115">
    <path clip-path="url(#pb9e88da2de)" d="M 341.906098 307.584 
L 346.89616 307.584 
L 346.89616 291.233032 
L 341.906098 291.233032 
z
" style="fill:#0000ff;opacity:0.4;stroke:#000000;stroke-linejoin:miter;"/>
   </g>
   <g id="patch_116">
    <path clip-path="url(#pb9e88da2de)" d="M 346.89616 307.584 
L 351.886222 307.584 
L 351.886222 299.408516 
L 346.89616 299.408516 
z
" style="fill:#0000ff;opacity:0.4;stroke:#000000;stroke-linejoin:miter;"/>
   </g>
   <g id="patch_117">
    <path clip-path="url(#pb9e88da2de)" d="M 351.886222 307.584 
L 356.876284 307.584 
L 356.876284 299.408516 
L 351.886222 299.408516 
z
" style="fill:#0000ff;opacity:0.4;stroke:#000000;stroke-linejoin:miter;"/>
   </g>
   <g id="patch_118">
    <path clip-path="url(#pb9e88da2de)" d="M 356.876284 307.584 
L 361.866347 307.584 
L 361.866347 304.313806 
L 356.876284 304.313806 
z
" style="fill:#0000ff;opacity:0.4;stroke:#000000;stroke-linejoin:miter;"/>
   </g>
   <g id="patch_119">
    <path clip-path="url(#pb9e88da2de)" d="M 361.866347 307.584 
L 366.856409 307.584 
L 366.856409 304.313806 
L 361.866347 304.313806 
z
" style="fill:#0000ff;opacity:0.4;stroke:#000000;stroke-linejoin:miter;"/>
   </g>
   <g id="patch_120">
    <path clip-path="url(#pb9e88da2de)" d="M 366.856409 307.584 
L 371.846471 307.584 
L 371.846471 305.948903 
L 366.856409 305.948903 
z
" style="fill:#0000ff;opacity:0.4;stroke:#000000;stroke-linejoin:miter;"/>
   </g>
   <g id="patch_121">
    <path clip-path="url(#pb9e88da2de)" d="M 371.846471 307.584 
L 376.836533 307.584 
L 376.836533 302.67871 
L 371.846471 302.67871 
z
" style="fill:#0000ff;opacity:0.4;stroke:#000000;stroke-linejoin:miter;"/>
   </g>
   <g id="patch_122">
    <path clip-path="url(#pb9e88da2de)" d="M 376.836533 307.584 
L 381.826596 307.584 
L 381.826596 305.948903 
L 376.836533 305.948903 
z
" style="fill:#0000ff;opacity:0.4;stroke:#000000;stroke-linejoin:miter;"/>
   </g>
   <g id="matplotlib.axis_1">
    <g id="xtick_1">
     <g id="line2d_1">
      <defs>
       <path d="M 0 0 
L 0 3.5 
" id="mb2d858a863" style="stroke:#000000;stroke-width:0.8;"/>
      </defs>
      <g>
       <use style="stroke:#000000;stroke-width:0.8;" x="101.138791" xlink:href="#mb2d858a863" y="307.584"/>
      </g>
     </g>
     <g id="text_1">
      <!-- −3 -->
      <g transform="translate(93.767697 322.182437)scale(0.1 -0.1)">
       <defs>
        <path d="M 678 2272 
L 4684 2272 
L 4684 1741 
L 678 1741 
L 678 2272 
z
" id="DejaVuSans-2212" transform="scale(0.015625)"/>
        <path d="M 2597 2516 
Q 3050 2419 3304 2112 
Q 3559 1806 3559 1356 
Q 3559 666 3084 287 
Q 2609 -91 1734 -91 
Q 1441 -91 1130 -33 
Q 819 25 488 141 
L 488 750 
Q 750 597 1062 519 
Q 1375 441 1716 441 
Q 2309 441 2620 675 
Q 2931 909 2931 1356 
Q 2931 1769 2642 2001 
Q 2353 2234 1838 2234 
L 1294 2234 
L 1294 2753 
L 1863 2753 
Q 2328 2753 2575 2939 
Q 2822 3125 2822 3475 
Q 2822 3834 2567 4026 
Q 2313 4219 1838 4219 
Q 1578 4219 1281 4162 
Q 984 4106 628 3988 
L 628 4550 
Q 988 4650 1302 4700 
Q 1616 4750 1894 4750 
Q 2613 4750 3031 4423 
Q 3450 4097 3450 3541 
Q 3450 3153 3228 2886 
Q 3006 2619 2597 2516 
z
" id="DejaVuSans-33" transform="scale(0.015625)"/>
       </defs>
       <use xlink:href="#DejaVuSans-2212"/>
       <use x="83.789062" xlink:href="#DejaVuSans-33"/>
      </g>
     </g>
    </g>
    <g id="xtick_2">
     <g id="line2d_2">
      <g>
       <use style="stroke:#000000;stroke-width:0.8;" x="147.57755" xlink:href="#mb2d858a863" y="307.584"/>
      </g>
     </g>
     <g id="text_2">
      <!-- −2 -->
      <g transform="translate(140.206456 322.182437)scale(0.1 -0.1)">
       <defs>
        <path d="M 1228 531 
L 3431 531 
L 3431 0 
L 469 0 
L 469 531 
Q 828 903 1448 1529 
Q 2069 2156 2228 2338 
Q 2531 2678 2651 2914 
Q 2772 3150 2772 3378 
Q 2772 3750 2511 3984 
Q 2250 4219 1831 4219 
Q 1534 4219 1204 4116 
Q 875 4013 500 3803 
L 500 4441 
Q 881 4594 1212 4672 
Q 1544 4750 1819 4750 
Q 2544 4750 2975 4387 
Q 3406 4025 3406 3419 
Q 3406 3131 3298 2873 
Q 3191 2616 2906 2266 
Q 2828 2175 2409 1742 
Q 1991 1309 1228 531 
z
" id="DejaVuSans-32" transform="scale(0.015625)"/>
       </defs>
       <use xlink:href="#DejaVuSans-2212"/>
       <use x="83.789062" xlink:href="#DejaVuSans-32"/>
      </g>
     </g>
    </g>
    <g id="xtick_3">
     <g id="line2d_3">
      <g>
       <use style="stroke:#000000;stroke-width:0.8;" x="194.016309" xlink:href="#mb2d858a863" y="307.584"/>
      </g>
     </g>
     <g id="text_3">
      <!-- −1 -->
      <g transform="translate(186.645215 322.182437)scale(0.1 -0.1)">
       <defs>
        <path d="M 794 531 
L 1825 531 
L 1825 4091 
L 703 3866 
L 703 4441 
L 1819 4666 
L 2450 4666 
L 2450 531 
L 3481 531 
L 3481 0 
L 794 0 
L 794 531 
z
" id="DejaVuSans-31" transform="scale(0.015625)"/>
       </defs>
       <use xlink:href="#DejaVuSans-2212"/>
       <use x="83.789062" xlink:href="#DejaVuSans-31"/>
      </g>
     </g>
    </g>
    <g id="xtick_4">
     <g id="line2d_4">
      <g>
       <use style="stroke:#000000;stroke-width:0.8;" x="240.455067" xlink:href="#mb2d858a863" y="307.584"/>
      </g>
     </g>
     <g id="text_4">
      <!-- 0 -->
      <g transform="translate(237.273817 322.182437)scale(0.1 -0.1)">
       <defs>
        <path d="M 2034 4250 
Q 1547 4250 1301 3770 
Q 1056 3291 1056 2328 
Q 1056 1369 1301 889 
Q 1547 409 2034 409 
Q 2525 409 2770 889 
Q 3016 1369 3016 2328 
Q 3016 3291 2770 3770 
Q 2525 4250 2034 4250 
z
M 2034 4750 
Q 2819 4750 3233 4129 
Q 3647 3509 3647 2328 
Q 3647 1150 3233 529 
Q 2819 -91 2034 -91 
Q 1250 -91 836 529 
Q 422 1150 422 2328 
Q 422 3509 836 4129 
Q 1250 4750 2034 4750 
z
" id="DejaVuSans-30" transform="scale(0.015625)"/>
       </defs>
       <use xlink:href="#DejaVuSans-30"/>
      </g>
     </g>
    </g>
    <g id="xtick_5">
     <g id="line2d_5">
      <g>
       <use style="stroke:#000000;stroke-width:0.8;" x="286.893826" xlink:href="#mb2d858a863" y="307.584"/>
      </g>
     </g>
     <g id="text_5">
      <!-- 1 -->
      <g transform="translate(283.712576 322.182437)scale(0.1 -0.1)">
       <use xlink:href="#DejaVuSans-31"/>
      </g>
     </g>
    </g>
    <g id="xtick_6">
     <g id="line2d_6">
      <g>
       <use style="stroke:#000000;stroke-width:0.8;" x="333.332585" xlink:href="#mb2d858a863" y="307.584"/>
      </g>
     </g>
     <g id="text_6">
      <!-- 2 -->
      <g transform="translate(330.151335 322.182437)scale(0.1 -0.1)">
       <use xlink:href="#DejaVuSans-32"/>
      </g>
     </g>
    </g>
    <g id="xtick_7">
     <g id="line2d_7">
      <g>
       <use style="stroke:#000000;stroke-width:0.8;" x="379.771343" xlink:href="#mb2d858a863" y="307.584"/>
      </g>
     </g>
     <g id="text_7">
      <!-- 3 -->
      <g transform="translate(376.590093 322.182437)scale(0.1 -0.1)">
       <use xlink:href="#DejaVuSans-33"/>
      </g>
     </g>
    </g>
   </g>
   <g id="matplotlib.axis_2">
    <g id="ytick_1">
     <g id="line2d_8">
      <defs>
       <path d="M 0 0 
L -3.5 0 
" id="ma3ab949b96" style="stroke:#000000;stroke-width:0.8;"/>
      </defs>
      <g>
       <use style="stroke:#000000;stroke-width:0.8;" x="57.6" xlink:href="#ma3ab949b96" y="307.584"/>
      </g>
     </g>
     <g id="text_8">
      <!-- 0.0 -->
      <g transform="translate(34.696875 311.383219)scale(0.1 -0.1)">
       <defs>
        <path d="M 684 794 
L 1344 794 
L 1344 0 
L 684 0 
L 684 794 
z
" id="DejaVuSans-2e" transform="scale(0.015625)"/>
       </defs>
       <use xlink:href="#DejaVuSans-30"/>
       <use x="63.623047" xlink:href="#DejaVuSans-2e"/>
       <use x="95.410156" xlink:href="#DejaVuSans-30"/>
      </g>
     </g>
    </g>
    <g id="ytick_2">
     <g id="line2d_9">
      <g>
       <use style="stroke:#000000;stroke-width:0.8;" x="57.6" xlink:href="#ma3ab949b96" y="254.874357"/>
      </g>
     </g>
     <g id="text_9">
      <!-- 0.1 -->
      <g transform="translate(34.696875 258.673576)scale(0.1 -0.1)">
       <use xlink:href="#DejaVuSans-30"/>
       <use x="63.623047" xlink:href="#DejaVuSans-2e"/>
       <use x="95.410156" xlink:href="#DejaVuSans-31"/>
      </g>
     </g>
    </g>
    <g id="ytick_3">
     <g id="line2d_10">
      <g>
       <use style="stroke:#000000;stroke-width:0.8;" x="57.6" xlink:href="#ma3ab949b96" y="202.164714"/>
      </g>
     </g>
     <g id="text_10">
      <!-- 0.2 -->
      <g transform="translate(34.696875 205.963933)scale(0.1 -0.1)">
       <use xlink:href="#DejaVuSans-30"/>
       <use x="63.623047" xlink:href="#DejaVuSans-2e"/>
       <use x="95.410156" xlink:href="#DejaVuSans-32"/>
      </g>
     </g>
    </g>
    <g id="ytick_4">
     <g id="line2d_11">
      <g>
       <use style="stroke:#000000;stroke-width:0.8;" x="57.6" xlink:href="#ma3ab949b96" y="149.455071"/>
      </g>
     </g>
     <g id="text_11">
      <!-- 0.3 -->
      <g transform="translate(34.696875 153.254289)scale(0.1 -0.1)">
       <use xlink:href="#DejaVuSans-30"/>
       <use x="63.623047" xlink:href="#DejaVuSans-2e"/>
       <use x="95.410156" xlink:href="#DejaVuSans-33"/>
      </g>
     </g>
    </g>
    <g id="ytick_5">
     <g id="line2d_12">
      <g>
       <use style="stroke:#000000;stroke-width:0.8;" x="57.6" xlink:href="#ma3ab949b96" y="96.745428"/>
      </g>
     </g>
     <g id="text_12">
      <!-- 0.4 -->
      <g transform="translate(34.696875 100.544646)scale(0.1 -0.1)">
       <defs>
        <path d="M 2419 4116 
L 825 1625 
L 2419 1625 
L 2419 4116 
z
M 2253 4666 
L 3047 4666 
L 3047 1625 
L 3713 1625 
L 3713 1100 
L 3047 1100 
L 3047 0 
L 2419 0 
L 2419 1100 
L 313 1100 
L 313 1709 
L 2253 4666 
z
" id="DejaVuSans-34" transform="scale(0.015625)"/>
       </defs>
       <use xlink:href="#DejaVuSans-30"/>
       <use x="63.623047" xlink:href="#DejaVuSans-2e"/>
       <use x="95.410156" xlink:href="#DejaVuSans-34"/>
      </g>
     </g>
    </g>
    <g id="ytick_6">
     <g id="line2d_13">
      <g>
       <use style="stroke:#000000;stroke-width:0.8;" x="57.6" xlink:href="#ma3ab949b96" y="44.035785"/>
      </g>
     </g>
     <g id="text_13">
      <!-- 0.5 -->
      <g transform="translate(34.696875 47.835003)scale(0.1 -0.1)">
       <defs>
        <path d="M 691 4666 
L 3169 4666 
L 3169 4134 
L 1269 4134 
L 1269 2991 
Q 1406 3038 1543 3061 
Q 1681 3084 1819 3084 
Q 2600 3084 3056 2656 
Q 3513 2228 3513 1497 
Q 3513 744 3044 326 
Q 2575 -91 1722 -91 
Q 1428 -91 1123 -41 
Q 819 9 494 109 
L 494 744 
Q 775 591 1075 516 
Q 1375 441 1709 441 
Q 2250 441 2565 725 
Q 2881 1009 2881 1497 
Q 2881 1984 2565 2268 
Q 2250 2553 1709 2553 
Q 1456 2553 1204 2497 
Q 953 2441 691 2322 
L 691 4666 
z
" id="DejaVuSans-35" transform="scale(0.015625)"/>
       </defs>
       <use xlink:href="#DejaVuSans-30"/>
       <use x="63.623047" xlink:href="#DejaVuSans-2e"/>
       <use x="95.410156" xlink:href="#DejaVuSans-35"/>
      </g>
     </g>
    </g>
   </g>
   <g id="patch_123">
    <path d="M 57.6 307.584 
L 57.6 41.472 
" style="fill:none;stroke:#000000;stroke-linecap:square;stroke-linejoin:miter;stroke-width:0.8;"/>
   </g>
   <g id="patch_124">
    <path d="M 414.72 307.584 
L 414.72 41.472 
" style="fill:none;stroke:#000000;stroke-linecap:square;stroke-linejoin:miter;stroke-width:0.8;"/>
   </g>
   <g id="patch_125">
    <path d="M 57.6 307.584 
L 414.72 307.584 
" style="fill:none;stroke:#000000;stroke-linecap:square;stroke-linejoin:miter;stroke-width:0.8;"/>
   </g>
   <g id="patch_126">
    <path d="M 57.6 41.472 
L 414.72 41.472 
" style="fill:none;stroke:#000000;stroke-linecap:square;stroke-linejoin:miter;stroke-width:0.8;"/>
   </g>
   <g id="text_14">
    <!-- feature_11 -->
    <g transform="translate(203.865938 35.472)scale(0.12 -0.12)">
     <defs>
      <path d="M 2375 4863 
L 2375 4384 
L 1825 4384 
Q 1516 4384 1395 4259 
Q 1275 4134 1275 3809 
L 1275 3500 
L 2222 3500 
L 2222 3053 
L 1275 3053 
L 1275 0 
L 697 0 
L 697 3053 
L 147 3053 
L 147 3500 
L 697 3500 
L 697 3744 
Q 697 4328 969 4595 
Q 1241 4863 1831 4863 
L 2375 4863 
z
" id="DejaVuSans-66" transform="scale(0.015625)"/>
      <path d="M 3597 1894 
L 3597 1613 
L 953 1613 
Q 991 1019 1311 708 
Q 1631 397 2203 397 
Q 2534 397 2845 478 
Q 3156 559 3463 722 
L 3463 178 
Q 3153 47 2828 -22 
Q 2503 -91 2169 -91 
Q 1331 -91 842 396 
Q 353 884 353 1716 
Q 353 2575 817 3079 
Q 1281 3584 2069 3584 
Q 2775 3584 3186 3129 
Q 3597 2675 3597 1894 
z
M 3022 2063 
Q 3016 2534 2758 2815 
Q 2500 3097 2075 3097 
Q 1594 3097 1305 2825 
Q 1016 2553 972 2059 
L 3022 2063 
z
" id="DejaVuSans-65" transform="scale(0.015625)"/>
      <path d="M 2194 1759 
Q 1497 1759 1228 1600 
Q 959 1441 959 1056 
Q 959 750 1161 570 
Q 1363 391 1709 391 
Q 2188 391 2477 730 
Q 2766 1069 2766 1631 
L 2766 1759 
L 2194 1759 
z
M 3341 1997 
L 3341 0 
L 2766 0 
L 2766 531 
Q 2569 213 2275 61 
Q 1981 -91 1556 -91 
Q 1019 -91 701 211 
Q 384 513 384 1019 
Q 384 1609 779 1909 
Q 1175 2209 1959 2209 
L 2766 2209 
L 2766 2266 
Q 2766 2663 2505 2880 
Q 2244 3097 1772 3097 
Q 1472 3097 1187 3025 
Q 903 2953 641 2809 
L 641 3341 
Q 956 3463 1253 3523 
Q 1550 3584 1831 3584 
Q 2591 3584 2966 3190 
Q 3341 2797 3341 1997 
z
" id="DejaVuSans-61" transform="scale(0.015625)"/>
      <path d="M 1172 4494 
L 1172 3500 
L 2356 3500 
L 2356 3053 
L 1172 3053 
L 1172 1153 
Q 1172 725 1289 603 
Q 1406 481 1766 481 
L 2356 481 
L 2356 0 
L 1766 0 
Q 1100 0 847 248 
Q 594 497 594 1153 
L 594 3053 
L 172 3053 
L 172 3500 
L 594 3500 
L 594 4494 
L 1172 4494 
z
" id="DejaVuSans-74" transform="scale(0.015625)"/>
      <path d="M 544 1381 
L 544 3500 
L 1119 3500 
L 1119 1403 
Q 1119 906 1312 657 
Q 1506 409 1894 409 
Q 2359 409 2629 706 
Q 2900 1003 2900 1516 
L 2900 3500 
L 3475 3500 
L 3475 0 
L 2900 0 
L 2900 538 
Q 2691 219 2414 64 
Q 2138 -91 1772 -91 
Q 1169 -91 856 284 
Q 544 659 544 1381 
z
M 1991 3584 
L 1991 3584 
z
" id="DejaVuSans-75" transform="scale(0.015625)"/>
      <path d="M 2631 2963 
Q 2534 3019 2420 3045 
Q 2306 3072 2169 3072 
Q 1681 3072 1420 2755 
Q 1159 2438 1159 1844 
L 1159 0 
L 581 0 
L 581 3500 
L 1159 3500 
L 1159 2956 
Q 1341 3275 1631 3429 
Q 1922 3584 2338 3584 
Q 2397 3584 2469 3576 
Q 2541 3569 2628 3553 
L 2631 2963 
z
" id="DejaVuSans-72" transform="scale(0.015625)"/>
      <path d="M 3263 -1063 
L 3263 -1509 
L -63 -1509 
L -63 -1063 
L 3263 -1063 
z
" id="DejaVuSans-5f" transform="scale(0.015625)"/>
     </defs>
     <use xlink:href="#DejaVuSans-66"/>
     <use x="35.205078" xlink:href="#DejaVuSans-65"/>
     <use x="96.728516" xlink:href="#DejaVuSans-61"/>
     <use x="158.007812" xlink:href="#DejaVuSans-74"/>
     <use x="197.216797" xlink:href="#DejaVuSans-75"/>
     <use x="260.595703" xlink:href="#DejaVuSans-72"/>
     <use x="299.458984" xlink:href="#DejaVuSans-65"/>
     <use x="360.982422" xlink:href="#DejaVuSans-5f"/>
     <use x="410.982422" xlink:href="#DejaVuSans-31"/>
     <use x="474.605469" xlink:href="#DejaVuSans-31"/>
    </g>
   </g>
   <g id="legend_1">
    <g id="patch_127">
     <path d="M 341.246563 78.82825 
L 407.72 78.82825 
Q 409.72 78.82825 409.72 76.82825 
L 409.72 48.472 
Q 409.72 46.472 407.72 46.472 
L 341.246563 46.472 
Q 339.246563 46.472 339.246563 48.472 
L 339.246563 76.82825 
Q 339.246563 78.82825 341.246563 78.82825 
z
" style="fill:#ffffff;opacity:0.8;stroke:#cccccc;stroke-linejoin:miter;"/>
    </g>
    <g id="patch_128">
     <path d="M 343.246563 58.070437 
L 363.246563 58.070437 
L 363.246563 51.070437 
L 343.246563 51.070437 
z
" style="fill:#ff0000;opacity:0.4;stroke:#000000;stroke-linejoin:miter;"/>
    </g>
    <g id="text_15">
     <!-- male -->
     <g transform="translate(371.246563 58.070437)scale(0.1 -0.1)">
      <defs>
       <path d="M 3328 2828 
Q 3544 3216 3844 3400 
Q 4144 3584 4550 3584 
Q 5097 3584 5394 3201 
Q 5691 2819 5691 2113 
L 5691 0 
L 5113 0 
L 5113 2094 
Q 5113 2597 4934 2840 
Q 4756 3084 4391 3084 
Q 3944 3084 3684 2787 
Q 3425 2491 3425 1978 
L 3425 0 
L 2847 0 
L 2847 2094 
Q 2847 2600 2669 2842 
Q 2491 3084 2119 3084 
Q 1678 3084 1418 2786 
Q 1159 2488 1159 1978 
L 1159 0 
L 581 0 
L 581 3500 
L 1159 3500 
L 1159 2956 
Q 1356 3278 1631 3431 
Q 1906 3584 2284 3584 
Q 2666 3584 2933 3390 
Q 3200 3197 3328 2828 
z
" id="DejaVuSans-6d" transform="scale(0.015625)"/>
       <path d="M 603 4863 
L 1178 4863 
L 1178 0 
L 603 0 
L 603 4863 
z
" id="DejaVuSans-6c" transform="scale(0.015625)"/>
      </defs>
      <use xlink:href="#DejaVuSans-6d"/>
      <use x="97.412109" xlink:href="#DejaVuSans-61"/>
      <use x="158.691406" xlink:href="#DejaVuSans-6c"/>
      <use x="186.474609" xlink:href="#DejaVuSans-65"/>
     </g>
    </g>
    <g id="patch_129">
     <path d="M 343.246563 72.748562 
L 363.246563 72.748562 
L 363.246563 65.748562 
L 343.246563 65.748562 
z
" style="fill:#0000ff;opacity:0.4;stroke:#000000;stroke-linejoin:miter;"/>
    </g>
    <g id="text_16">
     <!-- female -->
     <g transform="translate(371.246563 72.748562)scale(0.1 -0.1)">
      <use xlink:href="#DejaVuSans-66"/>
      <use x="35.205078" xlink:href="#DejaVuSans-65"/>
      <use x="96.728516" xlink:href="#DejaVuSans-6d"/>
      <use x="194.140625" xlink:href="#DejaVuSans-61"/>
      <use x="255.419922" xlink:href="#DejaVuSans-6c"/>
      <use x="283.203125" xlink:href="#DejaVuSans-65"/>
     </g>
    </g>
   </g>
  </g>
 </g>
 <defs>
  <clipPath id="pb9e88da2de">
   <rect height="266.112" width="357.12" x="57.6" y="41.472"/>
  </clipPath>
 </defs>
</svg>
