<?xml version="1.0" encoding="utf-8" standalone="no"?>
<!DOCTYPE svg PUBLIC "-//W3C//DTD SVG 1.1//EN"
  "http://www.w3.org/Graphics/SVG/1.1/DTD/svg11.dtd">
<svg height="345.6pt" version="1.1" viewBox="0 0 460.8 345.6" width="460.8pt" xmlns="http://www.w3.org/2000/svg" xmlns:xlink="http://www.w3.org/1999/xlink">
 <metadata>
  <rdf:RDF xmlns:cc="http://creativecommons.org/ns#" xmlns:dc="http://purl.org/dc/elements/1.1/" xmlns:rdf="http://www.w3.org/1999/02/22-rdf-syntax-ns#">
   <cc:Work>
    <dc:type rdf:resource="http://purl.org/dc/dcmitype/StillImage"/>
    <dc:date>2022-09-01T23:26:04.584374</dc:date>
    <dc:format>image/svg+xml</dc:format>
    <dc:creator>
     <cc:Agent>
      <dc:title>Matplotlib v3.4.3, https://matplotlib.org/</dc:title>
     </cc:Agent>
    </dc:creator>
   </cc:Work>
  </rdf:RDF>
 </metadata>
 <defs>
  <style type="text/css">*{stroke-linecap:butt;stroke-linejoin:round;}</style>
 </defs>
 <g id="figure_1">
  <g id="patch_1">
   <path d="M 0 345.6 
L 460.8 345.6 
L 460.8 0 
L 0 0 
z
" style="fill:#ffffff;"/>
  </g>
  <g id="axes_1">
   <g id="patch_2">
    <path d="M 57.6 307.584 
L 414.72 307.584 
L 414.72 41.472 
L 57.6 41.472 
z
" style="fill:#ffffff;"/>
   </g>
   <g id="patch_3">
    <path clip-path="url(#p039cae283f)" d="M 73.832727 307.584 
L 78.784478 307.584 
L 78.784478 299.538286 
L 73.832727 299.538286 
z
" style="fill:#ff0000;opacity:0.4;stroke:#000000;stroke-linejoin:miter;"/>
   </g>
   <g id="patch_4">
    <path clip-path="url(#p039cae283f)" d="M 78.784478 307.584 
L 83.736229 307.584 
L 83.736229 287.469714 
L 78.784478 287.469714 
z
" style="fill:#ff0000;opacity:0.4;stroke:#000000;stroke-linejoin:miter;"/>
   </g>
   <g id="patch_5">
    <path clip-path="url(#p039cae283f)" d="M 83.736229 307.584 
L 88.687979 307.584 
L 88.687979 271.378286 
L 83.736229 271.378286 
z
" style="fill:#ff0000;opacity:0.4;stroke:#000000;stroke-linejoin:miter;"/>
   </g>
   <g id="patch_6">
    <path clip-path="url(#p039cae283f)" d="M 88.687979 307.584 
L 93.63973 307.584 
L 93.63973 235.172571 
L 88.687979 235.172571 
z
" style="fill:#ff0000;opacity:0.4;stroke:#000000;stroke-linejoin:miter;"/>
   </g>
   <g id="patch_7">
    <path clip-path="url(#p039cae283f)" d="M 93.63973 307.584 
L 98.591481 307.584 
L 98.591481 170.806857 
L 93.63973 170.806857 
z
" style="fill:#ff0000;opacity:0.4;stroke:#000000;stroke-linejoin:miter;"/>
   </g>
   <g id="patch_8">
    <path clip-path="url(#p039cae283f)" d="M 98.591481 307.584 
L 103.543231 307.584 
L 103.543231 128.566857 
L 98.591481 128.566857 
z
" style="fill:#ff0000;opacity:0.4;stroke:#000000;stroke-linejoin:miter;"/>
   </g>
   <g id="patch_9">
    <path clip-path="url(#p039cae283f)" d="M 103.543231 307.584 
L 108.494982 307.584 
L 108.494982 80.292571 
L 103.543231 80.292571 
z
" style="fill:#ff0000;opacity:0.4;stroke:#000000;stroke-linejoin:miter;"/>
   </g>
   <g id="patch_10">
    <path clip-path="url(#p039cae283f)" d="M 108.494982 307.584 
L 113.446733 307.584 
L 113.446733 58.166857 
L 108.494982 58.166857 
z
" style="fill:#ff0000;opacity:0.4;stroke:#000000;stroke-linejoin:miter;"/>
   </g>
   <g id="patch_11">
    <path clip-path="url(#p039cae283f)" d="M 113.446733 307.584 
L 118.398484 307.584 
L 118.398484 68.224 
L 113.446733 68.224 
z
" style="fill:#ff0000;opacity:0.4;stroke:#000000;stroke-linejoin:miter;"/>
   </g>
   <g id="patch_12">
    <path clip-path="url(#p039cae283f)" d="M 118.398484 307.584 
L 123.350234 307.584 
L 123.350234 140.635429 
L 118.398484 140.635429 
z
" style="fill:#ff0000;opacity:0.4;stroke:#000000;stroke-linejoin:miter;"/>
   </g>
   <g id="patch_13">
    <path clip-path="url(#p039cae283f)" d="M 123.350234 307.584 
L 128.301985 307.584 
L 128.301985 182.875429 
L 123.350234 182.875429 
z
" style="fill:#ff0000;opacity:0.4;stroke:#000000;stroke-linejoin:miter;"/>
   </g>
   <g id="patch_14">
    <path clip-path="url(#p039cae283f)" d="M 128.301985 307.584 
L 133.253736 307.584 
L 133.253736 237.184 
L 128.301985 237.184 
z
" style="fill:#ff0000;opacity:0.4;stroke:#000000;stroke-linejoin:miter;"/>
   </g>
   <g id="patch_15">
    <path clip-path="url(#p039cae283f)" d="M 133.253736 307.584 
L 138.205486 307.584 
L 138.205486 267.355429 
L 133.253736 267.355429 
z
" style="fill:#ff0000;opacity:0.4;stroke:#000000;stroke-linejoin:miter;"/>
   </g>
   <g id="patch_16">
    <path clip-path="url(#p039cae283f)" d="M 138.205486 307.584 
L 143.157237 307.584 
L 143.157237 291.492571 
L 138.205486 291.492571 
z
" style="fill:#ff0000;opacity:0.4;stroke:#000000;stroke-linejoin:miter;"/>
   </g>
   <g id="patch_17">
    <path clip-path="url(#p039cae283f)" d="M 143.157237 307.584 
L 148.108988 307.584 
L 148.108988 299.538286 
L 143.157237 299.538286 
z
" style="fill:#ff0000;opacity:0.4;stroke:#000000;stroke-linejoin:miter;"/>
   </g>
   <g id="patch_18">
    <path clip-path="url(#p039cae283f)" d="M 148.108988 307.584 
L 153.060739 307.584 
L 153.060739 295.515429 
L 148.108988 295.515429 
z
" style="fill:#ff0000;opacity:0.4;stroke:#000000;stroke-linejoin:miter;"/>
   </g>
   <g id="patch_19">
    <path clip-path="url(#p039cae283f)" d="M 153.060739 307.584 
L 158.012489 307.584 
L 158.012489 245.229714 
L 153.060739 245.229714 
z
" style="fill:#ff0000;opacity:0.4;stroke:#000000;stroke-linejoin:miter;"/>
   </g>
   <g id="patch_20">
    <path clip-path="url(#p039cae283f)" d="M 158.012489 307.584 
L 162.96424 307.584 
L 162.96424 241.206857 
L 158.012489 241.206857 
z
" style="fill:#ff0000;opacity:0.4;stroke:#000000;stroke-linejoin:miter;"/>
   </g>
   <g id="patch_21">
    <path clip-path="url(#p039cae283f)" d="M 162.96424 307.584 
L 167.915991 307.584 
L 167.915991 182.875429 
L 162.96424 182.875429 
z
" style="fill:#ff0000;opacity:0.4;stroke:#000000;stroke-linejoin:miter;"/>
   </g>
   <g id="patch_22">
    <path clip-path="url(#p039cae283f)" d="M 167.915991 307.584 
L 172.867741 307.584 
L 172.867741 146.669714 
L 167.915991 146.669714 
z
" style="fill:#ff0000;opacity:0.4;stroke:#000000;stroke-linejoin:miter;"/>
   </g>
   <g id="patch_23">
    <path clip-path="url(#p039cae283f)" d="M 172.867741 307.584 
L 177.819492 307.584 
L 177.819492 94.372571 
L 172.867741 94.372571 
z
" style="fill:#ff0000;opacity:0.4;stroke:#000000;stroke-linejoin:miter;"/>
   </g>
   <g id="patch_24">
    <path clip-path="url(#p039cae283f)" d="M 177.819492 307.584 
L 182.771243 307.584 
L 182.771243 54.144 
L 177.819492 54.144 
z
" style="fill:#ff0000;opacity:0.4;stroke:#000000;stroke-linejoin:miter;"/>
   </g>
   <g id="patch_25">
    <path clip-path="url(#p039cae283f)" d="M 182.771243 307.584 
L 187.722993 307.584 
L 187.722993 94.372571 
L 182.771243 94.372571 
z
" style="fill:#ff0000;opacity:0.4;stroke:#000000;stroke-linejoin:miter;"/>
   </g>
   <g id="patch_26">
    <path clip-path="url(#p039cae283f)" d="M 187.722993 307.584 
L 192.674744 307.584 
L 192.674744 126.555429 
L 187.722993 126.555429 
z
" style="fill:#ff0000;opacity:0.4;stroke:#000000;stroke-linejoin:miter;"/>
   </g>
   <g id="patch_27">
    <path clip-path="url(#p039cae283f)" d="M 192.674744 307.584 
L 197.626495 307.584 
L 197.626495 219.081143 
L 192.674744 219.081143 
z
" style="fill:#ff0000;opacity:0.4;stroke:#000000;stroke-linejoin:miter;"/>
   </g>
   <g id="patch_28">
    <path clip-path="url(#p039cae283f)" d="M 197.626495 307.584 
L 202.578246 307.584 
L 202.578246 239.195429 
L 197.626495 239.195429 
z
" style="fill:#ff0000;opacity:0.4;stroke:#000000;stroke-linejoin:miter;"/>
   </g>
   <g id="patch_29">
    <path clip-path="url(#p039cae283f)" d="M 202.578246 307.584 
L 207.529996 307.584 
L 207.529996 271.378286 
L 202.578246 271.378286 
z
" style="fill:#ff0000;opacity:0.4;stroke:#000000;stroke-linejoin:miter;"/>
   </g>
   <g id="patch_30">
    <path clip-path="url(#p039cae283f)" d="M 207.529996 307.584 
L 212.481747 307.584 
L 212.481747 297.526857 
L 207.529996 297.526857 
z
" style="fill:#ff0000;opacity:0.4;stroke:#000000;stroke-linejoin:miter;"/>
   </g>
   <g id="patch_31">
    <path clip-path="url(#p039cae283f)" d="M 212.481747 307.584 
L 217.433498 307.584 
L 217.433498 299.538286 
L 212.481747 299.538286 
z
" style="fill:#ff0000;opacity:0.4;stroke:#000000;stroke-linejoin:miter;"/>
   </g>
   <g id="patch_32">
    <path clip-path="url(#p039cae283f)" d="M 217.433498 307.584 
L 222.385248 307.584 
L 222.385248 307.584 
L 217.433498 307.584 
z
" style="fill:#ff0000;opacity:0.4;stroke:#000000;stroke-linejoin:miter;"/>
   </g>
   <g id="patch_33">
    <path clip-path="url(#p039cae283f)" d="M 222.385248 307.584 
L 227.336999 307.584 
L 227.336999 303.561143 
L 222.385248 303.561143 
z
" style="fill:#ff0000;opacity:0.4;stroke:#000000;stroke-linejoin:miter;"/>
   </g>
   <g id="patch_34">
    <path clip-path="url(#p039cae283f)" d="M 227.336999 307.584 
L 232.28875 307.584 
L 232.28875 305.572571 
L 227.336999 305.572571 
z
" style="fill:#ff0000;opacity:0.4;stroke:#000000;stroke-linejoin:miter;"/>
   </g>
   <g id="patch_35">
    <path clip-path="url(#p039cae283f)" d="M 232.28875 307.584 
L 237.240501 307.584 
L 237.240501 285.458286 
L 232.28875 285.458286 
z
" style="fill:#ff0000;opacity:0.4;stroke:#000000;stroke-linejoin:miter;"/>
   </g>
   <g id="patch_36">
    <path clip-path="url(#p039cae283f)" d="M 237.240501 307.584 
L 242.192251 307.584 
L 242.192251 277.412571 
L 237.240501 277.412571 
z
" style="fill:#ff0000;opacity:0.4;stroke:#000000;stroke-linejoin:miter;"/>
   </g>
   <g id="patch_37">
    <path clip-path="url(#p039cae283f)" d="M 242.192251 307.584 
L 247.144002 307.584 
L 247.144002 239.195429 
L 242.192251 239.195429 
z
" style="fill:#ff0000;opacity:0.4;stroke:#000000;stroke-linejoin:miter;"/>
   </g>
   <g id="patch_38">
    <path clip-path="url(#p039cae283f)" d="M 247.144002 307.584 
L 252.095753 307.584 
L 252.095753 188.909714 
L 247.144002 188.909714 
z
" style="fill:#ff0000;opacity:0.4;stroke:#000000;stroke-linejoin:miter;"/>
   </g>
   <g id="patch_39">
    <path clip-path="url(#p039cae283f)" d="M 252.095753 307.584 
L 257.047503 307.584 
L 257.047503 162.761143 
L 252.095753 162.761143 
z
" style="fill:#ff0000;opacity:0.4;stroke:#000000;stroke-linejoin:miter;"/>
   </g>
   <g id="patch_40">
    <path clip-path="url(#p039cae283f)" d="M 257.047503 307.584 
L 261.999254 307.584 
L 261.999254 100.406857 
L 257.047503 100.406857 
z
" style="fill:#ff0000;opacity:0.4;stroke:#000000;stroke-linejoin:miter;"/>
   </g>
   <g id="patch_41">
    <path clip-path="url(#p039cae283f)" d="M 261.999254 307.584 
L 266.951005 307.584 
L 266.951005 68.224 
L 261.999254 68.224 
z
" style="fill:#ff0000;opacity:0.4;stroke:#000000;stroke-linejoin:miter;"/>
   </g>
   <g id="patch_42">
    <path clip-path="url(#p039cae283f)" d="M 266.951005 307.584 
L 271.902755 307.584 
L 271.902755 68.224 
L 266.951005 68.224 
z
" style="fill:#ff0000;opacity:0.4;stroke:#000000;stroke-linejoin:miter;"/>
   </g>
   <g id="patch_43">
    <path clip-path="url(#p039cae283f)" d="M 271.902755 307.584 
L 276.854506 307.584 
L 276.854506 134.601143 
L 271.902755 134.601143 
z
" style="fill:#ff0000;opacity:0.4;stroke:#000000;stroke-linejoin:miter;"/>
   </g>
   <g id="patch_44">
    <path clip-path="url(#p039cae283f)" d="M 276.854506 307.584 
L 281.806257 307.584 
L 281.806257 188.909714 
L 276.854506 188.909714 
z
" style="fill:#ff0000;opacity:0.4;stroke:#000000;stroke-linejoin:miter;"/>
   </g>
   <g id="patch_45">
    <path clip-path="url(#p039cae283f)" d="M 281.806257 307.584 
L 286.758008 307.584 
L 286.758008 225.115429 
L 281.806257 225.115429 
z
" style="fill:#ff0000;opacity:0.4;stroke:#000000;stroke-linejoin:miter;"/>
   </g>
   <g id="patch_46">
    <path clip-path="url(#p039cae283f)" d="M 286.758008 307.584 
L 291.709758 307.584 
L 291.709758 271.378286 
L 286.758008 271.378286 
z
" style="fill:#ff0000;opacity:0.4;stroke:#000000;stroke-linejoin:miter;"/>
   </g>
   <g id="patch_47">
    <path clip-path="url(#p039cae283f)" d="M 291.709758 307.584 
L 296.661509 307.584 
L 296.661509 291.492571 
L 291.709758 291.492571 
z
" style="fill:#ff0000;opacity:0.4;stroke:#000000;stroke-linejoin:miter;"/>
   </g>
   <g id="patch_48">
    <path clip-path="url(#p039cae283f)" d="M 296.661509 307.584 
L 301.61326 307.584 
L 301.61326 293.504 
L 296.661509 293.504 
z
" style="fill:#ff0000;opacity:0.4;stroke:#000000;stroke-linejoin:miter;"/>
   </g>
   <g id="patch_49">
    <path clip-path="url(#p039cae283f)" d="M 301.61326 307.584 
L 306.56501 307.584 
L 306.56501 269.366857 
L 301.61326 269.366857 
z
" style="fill:#ff0000;opacity:0.4;stroke:#000000;stroke-linejoin:miter;"/>
   </g>
   <g id="patch_50">
    <path clip-path="url(#p039cae283f)" d="M 306.56501 307.584 
L 311.516761 307.584 
L 311.516761 241.206857 
L 306.56501 241.206857 
z
" style="fill:#ff0000;opacity:0.4;stroke:#000000;stroke-linejoin:miter;"/>
   </g>
   <g id="patch_51">
    <path clip-path="url(#p039cae283f)" d="M 311.516761 307.584 
L 316.468512 307.584 
L 316.468512 202.989714 
L 311.516761 202.989714 
z
" style="fill:#ff0000;opacity:0.4;stroke:#000000;stroke-linejoin:miter;"/>
   </g>
   <g id="patch_52">
    <path clip-path="url(#p039cae283f)" d="M 316.468512 307.584 
L 321.420262 307.584 
L 321.420262 142.646857 
L 316.468512 142.646857 
z
" style="fill:#ff0000;opacity:0.4;stroke:#000000;stroke-linejoin:miter;"/>
   </g>
   <g id="patch_53">
    <path clip-path="url(#p039cae283f)" d="M 321.420262 307.584 
L 326.372013 307.584 
L 326.372013 112.475429 
L 321.420262 112.475429 
z
" style="fill:#ff0000;opacity:0.4;stroke:#000000;stroke-linejoin:miter;"/>
   </g>
   <g id="patch_54">
    <path clip-path="url(#p039cae283f)" d="M 326.372013 307.584 
L 331.323764 307.584 
L 331.323764 100.406857 
L 326.372013 100.406857 
z
" style="fill:#ff0000;opacity:0.4;stroke:#000000;stroke-linejoin:miter;"/>
   </g>
   <g id="patch_55">
    <path clip-path="url(#p039cae283f)" d="M 331.323764 307.584 
L 336.275515 307.584 
L 336.275515 110.464 
L 331.323764 110.464 
z
" style="fill:#ff0000;opacity:0.4;stroke:#000000;stroke-linejoin:miter;"/>
   </g>
   <g id="patch_56">
    <path clip-path="url(#p039cae283f)" d="M 336.275515 307.584 
L 341.227265 307.584 
L 341.227265 134.601143 
L 336.275515 134.601143 
z
" style="fill:#ff0000;opacity:0.4;stroke:#000000;stroke-linejoin:miter;"/>
   </g>
   <g id="patch_57">
    <path clip-path="url(#p039cae283f)" d="M 341.227265 307.584 
L 346.179016 307.584 
L 346.179016 176.841143 
L 341.227265 176.841143 
z
" style="fill:#ff0000;opacity:0.4;stroke:#000000;stroke-linejoin:miter;"/>
   </g>
   <g id="patch_58">
    <path clip-path="url(#p039cae283f)" d="M 346.179016 307.584 
L 351.130767 307.584 
L 351.130767 231.149714 
L 346.179016 231.149714 
z
" style="fill:#ff0000;opacity:0.4;stroke:#000000;stroke-linejoin:miter;"/>
   </g>
   <g id="patch_59">
    <path clip-path="url(#p039cae283f)" d="M 351.130767 307.584 
L 356.082517 307.584 
L 356.082517 263.332571 
L 351.130767 263.332571 
z
" style="fill:#ff0000;opacity:0.4;stroke:#000000;stroke-linejoin:miter;"/>
   </g>
   <g id="patch_60">
    <path clip-path="url(#p039cae283f)" d="M 356.082517 307.584 
L 361.034268 307.584 
L 361.034268 295.515429 
L 356.082517 295.515429 
z
" style="fill:#ff0000;opacity:0.4;stroke:#000000;stroke-linejoin:miter;"/>
   </g>
   <g id="patch_61">
    <path clip-path="url(#p039cae283f)" d="M 361.034268 307.584 
L 365.986019 307.584 
L 365.986019 297.526857 
L 361.034268 297.526857 
z
" style="fill:#ff0000;opacity:0.4;stroke:#000000;stroke-linejoin:miter;"/>
   </g>
   <g id="patch_62">
    <path clip-path="url(#p039cae283f)" d="M 365.986019 307.584 
L 370.93777 307.584 
L 370.93777 303.561143 
L 365.986019 303.561143 
z
" style="fill:#ff0000;opacity:0.4;stroke:#000000;stroke-linejoin:miter;"/>
   </g>
   <g id="patch_63">
    <path clip-path="url(#p039cae283f)" d="M 82.209369 307.584 
L 87.480667 307.584 
L 87.480667 305.694505 
L 82.209369 305.694505 
z
" style="fill:#0000ff;opacity:0.4;stroke:#000000;stroke-linejoin:miter;"/>
   </g>
   <g id="patch_64">
    <path clip-path="url(#p039cae283f)" d="M 87.480667 307.584 
L 92.751966 307.584 
L 92.751966 300.026019 
L 87.480667 300.026019 
z
" style="fill:#0000ff;opacity:0.4;stroke:#000000;stroke-linejoin:miter;"/>
   </g>
   <g id="patch_65">
    <path clip-path="url(#p039cae283f)" d="M 92.751966 307.584 
L 98.023264 307.584 
L 98.023264 290.578544 
L 92.751966 290.578544 
z
" style="fill:#0000ff;opacity:0.4;stroke:#000000;stroke-linejoin:miter;"/>
   </g>
   <g id="patch_66">
    <path clip-path="url(#p039cae283f)" d="M 98.023264 307.584 
L 103.294562 307.584 
L 103.294562 267.904602 
L 98.023264 267.904602 
z
" style="fill:#0000ff;opacity:0.4;stroke:#000000;stroke-linejoin:miter;"/>
   </g>
   <g id="patch_67">
    <path clip-path="url(#p039cae283f)" d="M 103.294562 307.584 
L 108.565861 307.584 
L 108.565861 241.451669 
L 103.294562 241.451669 
z
" style="fill:#0000ff;opacity:0.4;stroke:#000000;stroke-linejoin:miter;"/>
   </g>
   <g id="patch_68">
    <path clip-path="url(#p039cae283f)" d="M 108.565861 307.584 
L 113.837159 307.584 
L 113.837159 196.103785 
L 108.565861 196.103785 
z
" style="fill:#0000ff;opacity:0.4;stroke:#000000;stroke-linejoin:miter;"/>
   </g>
   <g id="patch_69">
    <path clip-path="url(#p039cae283f)" d="M 113.837159 307.584 
L 119.108458 307.584 
L 119.108458 122.413474 
L 113.837159 122.413474 
z
" style="fill:#0000ff;opacity:0.4;stroke:#000000;stroke-linejoin:miter;"/>
   </g>
   <g id="patch_70">
    <path clip-path="url(#p039cae283f)" d="M 119.108458 307.584 
L 124.379756 307.584 
L 124.379756 92.181551 
L 119.108458 92.181551 
z
" style="fill:#0000ff;opacity:0.4;stroke:#000000;stroke-linejoin:miter;"/>
   </g>
   <g id="patch_71">
    <path clip-path="url(#p039cae283f)" d="M 124.379756 307.584 
L 129.651054 307.584 
L 129.651054 60.060133 
L 124.379756 60.060133 
z
" style="fill:#0000ff;opacity:0.4;stroke:#000000;stroke-linejoin:miter;"/>
   </g>
   <g id="patch_72">
    <path clip-path="url(#p039cae283f)" d="M 129.651054 307.584 
L 134.922353 307.584 
L 134.922353 126.192464 
L 129.651054 126.192464 
z
" style="fill:#0000ff;opacity:0.4;stroke:#000000;stroke-linejoin:miter;"/>
   </g>
   <g id="patch_73">
    <path clip-path="url(#p039cae283f)" d="M 134.922353 307.584 
L 140.193651 307.584 
L 140.193651 160.203377 
L 134.922353 160.203377 
z
" style="fill:#0000ff;opacity:0.4;stroke:#000000;stroke-linejoin:miter;"/>
   </g>
   <g id="patch_74">
    <path clip-path="url(#p039cae283f)" d="M 140.193651 307.584 
L 145.46495 307.584 
L 145.46495 213.109242 
L 140.193651 213.109242 
z
" style="fill:#0000ff;opacity:0.4;stroke:#000000;stroke-linejoin:miter;"/>
   </g>
   <g id="patch_75">
    <path clip-path="url(#p039cae283f)" d="M 145.46495 307.584 
L 150.736248 307.584 
L 150.736248 264.125611 
L 145.46495 264.125611 
z
" style="fill:#0000ff;opacity:0.4;stroke:#000000;stroke-linejoin:miter;"/>
   </g>
   <g id="patch_76">
    <path clip-path="url(#p039cae283f)" d="M 150.736248 307.584 
L 156.007546 307.584 
L 156.007546 288.689048 
L 150.736248 288.689048 
z
" style="fill:#0000ff;opacity:0.4;stroke:#000000;stroke-linejoin:miter;"/>
   </g>
   <g id="patch_77">
    <path clip-path="url(#p039cae283f)" d="M 156.007546 307.584 
L 161.278845 307.584 
L 161.278845 294.357534 
L 156.007546 294.357534 
z
" style="fill:#0000ff;opacity:0.4;stroke:#000000;stroke-linejoin:miter;"/>
   </g>
   <g id="patch_78">
    <path clip-path="url(#p039cae283f)" d="M 161.278845 307.584 
L 166.550143 307.584 
L 166.550143 292.468039 
L 161.278845 292.468039 
z
" style="fill:#0000ff;opacity:0.4;stroke:#000000;stroke-linejoin:miter;"/>
   </g>
   <g id="patch_79">
    <path clip-path="url(#p039cae283f)" d="M 166.550143 307.584 
L 171.821442 307.584 
L 171.821442 277.352077 
L 166.550143 277.352077 
z
" style="fill:#0000ff;opacity:0.4;stroke:#000000;stroke-linejoin:miter;"/>
   </g>
   <g id="patch_80">
    <path clip-path="url(#p039cae283f)" d="M 171.821442 307.584 
L 177.09274 307.584 
L 177.09274 235.783184 
L 171.821442 235.783184 
z
" style="fill:#0000ff;opacity:0.4;stroke:#000000;stroke-linejoin:miter;"/>
   </g>
   <g id="patch_81">
    <path clip-path="url(#p039cae283f)" d="M 177.09274 307.584 
L 182.364038 307.584 
L 182.364038 199.882776 
L 177.09274 199.882776 
z
" style="fill:#0000ff;opacity:0.4;stroke:#000000;stroke-linejoin:miter;"/>
   </g>
   <g id="patch_82">
    <path clip-path="url(#p039cae283f)" d="M 182.364038 307.584 
L 187.635337 307.584 
L 187.635337 129.971454 
L 182.364038 129.971454 
z
" style="fill:#0000ff;opacity:0.4;stroke:#000000;stroke-linejoin:miter;"/>
   </g>
   <g id="patch_83">
    <path clip-path="url(#p039cae283f)" d="M 187.635337 307.584 
L 192.906635 307.584 
L 192.906635 63.839124 
L 187.635337 63.839124 
z
" style="fill:#0000ff;opacity:0.4;stroke:#000000;stroke-linejoin:miter;"/>
   </g>
   <g id="patch_84">
    <path clip-path="url(#p039cae283f)" d="M 192.906635 307.584 
L 198.177934 307.584 
L 198.177934 95.960541 
L 192.906635 95.960541 
z
" style="fill:#0000ff;opacity:0.4;stroke:#000000;stroke-linejoin:miter;"/>
   </g>
   <g id="patch_85">
    <path clip-path="url(#p039cae283f)" d="M 198.177934 307.584 
L 203.449232 307.584 
L 203.449232 71.397104 
L 198.177934 71.397104 
z
" style="fill:#0000ff;opacity:0.4;stroke:#000000;stroke-linejoin:miter;"/>
   </g>
   <g id="patch_86">
    <path clip-path="url(#p039cae283f)" d="M 203.449232 307.584 
L 208.72053 307.584 
L 208.72053 160.203377 
L 203.449232 160.203377 
z
" style="fill:#0000ff;opacity:0.4;stroke:#000000;stroke-linejoin:miter;"/>
   </g>
   <g id="patch_87">
    <path clip-path="url(#p039cae283f)" d="M 208.72053 307.584 
L 213.991829 307.584 
L 213.991829 203.661766 
L 208.72053 203.661766 
z
" style="fill:#0000ff;opacity:0.4;stroke:#000000;stroke-linejoin:miter;"/>
   </g>
   <g id="patch_88">
    <path clip-path="url(#p039cae283f)" d="M 213.991829 307.584 
L 219.263127 307.584 
L 219.263127 245.23066 
L 213.991829 245.23066 
z
" style="fill:#0000ff;opacity:0.4;stroke:#000000;stroke-linejoin:miter;"/>
   </g>
   <g id="patch_89">
    <path clip-path="url(#p039cae283f)" d="M 219.263127 307.584 
L 224.534426 307.584 
L 224.534426 296.247029 
L 219.263127 296.247029 
z
" style="fill:#0000ff;opacity:0.4;stroke:#000000;stroke-linejoin:miter;"/>
   </g>
   <g id="patch_90">
    <path clip-path="url(#p039cae283f)" d="M 224.534426 307.584 
L 229.805724 307.584 
L 229.805724 298.136524 
L 224.534426 298.136524 
z
" style="fill:#0000ff;opacity:0.4;stroke:#000000;stroke-linejoin:miter;"/>
   </g>
   <g id="patch_91">
    <path clip-path="url(#p039cae283f)" d="M 229.805724 307.584 
L 235.077022 307.584 
L 235.077022 303.80501 
L 229.805724 303.80501 
z
" style="fill:#0000ff;opacity:0.4;stroke:#000000;stroke-linejoin:miter;"/>
   </g>
   <g id="patch_92">
    <path clip-path="url(#p039cae283f)" d="M 235.077022 307.584 
L 240.348321 307.584 
L 240.348321 307.584 
L 235.077022 307.584 
z
" style="fill:#0000ff;opacity:0.4;stroke:#000000;stroke-linejoin:miter;"/>
   </g>
   <g id="patch_93">
    <path clip-path="url(#p039cae283f)" d="M 240.348321 307.584 
L 245.619619 307.584 
L 245.619619 303.80501 
L 240.348321 303.80501 
z
" style="fill:#0000ff;opacity:0.4;stroke:#000000;stroke-linejoin:miter;"/>
   </g>
   <g id="patch_94">
    <path clip-path="url(#p039cae283f)" d="M 245.619619 307.584 
L 250.890918 307.584 
L 250.890918 286.799553 
L 245.619619 286.799553 
z
" style="fill:#0000ff;opacity:0.4;stroke:#000000;stroke-linejoin:miter;"/>
   </g>
   <g id="patch_95">
    <path clip-path="url(#p039cae283f)" d="M 250.890918 307.584 
L 256.162216 307.584 
L 256.162216 283.020563 
L 250.890918 283.020563 
z
" style="fill:#0000ff;opacity:0.4;stroke:#000000;stroke-linejoin:miter;"/>
   </g>
   <g id="patch_96">
    <path clip-path="url(#p039cae283f)" d="M 256.162216 307.584 
L 261.433514 307.584 
L 261.433514 260.346621 
L 256.162216 260.346621 
z
" style="fill:#0000ff;opacity:0.4;stroke:#000000;stroke-linejoin:miter;"/>
   </g>
   <g id="patch_97">
    <path clip-path="url(#p039cae283f)" d="M 261.433514 307.584 
L 266.704813 307.584 
L 266.704813 224.446213 
L 261.433514 224.446213 
z
" style="fill:#0000ff;opacity:0.4;stroke:#000000;stroke-linejoin:miter;"/>
   </g>
   <g id="patch_98">
    <path clip-path="url(#p039cae283f)" d="M 266.704813 307.584 
L 271.976111 307.584 
L 271.976111 152.645396 
L 266.704813 152.645396 
z
" style="fill:#0000ff;opacity:0.4;stroke:#000000;stroke-linejoin:miter;"/>
   </g>
   <g id="patch_99">
    <path clip-path="url(#p039cae283f)" d="M 271.976111 307.584 
L 277.24741 307.584 
L 277.24741 99.739532 
L 271.976111 99.739532 
z
" style="fill:#0000ff;opacity:0.4;stroke:#000000;stroke-linejoin:miter;"/>
   </g>
   <g id="patch_100">
    <path clip-path="url(#p039cae283f)" d="M 277.24741 307.584 
L 282.518708 307.584 
L 282.518708 107.297512 
L 277.24741 107.297512 
z
" style="fill:#0000ff;opacity:0.4;stroke:#000000;stroke-linejoin:miter;"/>
   </g>
   <g id="patch_101">
    <path clip-path="url(#p039cae283f)" d="M 282.518708 307.584 
L 287.790006 307.584 
L 287.790006 112.965998 
L 282.518708 112.965998 
z
" style="fill:#0000ff;opacity:0.4;stroke:#000000;stroke-linejoin:miter;"/>
   </g>
   <g id="patch_102">
    <path clip-path="url(#p039cae283f)" d="M 287.790006 307.584 
L 293.061305 307.584 
L 293.061305 94.071046 
L 287.790006 94.071046 
z
" style="fill:#0000ff;opacity:0.4;stroke:#000000;stroke-linejoin:miter;"/>
   </g>
   <g id="patch_103">
    <path clip-path="url(#p039cae283f)" d="M 293.061305 307.584 
L 298.332603 307.584 
L 298.332603 175.319338 
L 293.061305 175.319338 
z
" style="fill:#0000ff;opacity:0.4;stroke:#000000;stroke-linejoin:miter;"/>
   </g>
   <g id="patch_104">
    <path clip-path="url(#p039cae283f)" d="M 298.332603 307.584 
L 303.603902 307.584 
L 303.603902 243.341164 
L 298.332603 243.341164 
z
" style="fill:#0000ff;opacity:0.4;stroke:#000000;stroke-linejoin:miter;"/>
   </g>
   <g id="patch_105">
    <path clip-path="url(#p039cae283f)" d="M 303.603902 307.584 
L 308.8752 307.584 
L 308.8752 288.689048 
L 303.603902 288.689048 
z
" style="fill:#0000ff;opacity:0.4;stroke:#000000;stroke-linejoin:miter;"/>
   </g>
   <g id="patch_106">
    <path clip-path="url(#p039cae283f)" d="M 308.8752 307.584 
L 314.146498 307.584 
L 314.146498 283.020563 
L 308.8752 283.020563 
z
" style="fill:#0000ff;opacity:0.4;stroke:#000000;stroke-linejoin:miter;"/>
   </g>
   <g id="patch_107">
    <path clip-path="url(#p039cae283f)" d="M 314.146498 307.584 
L 319.417797 307.584 
L 319.417797 283.020563 
L 314.146498 283.020563 
z
" style="fill:#0000ff;opacity:0.4;stroke:#000000;stroke-linejoin:miter;"/>
   </g>
   <g id="patch_108">
    <path clip-path="url(#p039cae283f)" d="M 319.417797 307.584 
L 324.689095 307.584 
L 324.689095 247.120155 
L 319.417797 247.120155 
z
" style="fill:#0000ff;opacity:0.4;stroke:#000000;stroke-linejoin:miter;"/>
   </g>
   <g id="patch_109">
    <path clip-path="url(#p039cae283f)" d="M 324.689095 307.584 
L 329.960394 307.584 
L 329.960394 230.114698 
L 324.689095 230.114698 
z
" style="fill:#0000ff;opacity:0.4;stroke:#000000;stroke-linejoin:miter;"/>
   </g>
   <g id="patch_110">
    <path clip-path="url(#p039cae283f)" d="M 329.960394 307.584 
L 335.231692 307.584 
L 335.231692 148.866406 
L 329.960394 148.866406 
z
" style="fill:#0000ff;opacity:0.4;stroke:#000000;stroke-linejoin:miter;"/>
   </g>
   <g id="patch_111">
    <path clip-path="url(#p039cae283f)" d="M 335.231692 307.584 
L 340.50299 307.584 
L 340.50299 82.734075 
L 335.231692 82.734075 
z
" style="fill:#0000ff;opacity:0.4;stroke:#000000;stroke-linejoin:miter;"/>
   </g>
   <g id="patch_112">
    <path clip-path="url(#p039cae283f)" d="M 340.50299 307.584 
L 345.774289 307.584 
L 345.774289 69.507609 
L 340.50299 69.507609 
z
" style="fill:#0000ff;opacity:0.4;stroke:#000000;stroke-linejoin:miter;"/>
   </g>
   <g id="patch_113">
    <path clip-path="url(#p039cae283f)" d="M 345.774289 307.584 
L 351.045587 307.584 
L 351.045587 94.071046 
L 345.774289 94.071046 
z
" style="fill:#0000ff;opacity:0.4;stroke:#000000;stroke-linejoin:miter;"/>
   </g>
   <g id="patch_114">
    <path clip-path="url(#p039cae283f)" d="M 351.045587 307.584 
L 356.316886 307.584 
L 356.316886 111.076503 
L 351.045587 111.076503 
z
" style="fill:#0000ff;opacity:0.4;stroke:#000000;stroke-linejoin:miter;"/>
   </g>
   <g id="patch_115">
    <path clip-path="url(#p039cae283f)" d="M 356.316886 307.584 
L 361.588184 307.584 
L 361.588184 171.540348 
L 356.316886 171.540348 
z
" style="fill:#0000ff;opacity:0.4;stroke:#000000;stroke-linejoin:miter;"/>
   </g>
   <g id="patch_116">
    <path clip-path="url(#p039cae283f)" d="M 361.588184 307.584 
L 366.859482 307.584 
L 366.859482 228.225203 
L 361.588184 228.225203 
z
" style="fill:#0000ff;opacity:0.4;stroke:#000000;stroke-linejoin:miter;"/>
   </g>
   <g id="patch_117">
    <path clip-path="url(#p039cae283f)" d="M 366.859482 307.584 
L 372.130781 307.584 
L 372.130781 279.241573 
L 366.859482 279.241573 
z
" style="fill:#0000ff;opacity:0.4;stroke:#000000;stroke-linejoin:miter;"/>
   </g>
   <g id="patch_118">
    <path clip-path="url(#p039cae283f)" d="M 372.130781 307.584 
L 377.402079 307.584 
L 377.402079 301.915515 
L 372.130781 301.915515 
z
" style="fill:#0000ff;opacity:0.4;stroke:#000000;stroke-linejoin:miter;"/>
   </g>
   <g id="patch_119">
    <path clip-path="url(#p039cae283f)" d="M 377.402079 307.584 
L 382.673378 307.584 
L 382.673378 298.136524 
L 377.402079 298.136524 
z
" style="fill:#0000ff;opacity:0.4;stroke:#000000;stroke-linejoin:miter;"/>
   </g>
   <g id="patch_120">
    <path clip-path="url(#p039cae283f)" d="M 382.673378 307.584 
L 387.944676 307.584 
L 387.944676 307.584 
L 382.673378 307.584 
z
" style="fill:#0000ff;opacity:0.4;stroke:#000000;stroke-linejoin:miter;"/>
   </g>
   <g id="patch_121">
    <path clip-path="url(#p039cae283f)" d="M 387.944676 307.584 
L 393.215974 307.584 
L 393.215974 307.584 
L 387.944676 307.584 
z
" style="fill:#0000ff;opacity:0.4;stroke:#000000;stroke-linejoin:miter;"/>
   </g>
   <g id="patch_122">
    <path clip-path="url(#p039cae283f)" d="M 393.215974 307.584 
L 398.487273 307.584 
L 398.487273 305.694505 
L 393.215974 305.694505 
z
" style="fill:#0000ff;opacity:0.4;stroke:#000000;stroke-linejoin:miter;"/>
   </g>
   <g id="matplotlib.axis_1">
    <g id="xtick_1">
     <g id="line2d_1">
      <defs>
       <path d="M 0 0 
L 0 3.5 
" id="mfe69b2b6b4" style="stroke:#000000;stroke-width:0.8;"/>
      </defs>
      <g>
       <use style="stroke:#000000;stroke-width:0.8;" x="89.326878" xlink:href="#mfe69b2b6b4" y="307.584"/>
      </g>
     </g>
     <g id="text_1">
      <!-- −40 -->
      <g transform="translate(78.774534 322.182437)scale(0.1 -0.1)">
       <defs>
        <path d="M 678 2272 
L 4684 2272 
L 4684 1741 
L 678 1741 
L 678 2272 
z
" id="DejaVuSans-2212" transform="scale(0.015625)"/>
        <path d="M 2419 4116 
L 825 1625 
L 2419 1625 
L 2419 4116 
z
M 2253 4666 
L 3047 4666 
L 3047 1625 
L 3713 1625 
L 3713 1100 
L 3047 1100 
L 3047 0 
L 2419 0 
L 2419 1100 
L 313 1100 
L 313 1709 
L 2253 4666 
z
" id="DejaVuSans-34" transform="scale(0.015625)"/>
        <path d="M 2034 4250 
Q 1547 4250 1301 3770 
Q 1056 3291 1056 2328 
Q 1056 1369 1301 889 
Q 1547 409 2034 409 
Q 2525 409 2770 889 
Q 3016 1369 3016 2328 
Q 3016 3291 2770 3770 
Q 2525 4250 2034 4250 
z
M 2034 4750 
Q 2819 4750 3233 4129 
Q 3647 3509 3647 2328 
Q 3647 1150 3233 529 
Q 2819 -91 2034 -91 
Q 1250 -91 836 529 
Q 422 1150 422 2328 
Q 422 3509 836 4129 
Q 1250 4750 2034 4750 
z
" id="DejaVuSans-30" transform="scale(0.015625)"/>
       </defs>
       <use xlink:href="#DejaVuSans-2212"/>
       <use x="83.789062" xlink:href="#DejaVuSans-34"/>
       <use x="147.412109" xlink:href="#DejaVuSans-30"/>
      </g>
     </g>
    </g>
    <g id="xtick_2">
     <g id="line2d_2">
      <g>
       <use style="stroke:#000000;stroke-width:0.8;" x="162.978883" xlink:href="#mfe69b2b6b4" y="307.584"/>
      </g>
     </g>
     <g id="text_2">
      <!-- −20 -->
      <g transform="translate(152.426539 322.182437)scale(0.1 -0.1)">
       <defs>
        <path d="M 1228 531 
L 3431 531 
L 3431 0 
L 469 0 
L 469 531 
Q 828 903 1448 1529 
Q 2069 2156 2228 2338 
Q 2531 2678 2651 2914 
Q 2772 3150 2772 3378 
Q 2772 3750 2511 3984 
Q 2250 4219 1831 4219 
Q 1534 4219 1204 4116 
Q 875 4013 500 3803 
L 500 4441 
Q 881 4594 1212 4672 
Q 1544 4750 1819 4750 
Q 2544 4750 2975 4387 
Q 3406 4025 3406 3419 
Q 3406 3131 3298 2873 
Q 3191 2616 2906 2266 
Q 2828 2175 2409 1742 
Q 1991 1309 1228 531 
z
" id="DejaVuSans-32" transform="scale(0.015625)"/>
       </defs>
       <use xlink:href="#DejaVuSans-2212"/>
       <use x="83.789062" xlink:href="#DejaVuSans-32"/>
       <use x="147.412109" xlink:href="#DejaVuSans-30"/>
      </g>
     </g>
    </g>
    <g id="xtick_3">
     <g id="line2d_3">
      <g>
       <use style="stroke:#000000;stroke-width:0.8;" x="236.630889" xlink:href="#mfe69b2b6b4" y="307.584"/>
      </g>
     </g>
     <g id="text_3">
      <!-- 0 -->
      <g transform="translate(233.449639 322.182437)scale(0.1 -0.1)">
       <use xlink:href="#DejaVuSans-30"/>
      </g>
     </g>
    </g>
    <g id="xtick_4">
     <g id="line2d_4">
      <g>
       <use style="stroke:#000000;stroke-width:0.8;" x="310.282894" xlink:href="#mfe69b2b6b4" y="307.584"/>
      </g>
     </g>
     <g id="text_4">
      <!-- 20 -->
      <g transform="translate(303.920394 322.182437)scale(0.1 -0.1)">
       <use xlink:href="#DejaVuSans-32"/>
       <use x="63.623047" xlink:href="#DejaVuSans-30"/>
      </g>
     </g>
    </g>
    <g id="xtick_5">
     <g id="line2d_5">
      <g>
       <use style="stroke:#000000;stroke-width:0.8;" x="383.9349" xlink:href="#mfe69b2b6b4" y="307.584"/>
      </g>
     </g>
     <g id="text_5">
      <!-- 40 -->
      <g transform="translate(377.5724 322.182437)scale(0.1 -0.1)">
       <use xlink:href="#DejaVuSans-34"/>
       <use x="63.623047" xlink:href="#DejaVuSans-30"/>
      </g>
     </g>
    </g>
   </g>
   <g id="matplotlib.axis_2">
    <g id="ytick_1">
     <g id="line2d_6">
      <defs>
       <path d="M 0 0 
L -3.5 0 
" id="m1e6adfa181" style="stroke:#000000;stroke-width:0.8;"/>
      </defs>
      <g>
       <use style="stroke:#000000;stroke-width:0.8;" x="57.6" xlink:href="#m1e6adfa181" y="307.584"/>
      </g>
     </g>
     <g id="text_6">
      <!-- 0.000 -->
      <g transform="translate(21.971875 311.383219)scale(0.1 -0.1)">
       <defs>
        <path d="M 684 794 
L 1344 794 
L 1344 0 
L 684 0 
L 684 794 
z
" id="DejaVuSans-2e" transform="scale(0.015625)"/>
       </defs>
       <use xlink:href="#DejaVuSans-30"/>
       <use x="63.623047" xlink:href="#DejaVuSans-2e"/>
       <use x="95.410156" xlink:href="#DejaVuSans-30"/>
       <use x="159.033203" xlink:href="#DejaVuSans-30"/>
       <use x="222.65625" xlink:href="#DejaVuSans-30"/>
      </g>
     </g>
    </g>
    <g id="ytick_2">
     <g id="line2d_7">
      <g>
       <use style="stroke:#000000;stroke-width:0.8;" x="57.6" xlink:href="#m1e6adfa181" y="267.014462"/>
      </g>
     </g>
     <g id="text_7">
      <!-- 0.005 -->
      <g transform="translate(21.971875 270.813681)scale(0.1 -0.1)">
       <defs>
        <path d="M 691 4666 
L 3169 4666 
L 3169 4134 
L 1269 4134 
L 1269 2991 
Q 1406 3038 1543 3061 
Q 1681 3084 1819 3084 
Q 2600 3084 3056 2656 
Q 3513 2228 3513 1497 
Q 3513 744 3044 326 
Q 2575 -91 1722 -91 
Q 1428 -91 1123 -41 
Q 819 9 494 109 
L 494 744 
Q 775 591 1075 516 
Q 1375 441 1709 441 
Q 2250 441 2565 725 
Q 2881 1009 2881 1497 
Q 2881 1984 2565 2268 
Q 2250 2553 1709 2553 
Q 1456 2553 1204 2497 
Q 953 2441 691 2322 
L 691 4666 
z
" id="DejaVuSans-35" transform="scale(0.015625)"/>
       </defs>
       <use xlink:href="#DejaVuSans-30"/>
       <use x="63.623047" xlink:href="#DejaVuSans-2e"/>
       <use x="95.410156" xlink:href="#DejaVuSans-30"/>
       <use x="159.033203" xlink:href="#DejaVuSans-30"/>
       <use x="222.65625" xlink:href="#DejaVuSans-35"/>
      </g>
     </g>
    </g>
    <g id="ytick_3">
     <g id="line2d_8">
      <g>
       <use style="stroke:#000000;stroke-width:0.8;" x="57.6" xlink:href="#m1e6adfa181" y="226.444924"/>
      </g>
     </g>
     <g id="text_8">
      <!-- 0.010 -->
      <g transform="translate(21.971875 230.244142)scale(0.1 -0.1)">
       <defs>
        <path d="M 794 531 
L 1825 531 
L 1825 4091 
L 703 3866 
L 703 4441 
L 1819 4666 
L 2450 4666 
L 2450 531 
L 3481 531 
L 3481 0 
L 794 0 
L 794 531 
z
" id="DejaVuSans-31" transform="scale(0.015625)"/>
       </defs>
       <use xlink:href="#DejaVuSans-30"/>
       <use x="63.623047" xlink:href="#DejaVuSans-2e"/>
       <use x="95.410156" xlink:href="#DejaVuSans-30"/>
       <use x="159.033203" xlink:href="#DejaVuSans-31"/>
       <use x="222.65625" xlink:href="#DejaVuSans-30"/>
      </g>
     </g>
    </g>
    <g id="ytick_4">
     <g id="line2d_9">
      <g>
       <use style="stroke:#000000;stroke-width:0.8;" x="57.6" xlink:href="#m1e6adfa181" y="185.875385"/>
      </g>
     </g>
     <g id="text_9">
      <!-- 0.015 -->
      <g transform="translate(21.971875 189.674604)scale(0.1 -0.1)">
       <use xlink:href="#DejaVuSans-30"/>
       <use x="63.623047" xlink:href="#DejaVuSans-2e"/>
       <use x="95.410156" xlink:href="#DejaVuSans-30"/>
       <use x="159.033203" xlink:href="#DejaVuSans-31"/>
       <use x="222.65625" xlink:href="#DejaVuSans-35"/>
      </g>
     </g>
    </g>
    <g id="ytick_5">
     <g id="line2d_10">
      <g>
       <use style="stroke:#000000;stroke-width:0.8;" x="57.6" xlink:href="#m1e6adfa181" y="145.305847"/>
      </g>
     </g>
     <g id="text_10">
      <!-- 0.020 -->
      <g transform="translate(21.971875 149.105066)scale(0.1 -0.1)">
       <use xlink:href="#DejaVuSans-30"/>
       <use x="63.623047" xlink:href="#DejaVuSans-2e"/>
       <use x="95.410156" xlink:href="#DejaVuSans-30"/>
       <use x="159.033203" xlink:href="#DejaVuSans-32"/>
       <use x="222.65625" xlink:href="#DejaVuSans-30"/>
      </g>
     </g>
    </g>
    <g id="ytick_6">
     <g id="line2d_11">
      <g>
       <use style="stroke:#000000;stroke-width:0.8;" x="57.6" xlink:href="#m1e6adfa181" y="104.736309"/>
      </g>
     </g>
     <g id="text_11">
      <!-- 0.025 -->
      <g transform="translate(21.971875 108.535528)scale(0.1 -0.1)">
       <use xlink:href="#DejaVuSans-30"/>
       <use x="63.623047" xlink:href="#DejaVuSans-2e"/>
       <use x="95.410156" xlink:href="#DejaVuSans-30"/>
       <use x="159.033203" xlink:href="#DejaVuSans-32"/>
       <use x="222.65625" xlink:href="#DejaVuSans-35"/>
      </g>
     </g>
    </g>
    <g id="ytick_7">
     <g id="line2d_12">
      <g>
       <use style="stroke:#000000;stroke-width:0.8;" x="57.6" xlink:href="#m1e6adfa181" y="64.166771"/>
      </g>
     </g>
     <g id="text_12">
      <!-- 0.030 -->
      <g transform="translate(21.971875 67.965989)scale(0.1 -0.1)">
       <defs>
        <path d="M 2597 2516 
Q 3050 2419 3304 2112 
Q 3559 1806 3559 1356 
Q 3559 666 3084 287 
Q 2609 -91 1734 -91 
Q 1441 -91 1130 -33 
Q 819 25 488 141 
L 488 750 
Q 750 597 1062 519 
Q 1375 441 1716 441 
Q 2309 441 2620 675 
Q 2931 909 2931 1356 
Q 2931 1769 2642 2001 
Q 2353 2234 1838 2234 
L 1294 2234 
L 1294 2753 
L 1863 2753 
Q 2328 2753 2575 2939 
Q 2822 3125 2822 3475 
Q 2822 3834 2567 4026 
Q 2313 4219 1838 4219 
Q 1578 4219 1281 4162 
Q 984 4106 628 3988 
L 628 4550 
Q 988 4650 1302 4700 
Q 1616 4750 1894 4750 
Q 2613 4750 3031 4423 
Q 3450 4097 3450 3541 
Q 3450 3153 3228 2886 
Q 3006 2619 2597 2516 
z
" id="DejaVuSans-33" transform="scale(0.015625)"/>
       </defs>
       <use xlink:href="#DejaVuSans-30"/>
       <use x="63.623047" xlink:href="#DejaVuSans-2e"/>
       <use x="95.410156" xlink:href="#DejaVuSans-30"/>
       <use x="159.033203" xlink:href="#DejaVuSans-33"/>
       <use x="222.65625" xlink:href="#DejaVuSans-30"/>
      </g>
     </g>
    </g>
   </g>
   <g id="patch_123">
    <path d="M 57.6 307.584 
L 57.6 41.472 
" style="fill:none;stroke:#000000;stroke-linecap:square;stroke-linejoin:miter;stroke-width:0.8;"/>
   </g>
   <g id="patch_124">
    <path d="M 414.72 307.584 
L 414.72 41.472 
" style="fill:none;stroke:#000000;stroke-linecap:square;stroke-linejoin:miter;stroke-width:0.8;"/>
   </g>
   <g id="patch_125">
    <path d="M 57.6 307.584 
L 414.72 307.584 
" style="fill:none;stroke:#000000;stroke-linecap:square;stroke-linejoin:miter;stroke-width:0.8;"/>
   </g>
   <g id="patch_126">
    <path d="M 57.6 41.472 
L 414.72 41.472 
" style="fill:none;stroke:#000000;stroke-linecap:square;stroke-linejoin:miter;stroke-width:0.8;"/>
   </g>
   <g id="text_13">
    <!-- GAUSSIANIZED_feature_3 -->
    <g transform="translate(159.26625 35.472)scale(0.12 -0.12)">
     <defs>
      <path d="M 3809 666 
L 3809 1919 
L 2778 1919 
L 2778 2438 
L 4434 2438 
L 4434 434 
Q 4069 175 3628 42 
Q 3188 -91 2688 -91 
Q 1594 -91 976 548 
Q 359 1188 359 2328 
Q 359 3472 976 4111 
Q 1594 4750 2688 4750 
Q 3144 4750 3555 4637 
Q 3966 4525 4313 4306 
L 4313 3634 
Q 3963 3931 3569 4081 
Q 3175 4231 2741 4231 
Q 1884 4231 1454 3753 
Q 1025 3275 1025 2328 
Q 1025 1384 1454 906 
Q 1884 428 2741 428 
Q 3075 428 3337 486 
Q 3600 544 3809 666 
z
" id="DejaVuSans-47" transform="scale(0.015625)"/>
      <path d="M 2188 4044 
L 1331 1722 
L 3047 1722 
L 2188 4044 
z
M 1831 4666 
L 2547 4666 
L 4325 0 
L 3669 0 
L 3244 1197 
L 1141 1197 
L 716 0 
L 50 0 
L 1831 4666 
z
" id="DejaVuSans-41" transform="scale(0.015625)"/>
      <path d="M 556 4666 
L 1191 4666 
L 1191 1831 
Q 1191 1081 1462 751 
Q 1734 422 2344 422 
Q 2950 422 3222 751 
Q 3494 1081 3494 1831 
L 3494 4666 
L 4128 4666 
L 4128 1753 
Q 4128 841 3676 375 
Q 3225 -91 2344 -91 
Q 1459 -91 1007 375 
Q 556 841 556 1753 
L 556 4666 
z
" id="DejaVuSans-55" transform="scale(0.015625)"/>
      <path d="M 3425 4513 
L 3425 3897 
Q 3066 4069 2747 4153 
Q 2428 4238 2131 4238 
Q 1616 4238 1336 4038 
Q 1056 3838 1056 3469 
Q 1056 3159 1242 3001 
Q 1428 2844 1947 2747 
L 2328 2669 
Q 3034 2534 3370 2195 
Q 3706 1856 3706 1288 
Q 3706 609 3251 259 
Q 2797 -91 1919 -91 
Q 1588 -91 1214 -16 
Q 841 59 441 206 
L 441 856 
Q 825 641 1194 531 
Q 1563 422 1919 422 
Q 2459 422 2753 634 
Q 3047 847 3047 1241 
Q 3047 1584 2836 1778 
Q 2625 1972 2144 2069 
L 1759 2144 
Q 1053 2284 737 2584 
Q 422 2884 422 3419 
Q 422 4038 858 4394 
Q 1294 4750 2059 4750 
Q 2388 4750 2728 4690 
Q 3069 4631 3425 4513 
z
" id="DejaVuSans-53" transform="scale(0.015625)"/>
      <path d="M 628 4666 
L 1259 4666 
L 1259 0 
L 628 0 
L 628 4666 
z
" id="DejaVuSans-49" transform="scale(0.015625)"/>
      <path d="M 628 4666 
L 1478 4666 
L 3547 763 
L 3547 4666 
L 4159 4666 
L 4159 0 
L 3309 0 
L 1241 3903 
L 1241 0 
L 628 0 
L 628 4666 
z
" id="DejaVuSans-4e" transform="scale(0.015625)"/>
      <path d="M 359 4666 
L 4025 4666 
L 4025 4184 
L 1075 531 
L 4097 531 
L 4097 0 
L 288 0 
L 288 481 
L 3238 4134 
L 359 4134 
L 359 4666 
z
" id="DejaVuSans-5a" transform="scale(0.015625)"/>
      <path d="M 628 4666 
L 3578 4666 
L 3578 4134 
L 1259 4134 
L 1259 2753 
L 3481 2753 
L 3481 2222 
L 1259 2222 
L 1259 531 
L 3634 531 
L 3634 0 
L 628 0 
L 628 4666 
z
" id="DejaVuSans-45" transform="scale(0.015625)"/>
      <path d="M 1259 4147 
L 1259 519 
L 2022 519 
Q 2988 519 3436 956 
Q 3884 1394 3884 2338 
Q 3884 3275 3436 3711 
Q 2988 4147 2022 4147 
L 1259 4147 
z
M 628 4666 
L 1925 4666 
Q 3281 4666 3915 4102 
Q 4550 3538 4550 2338 
Q 4550 1131 3912 565 
Q 3275 0 1925 0 
L 628 0 
L 628 4666 
z
" id="DejaVuSans-44" transform="scale(0.015625)"/>
      <path d="M 3263 -1063 
L 3263 -1509 
L -63 -1509 
L -63 -1063 
L 3263 -1063 
z
" id="DejaVuSans-5f" transform="scale(0.015625)"/>
      <path d="M 2375 4863 
L 2375 4384 
L 1825 4384 
Q 1516 4384 1395 4259 
Q 1275 4134 1275 3809 
L 1275 3500 
L 2222 3500 
L 2222 3053 
L 1275 3053 
L 1275 0 
L 697 0 
L 697 3053 
L 147 3053 
L 147 3500 
L 697 3500 
L 697 3744 
Q 697 4328 969 4595 
Q 1241 4863 1831 4863 
L 2375 4863 
z
" id="DejaVuSans-66" transform="scale(0.015625)"/>
      <path d="M 3597 1894 
L 3597 1613 
L 953 1613 
Q 991 1019 1311 708 
Q 1631 397 2203 397 
Q 2534 397 2845 478 
Q 3156 559 3463 722 
L 3463 178 
Q 3153 47 2828 -22 
Q 2503 -91 2169 -91 
Q 1331 -91 842 396 
Q 353 884 353 1716 
Q 353 2575 817 3079 
Q 1281 3584 2069 3584 
Q 2775 3584 3186 3129 
Q 3597 2675 3597 1894 
z
M 3022 2063 
Q 3016 2534 2758 2815 
Q 2500 3097 2075 3097 
Q 1594 3097 1305 2825 
Q 1016 2553 972 2059 
L 3022 2063 
z
" id="DejaVuSans-65" transform="scale(0.015625)"/>
      <path d="M 2194 1759 
Q 1497 1759 1228 1600 
Q 959 1441 959 1056 
Q 959 750 1161 570 
Q 1363 391 1709 391 
Q 2188 391 2477 730 
Q 2766 1069 2766 1631 
L 2766 1759 
L 2194 1759 
z
M 3341 1997 
L 3341 0 
L 2766 0 
L 2766 531 
Q 2569 213 2275 61 
Q 1981 -91 1556 -91 
Q 1019 -91 701 211 
Q 384 513 384 1019 
Q 384 1609 779 1909 
Q 1175 2209 1959 2209 
L 2766 2209 
L 2766 2266 
Q 2766 2663 2505 2880 
Q 2244 3097 1772 3097 
Q 1472 3097 1187 3025 
Q 903 2953 641 2809 
L 641 3341 
Q 956 3463 1253 3523 
Q 1550 3584 1831 3584 
Q 2591 3584 2966 3190 
Q 3341 2797 3341 1997 
z
" id="DejaVuSans-61" transform="scale(0.015625)"/>
      <path d="M 1172 4494 
L 1172 3500 
L 2356 3500 
L 2356 3053 
L 1172 3053 
L 1172 1153 
Q 1172 725 1289 603 
Q 1406 481 1766 481 
L 2356 481 
L 2356 0 
L 1766 0 
Q 1100 0 847 248 
Q 594 497 594 1153 
L 594 3053 
L 172 3053 
L 172 3500 
L 594 3500 
L 594 4494 
L 1172 4494 
z
" id="DejaVuSans-74" transform="scale(0.015625)"/>
      <path d="M 544 1381 
L 544 3500 
L 1119 3500 
L 1119 1403 
Q 1119 906 1312 657 
Q 1506 409 1894 409 
Q 2359 409 2629 706 
Q 2900 1003 2900 1516 
L 2900 3500 
L 3475 3500 
L 3475 0 
L 2900 0 
L 2900 538 
Q 2691 219 2414 64 
Q 2138 -91 1772 -91 
Q 1169 -91 856 284 
Q 544 659 544 1381 
z
M 1991 3584 
L 1991 3584 
z
" id="DejaVuSans-75" transform="scale(0.015625)"/>
      <path d="M 2631 2963 
Q 2534 3019 2420 3045 
Q 2306 3072 2169 3072 
Q 1681 3072 1420 2755 
Q 1159 2438 1159 1844 
L 1159 0 
L 581 0 
L 581 3500 
L 1159 3500 
L 1159 2956 
Q 1341 3275 1631 3429 
Q 1922 3584 2338 3584 
Q 2397 3584 2469 3576 
Q 2541 3569 2628 3553 
L 2631 2963 
z
" id="DejaVuSans-72" transform="scale(0.015625)"/>
     </defs>
     <use xlink:href="#DejaVuSans-47"/>
     <use x="77.490234" xlink:href="#DejaVuSans-41"/>
     <use x="145.898438" xlink:href="#DejaVuSans-55"/>
     <use x="219.091797" xlink:href="#DejaVuSans-53"/>
     <use x="282.568359" xlink:href="#DejaVuSans-53"/>
     <use x="346.044922" xlink:href="#DejaVuSans-49"/>
     <use x="375.537109" xlink:href="#DejaVuSans-41"/>
     <use x="443.945312" xlink:href="#DejaVuSans-4e"/>
     <use x="518.75" xlink:href="#DejaVuSans-49"/>
     <use x="548.242188" xlink:href="#DejaVuSans-5a"/>
     <use x="616.748047" xlink:href="#DejaVuSans-45"/>
     <use x="679.931641" xlink:href="#DejaVuSans-44"/>
     <use x="756.933594" xlink:href="#DejaVuSans-5f"/>
     <use x="806.933594" xlink:href="#DejaVuSans-66"/>
     <use x="842.138672" xlink:href="#DejaVuSans-65"/>
     <use x="903.662109" xlink:href="#DejaVuSans-61"/>
     <use x="964.941406" xlink:href="#DejaVuSans-74"/>
     <use x="1004.150391" xlink:href="#DejaVuSans-75"/>
     <use x="1067.529297" xlink:href="#DejaVuSans-72"/>
     <use x="1106.392578" xlink:href="#DejaVuSans-65"/>
     <use x="1167.916016" xlink:href="#DejaVuSans-5f"/>
     <use x="1217.916016" xlink:href="#DejaVuSans-33"/>
    </g>
   </g>
   <g id="legend_1">
    <g id="patch_127">
     <path d="M 341.246563 78.82825 
L 407.72 78.82825 
Q 409.72 78.82825 409.72 76.82825 
L 409.72 48.472 
Q 409.72 46.472 407.72 46.472 
L 341.246563 46.472 
Q 339.246563 46.472 339.246563 48.472 
L 339.246563 76.82825 
Q 339.246563 78.82825 341.246563 78.82825 
z
" style="fill:#ffffff;opacity:0.8;stroke:#cccccc;stroke-linejoin:miter;"/>
    </g>
    <g id="patch_128">
     <path d="M 343.246563 58.070437 
L 363.246563 58.070437 
L 363.246563 51.070437 
L 343.246563 51.070437 
z
" style="fill:#ff0000;opacity:0.4;stroke:#000000;stroke-linejoin:miter;"/>
    </g>
    <g id="text_14">
     <!-- male -->
     <g transform="translate(371.246563 58.070437)scale(0.1 -0.1)">
      <defs>
       <path d="M 3328 2828 
Q 3544 3216 3844 3400 
Q 4144 3584 4550 3584 
Q 5097 3584 5394 3201 
Q 5691 2819 5691 2113 
L 5691 0 
L 5113 0 
L 5113 2094 
Q 5113 2597 4934 2840 
Q 4756 3084 4391 3084 
Q 3944 3084 3684 2787 
Q 3425 2491 3425 1978 
L 3425 0 
L 2847 0 
L 2847 2094 
Q 2847 2600 2669 2842 
Q 2491 3084 2119 3084 
Q 1678 3084 1418 2786 
Q 1159 2488 1159 1978 
L 1159 0 
L 581 0 
L 581 3500 
L 1159 3500 
L 1159 2956 
Q 1356 3278 1631 3431 
Q 1906 3584 2284 3584 
Q 2666 3584 2933 3390 
Q 3200 3197 3328 2828 
z
" id="DejaVuSans-6d" transform="scale(0.015625)"/>
       <path d="M 603 4863 
L 1178 4863 
L 1178 0 
L 603 0 
L 603 4863 
z
" id="DejaVuSans-6c" transform="scale(0.015625)"/>
      </defs>
      <use xlink:href="#DejaVuSans-6d"/>
      <use x="97.412109" xlink:href="#DejaVuSans-61"/>
      <use x="158.691406" xlink:href="#DejaVuSans-6c"/>
      <use x="186.474609" xlink:href="#DejaVuSans-65"/>
     </g>
    </g>
    <g id="patch_129">
     <path d="M 343.246563 72.748562 
L 363.246563 72.748562 
L 363.246563 65.748562 
L 343.246563 65.748562 
z
" style="fill:#0000ff;opacity:0.4;stroke:#000000;stroke-linejoin:miter;"/>
    </g>
    <g id="text_15">
     <!-- female -->
     <g transform="translate(371.246563 72.748562)scale(0.1 -0.1)">
      <use xlink:href="#DejaVuSans-66"/>
      <use x="35.205078" xlink:href="#DejaVuSans-65"/>
      <use x="96.728516" xlink:href="#DejaVuSans-6d"/>
      <use x="194.140625" xlink:href="#DejaVuSans-61"/>
      <use x="255.419922" xlink:href="#DejaVuSans-6c"/>
      <use x="283.203125" xlink:href="#DejaVuSans-65"/>
     </g>
    </g>
   </g>
  </g>
 </g>
 <defs>
  <clipPath id="p039cae283f">
   <rect height="266.112" width="357.12" x="57.6" y="41.472"/>
  </clipPath>
 </defs>
</svg>
